<?xml version="1.0" standalone="no"?>
  <!DOCTYPE svg PUBLIC "-//W3C//DTD SVG 1.1//EN" "http://www.w3.org/Graphics/SVG/1.1/DTD/svg11.dtd" >
  <svg>
  <metadata>
  Created by font-carrier
  </metadata>
  <defs>
  <font id="Roboto-Light" horiz-adv-x="2245" vert-adv-y="2245" >
    <font-face
      
      font-family="Roboto-Light"
      
      font-weight="400"
      
      font-stretch="normal"
      
      units-per-em="2048"
      
      ascent="2146"
      
      descent="-555"
      
    />
      <missing-glyph />

      

      
      <glyph glyph-name="uni21" unicode="&#x21;" d="M288 478L169 478L169 1456L288 1456L288 478M300 0L158 0L158 167L300 167L300 0Z"  horiz-adv-x="462" vert-adv-y="2048"  />

      
      <glyph glyph-name="uni22" unicode="&#x22;" d="M232 1344L199 1083L127 1083L130 1338L130 1560L232 1560L232 1344M471 1344L438 1083L366 1083L370 1341L370 1560L471 1560L471 1344Z"  horiz-adv-x="588" vert-adv-y="2048"  />

      
      <glyph glyph-name="uni23" unicode="&#x23;" d="M735 410L422 410L345 0L245 0L322 410L67 410L67 503L339 503L422 944L143 944L143 1040L440 1040L519 1456L619 1456L540 1040L854 1040L933 1456L1033 1456L954 1040L1183 1040L1183 944L936 944L853 503L1108 503L1108 410L835 410L758 0L658 0L735 410M439 503L753 503L836 944L522 944L439 503Z"  horiz-adv-x="1270" vert-adv-y="2048"  />

      
      <glyph glyph-name="uni24" unicode="&#x24;" d="M901 359Q901 469 829 539Q757 609 575 674Q367 740 267 833Q167 926 167 1095Q167 1257 267 1359Q367 1461 539 1475L539 1677L641 1677L641 1475Q816 1459 912 1344Q1008 1229 1006 1033L1003 1028L891 1028Q891 1180 811 1275Q731 1370 587 1370Q439 1370 362.50 1292.50Q286 1215 286 1097Q286 983 354 913.50Q422 844 615 780Q822 711 921.50 619.50Q1021 528 1021 361Q1021 195 917 95.50Q813-4 637-18L637-208L536-208L536-19Q355-8 235.50 96.50Q116 201 120 412L123 418L235 418Q235 241 336 163Q437 85 580 85Q728 85 814.50 162.50Q901 240 901 359Z"  horiz-adv-x="1135" vert-adv-y="2048"  />

      
      <glyph glyph-name="uni25" unicode="&#x25;" d="M110 1176Q110 1303 188.50 1390Q267 1477 395 1477Q522 1477 600.50 1390Q679 1303 679 1176L679 1099Q679 973 601 886.50Q523 800 397 800Q268 800 189 886.50Q110 973 110 1099L110 1176M206 1099Q206 1011 255.50 949Q305 887 397 887Q486 887 534.50 949Q583 1011 583 1099L583 1176Q583 1264 534 1327Q485 1390 395 1390Q305 1390 255.50 1327Q206 1264 206 1176L206 1099M842 356Q842 482 920.50 569Q999 656 1127 656Q1254 656 1333 569Q1412 482 1412 356L1412 278Q1412 152 1333.50 65.50Q1255-21 1129-21Q1000-21 921 65.50Q842 152 842 278L842 356M939 278Q939 190 988 128Q1037 66 1129 66Q1218 66 1266.50 128Q1315 190 1315 278L1315 356Q1315 447 1266 508Q1217 569 1127 569Q1037 569 988 507.50Q939 446 939 356L939 278M460 121L386 169L1097 1307L1171 1259L460 121Z"  horiz-adv-x="1514" vert-adv-y="2048"  />

      
      <glyph glyph-name="uni26" unicode="&#x26;" d="M388 795Q307 895 268 977.50Q229 1060 229 1147Q229 1305 318 1391Q407 1477 562 1477Q706 1477 790.50 1396Q875 1315 875 1192Q875 1102 830 1037Q785 972 700 907L541 785L953 304Q1002 375 1029 463Q1056 551 1056 651L1166 651Q1166 523 1129.50 415.50Q1093 308 1024 221L1209 5L1207 0L1070 0L948 141Q863 63 762 21Q661-21 544-21Q335-21 213 86Q91 193 91 371Q91 491 163.50 587.50Q236 684 373 784L388 795M544 80Q636 80 723.50 116Q811 152 881 219L467 701Q462 706 458.50 709.50Q455 713 453 717L406 681Q290 587 250.50 511Q211 435 211 371Q211 247 296.50 163.50Q382 80 544 80M349 1149Q349 1083 380.50 1012Q412 941 477 861L654 993Q712 1038 736.50 1087Q761 1136 761 1192Q761 1271 708.50 1323Q656 1375 562 1375Q460 1375 404.50 1310Q349 1245 349 1149Z"  horiz-adv-x="1260" vert-adv-y="2048"  />

      
      <glyph glyph-name="uni27" unicode="&#x27;" d="M226 1365L188 1090L116 1090L124 1356L124 1560L226 1560L226 1365Z"  horiz-adv-x="348" vert-adv-y="2048"  />

      
      <glyph glyph-name="uni28" unicode="&#x28;" d="M140 588Q140 951 279 1239Q418 1527 589 1625L595 1624L621 1551Q476 1448 368 1185Q260 922 260 591L260 571Q260 240 368-23Q476-286 621-393L595-463L589-463Q416-363 278-81Q140 201 140 573L140 588Z"  horiz-adv-x="640" vert-adv-y="2048"  />

      
      <glyph glyph-name="uni29" unicode="&#x29;" d="M498 573Q498 201 360-81Q222-363 50-463L44-463L18-393Q162-291 270.50-26Q379 239 379 571L379 591Q379 920 268.50 1186.50Q158 1453 18 1555L44 1625L50 1625Q220 1527 359 1239Q498 951 498 588L498 573Z"  horiz-adv-x="652" vert-adv-y="2048"  />

      
      <glyph glyph-name="uni2a" unicode="&#x2a;" d="M361 1000L29 1108L61 1209L393 1086L389 1456L493 1456L485 1083L809 1210L842 1109L509 994L732 700L647 637L433 942L229 639L144 700L361 1000Z"  horiz-adv-x="869" vert-adv-y="2048"  />

      
      <glyph glyph-name="uni2b" unicode="&#x2b;" d="M630 740L1073 740L1073 628L630 628L630 146L509 146L509 628L75 628L75 740L509 740L509 1206L630 1206L630 740Z"  horiz-adv-x="1156" vert-adv-y="2048"  />

      
      <glyph glyph-name="uni2c" unicode="&#x2c;" d="M271 18L165-258L83-258L152 21L152 188L271 188L271 18Z"  horiz-adv-x="392" vert-adv-y="2048"  />

      
      <glyph glyph-name="uni2d" unicode="&#x2d;" d="M528 570L49 570L49 671L528 671L528 570Z"  horiz-adv-x="586" vert-adv-y="2048"  />

      
      <glyph glyph-name="uni2e" unicode="&#x2e;" d="M304 0L167 0L167 164L304 164L304 0Z"  horiz-adv-x="489" vert-adv-y="2048"  />

      
      <glyph glyph-name="uni2f" unicode="&#x2f;" d="M139-125L30-125L638 1456L746 1456L139-125Z"  horiz-adv-x="813" vert-adv-y="2048"  />

      
      <glyph glyph-name="uni30" unicode="&#x30;" d="M1059 565Q1059 283 937 131Q815-21 598-21Q382-21 258.50 131.50Q135 284 135 565L135 890Q135 1171 257 1324Q379 1477 596 1477Q813 1477 936 1324Q1059 1171 1059 890L1059 565M939 910Q939 1134 851 1254.50Q763 1375 596 1375Q429 1375 342 1254.50Q255 1134 255 910L255 547Q255 325 343.50 202.50Q432 80 598 80Q764 80 851.50 202Q939 324 939 547L939 910Z"  horiz-adv-x="1194" vert-adv-y="2048"  />

      
      <glyph glyph-name="uni31" unicode="&#x31;" d="M678-7L558-7L558 1331L188 1288L188 1372L678 1460L678-7Z"  horiz-adv-x="1135" vert-adv-y="2048"  />

      
      <glyph glyph-name="uni32" unicode="&#x32;" d="M1041 0L137 0L137 92L614 633Q746 782 800.50 882.50Q855 983 855 1075Q855 1211 778.50 1293Q702 1375 562 1375Q396 1375 310 1283Q224 1191 224 1037L113 1037L111 1043Q106 1225 229 1351Q352 1477 562 1477Q750 1477 863 1369Q976 1261 976 1079Q976 959 900.50 835.50Q825 712 690 560L289 106L291 101L1041 101L1041 0Z"  horiz-adv-x="1135" vert-adv-y="2048"  />

      
      <glyph glyph-name="uni33" unicode="&#x33;" d="M403 793L542 793Q701 793 783 872.50Q865 952 865 1077Q865 1213 788 1294Q711 1375 559 1375Q419 1375 329.50 1292.50Q240 1210 240 1075L128 1075L126 1081Q121 1251 245 1364Q369 1477 559 1477Q754 1477 869.50 1370Q985 1263 985 1073Q985 970 921 879.50Q857 789 741 745Q877 706 944.50 613.50Q1012 521 1012 395Q1012 201 886.50 90Q761-21 564-21Q373-21 236 87.50Q99 196 104 389L106 395L218 395Q218 256 314.50 168Q411 80 564 80Q719 80 806 160.50Q893 241 893 391Q893 544 802 617.50Q711 691 542 691L403 691L403 793Z"  horiz-adv-x="1135" vert-adv-y="2048"  />

      
      <glyph glyph-name="uni34" unicode="&#x34;" d="M871 469L1099 469L1099 368L871 368L871 0L752 0L752 368L69 368L69 436L740 1456L871 1456L871 469M211 469L752 469L752 1299L746 1301L695 1192L211 469Z"  horiz-adv-x="1135" vert-adv-y="2048"  />

      
      <glyph glyph-name="uni35" unicode="&#x35;" d="M189 659L270 1456L977 1456L977 1345L372 1345L318 826Q373 876 439 903Q505 930 618 933Q804 936 918 808Q1032 680 1032 464Q1032 243 921.50 111Q811-21 589-21Q409-21 289 79.50Q169 180 174 377L176 383L283 383Q283 236 366.50 158Q450 80 589 80Q751 80 831.50 178Q912 276 912 462Q912 625 831.50 723.50Q751 822 606 822Q466 822 392.50 777.50Q319 733 286 643L189 659Z"  horiz-adv-x="1135" vert-adv-y="2048"  />

      
      <glyph glyph-name="uni36" unicode="&#x36;" d="M647 1477Q722 1477 795 1460Q868 1443 925 1411L894 1313Q837 1345 781 1360Q725 1375 647 1375Q485 1375 378.50 1249Q272 1123 272 918L272 789Q332 867 425 914Q518 961 631 961Q827 961 941 826Q1055 691 1055 474Q1055 259 932.50 119Q810-21 614-21Q413-21 282.50 129Q152 279 152 540L152 907Q152 1159 295 1318Q438 1477 647 1477M607 863Q486 863 395.50 800Q305 737 272 638L272 531Q272 322 368 201Q464 80 614 80Q760 80 847.50 194.50Q935 309 935 474Q935 649 850 756Q765 863 607 863Z"  horiz-adv-x="1135" vert-adv-y="2048"  />

      
      <glyph glyph-name="uni37" unicode="&#x37;" d="M1032 1354Q796 1074 671 785.50Q546 497 504 122L493 0L373 0L384 122Q426 492 558 791.50Q690 1091 908 1354L77 1354L77 1456L1032 1456L1032 1354Z"  horiz-adv-x="1135" vert-adv-y="2048"  />

      
      <glyph glyph-name="uni38" unicode="&#x38;" d="M996 1081Q996 963 927 874.50Q858 786 743 746Q876 705 956.50 609.50Q1037 514 1037 386Q1037 190 906 84.50Q775-21 569-21Q359-21 229.50 84Q100 189 100 386Q100 515 179 610.50Q258 706 391 747Q276 787 208.50 875Q141 963 141 1081Q141 1269 259.50 1373Q378 1477 567 1477Q755 1477 875.50 1372.50Q996 1268 996 1081M917 385Q917 523 817 609.50Q717 696 567 696Q415 696 317 609.50Q219 523 219 385Q219 242 316 161Q413 80 569 80Q721 80 819 161.50Q917 243 917 385M876 1082Q876 1208 787.50 1291.50Q699 1375 567 1375Q432 1375 346 1295Q260 1215 260 1082Q260 953 346.50 875.50Q433 798 569 798Q702 798 789 875.50Q876 953 876 1082Z"  horiz-adv-x="1135" vert-adv-y="2048"  />

      
      <glyph glyph-name="uni39" unicode="&#x39;" d="M511 80Q677 80 775 191Q873 302 873 509L873 655Q820 563 730.50 513Q641 463 531 463Q332 463 210.50 601Q89 739 89 958Q89 1179 216.50 1328Q344 1477 532 1477Q743 1477 870 1339.50Q997 1202 997 940L997 511Q997 258 863 118.50Q729-21 511-21Q433-21 354.50-6Q276 9 205 40L227 140Q295 108 361.50 94Q428 80 511 80M531 564Q661 564 748.50 630.50Q836 697 873 795L873 949Q873 1156 782.50 1265.50Q692 1375 537 1375Q396 1375 304.50 1253Q213 1131 213 958Q213 790 299 677Q385 564 531 564Z"  horiz-adv-x="1135" vert-adv-y="2048"  />

      
      <glyph glyph-name="uni3a" unicode="&#x3a;" d="M291 0L154 0L154 164L291 164L291 0M291 916L154 916L154 1080L291 1080L291 916Z"  horiz-adv-x="434" vert-adv-y="2048"  />

      
      <glyph glyph-name="uni3b" unicode="&#x3b;" d="M295 918L158 918L158 1082L295 1082L295 918M294 18L188-258L106-258L175 21L175 188L294 188L294 18Z"  horiz-adv-x="438" vert-adv-y="2048"  />

      
      <glyph glyph-name="uni3c" unicode="&#x3c;" d="M290 578L182 550L182 544L290 516L904 248L904 122L77 501L77 598L904 976L904 850L290 578Z"  horiz-adv-x="1047" vert-adv-y="2048"  />

      
      <glyph glyph-name="uni3d" unicode="&#x3d;" d="M983 833L149 833L149 939L983 939L983 833M983 422L149 422L149 528L983 528L983 422Z"  horiz-adv-x="1147" vert-adv-y="2048"  />

      
      <glyph glyph-name="uni3e" unicode="&#x3e;" d="M124 853L124 976L969 598L969 501L124 122L124 246L756 520L864 547L864 553L756 582L124 853Z"  horiz-adv-x="1061" vert-adv-y="2048"  />

      
      <glyph glyph-name="uni3f" unicode="&#x3f;" d="M377 404Q378 535 399 586.50Q420 638 513 723Q621 835 670.50 910.50Q720 986 720 1102Q720 1230 652 1300Q584 1370 458 1370Q340 1370 268 1301.50Q196 1233 195 1116L83 1116L81 1122Q78 1287 185 1382Q292 1477 458 1477Q637 1477 738.50 1376Q840 1275 840 1103Q840 968 773.50 863.50Q707 759 585 645Q523 592 509.50 546Q496 500 496 404L377 404M512 0L373 0L373 154L512 154L512 0Z"  horiz-adv-x="930" vert-adv-y="2048"  />

      
      <glyph glyph-name="uni40" unicode="&#x40;" d="M1751 513Q1741 297 1634 138Q1527-21 1321-21Q1243-21 1190.50 30Q1138 81 1121 172Q1068 76 990 27.50Q912-21 810-21Q679-21 611 99Q543 219 562 416Q585 670 703 823.50Q821 977 989 977Q1083 977 1140 950.50Q1197 924 1266 869L1264 867L1267 867L1217 293Q1207 161 1247 113Q1287 65 1342 65Q1484 65 1566.50 189.50Q1649 314 1660 513Q1678 902 1510 1117.50Q1342 1333 980 1333Q657 1333 447 1097.50Q237 862 220 478Q201 99 383.50-134.50Q566-368 903-368Q991-368 1081-346Q1171-324 1233-289L1264-364Q1200-405 1097-429Q994-453 899-453Q519-453 311-203.50Q103 46 122 478Q140 902 374.50 1161Q609 1420 984 1420Q1375 1420 1571.50 1178.50Q1768 937 1751 513M672 416Q656 261 698 169Q740 77 836 77Q922 77 992.50 120Q1063 163 1115 277Q1115 282 1115 285.50Q1115 289 1116 293L1163 837Q1131 860 1092 873Q1053 886 1005 886Q871 886 783 767Q695 648 672 416Z"  horiz-adv-x="1870" vert-adv-y="2048"  />

      
      <glyph glyph-name="uni41" unicode="&#x41;" d="M973 406L306 406L156 0L32 0L585 1456L698 1456L1247 0L1123 0L973 406M346 513L934 513L644 1301L638 1301L346 513Z"  horiz-adv-x="1279" vert-adv-y="2048"  />

      
      <glyph glyph-name="uni42" unicode="&#x42;" d="M191 0L191 1456L616 1456Q843 1456 969.50 1360.50Q1096 1265 1096 1073Q1096 961 1032.50 878Q969 795 860 763Q993 739 1076 638Q1159 537 1159 405Q1159 210 1032.50 105Q906 0 694 0L191 0M310 702L310 101L694 101Q855 101 947 180.50Q1039 260 1039 403Q1039 534 955.50 618Q872 702 713 702L310 702M310 803L645 803Q803 803 889.50 872.50Q976 942 976 1077Q976 1215 884 1284.50Q792 1354 616 1354L310 1354L310 803Z"  horiz-adv-x="1269" vert-adv-y="2048"  />

      
      <glyph glyph-name="uni43" unicode="&#x43;" d="M1194 455L1196 449Q1177 230 1040 104.50Q903-21 673-21Q430-21 281 154.50Q132 330 132 609L132 846Q132 1124 281 1300.50Q430 1477 673 1477Q905 1477 1041 1354Q1177 1231 1196 1008L1194 1002L1082 1002Q1058 1183 957.50 1279Q857 1375 673 1375Q482 1375 366.50 1227Q251 1079 251 848L251 609Q251 375 366.50 227.50Q482 80 673 80Q857 80 958 174Q1059 268 1082 455L1194 455Z"  horiz-adv-x="1313" vert-adv-y="2048"  />

      
      <glyph glyph-name="uni44" unicode="&#x44;" d="M191 0L191 1456L614 1456Q881 1456 1055 1278Q1229 1100 1229 821L1229 634Q1229 354 1055 177Q881 0 614 0L191 0M310 1354L310 101L614 101Q830 101 969.50 252Q1109 403 1109 634L1109 824Q1109 1052 969 1203Q829 1354 614 1354L310 1354Z"  horiz-adv-x="1344" vert-adv-y="2048"  />

      
      <glyph glyph-name="uni45" unicode="&#x45;" d="M1011 705L310 705L310 101L1113 101L1113 0L191 0L191 1456L1108 1456L1108 1354L310 1354L310 807L1011 807L1011 705Z"  horiz-adv-x="1180" vert-adv-y="2048"  />

      
      <glyph glyph-name="uni46" unicode="&#x46;" d="M1018 682L310 682L310 0L191 0L191 1456L1120 1456L1120 1354L310 1354L310 785L1018 785L1018 682Z"  horiz-adv-x="1181" vert-adv-y="2048"  />

      
      <glyph glyph-name="uni47" unicode="&#x47;" d="M1230 173Q1181 102 1051.50 40.50Q922-21 725-21Q471-21 308.50 152Q146 325 146 600L146 867Q146 1137 300.50 1307Q455 1477 701 1477Q936 1477 1068.50 1359.50Q1201 1242 1222 1054L1220 1048L1109 1048Q1083 1194 986 1284.50Q889 1375 701 1375Q505 1375 385.50 1233Q266 1091 266 869L266 600Q266 372 393 226Q520 80 725 80Q870 80 971.50 120.50Q1073 161 1110 209L1110 589L723 589L723 691L1230 691L1230 173Z"  horiz-adv-x="1401" vert-adv-y="2048"  />

      
      <glyph glyph-name="uni48" unicode="&#x48;" d="M1257 0L1138 0L1138 670L310 670L310 0L191 0L191 1456L310 1456L310 772L1138 772L1138 1456L1257 1456L1257 0Z"  horiz-adv-x="1448" vert-adv-y="2048"  />

      
      <glyph glyph-name="uni49" unicode="&#x49;" d="M337 0L217 0L217 1456L337 1456L337 0Z"  horiz-adv-x="554" vert-adv-y="2048"  />

      
      <glyph glyph-name="uni4a" unicode="&#x4a;" d="M825 1456L945 1456L945 413Q945 214 826.50 96.50Q708-21 520-21Q315-21 196 85Q77 191 82 395L84 401L196 401Q196 243 280 161.50Q364 80 520 80Q653 80 739 170.50Q825 261 825 413L825 1456Z"  horiz-adv-x="1127" vert-adv-y="2048"  />

      
      <glyph glyph-name="uni4b" unicode="&#x4b;" d="M510 685L310 685L310 0L191 0L191 1456L310 1456L310 786L509 786L1082 1456L1217 1456L1219 1451L617 740L1262 5L1260 0L1118 0L510 685Z"  horiz-adv-x="1308" vert-adv-y="2048"  />

      
      <glyph glyph-name="uni4c" unicode="&#x4c;" d="M311 101L1031 101L1031 0L191 0L191 1456L311 1456L311 101Z"  horiz-adv-x="1079" vert-adv-y="2048"  />

      
      <glyph glyph-name="uni4d" unicode="&#x4d;" d="M348 1456L883 174L889 174L1426 1456L1584 1456L1584 0L1465 0L1465 643L1475 1280L1469 1282L928 0L845 0L305 1276L299 1275L310 643L310 0L191 0L191 1456L348 1456Z"  horiz-adv-x="1775" vert-adv-y="2048"  />

      
      <glyph glyph-name="uni4e" unicode="&#x4e;" d="M1263 0L1144 0L317 1252L311 1251L311 0L191 0L191 1456L311 1456L1138 206L1144 207L1144 1456L1263 1456L1263 0Z"  horiz-adv-x="1454" vert-adv-y="2048"  />

      
      <glyph glyph-name="uni4f" unicode="&#x4f;" d="M1254 609Q1254 327 1099.50 153Q945-21 685-21Q429-21 276.50 153Q124 327 124 609L124 846Q124 1127 276 1302Q428 1477 684 1477Q944 1477 1099 1302Q1254 1127 1254 846L1254 609M1135 848Q1135 1084 1015.50 1228Q896 1372 684 1372Q476 1372 360 1228Q244 1084 244 848L244 609Q244 371 360.50 227Q477 83 685 83Q898 83 1016.50 226.50Q1135 370 1135 609L1135 848Z"  horiz-adv-x="1378" vert-adv-y="2048"  />

      
      <glyph glyph-name="uni50" unicode="&#x50;" d="M310 605L310 0L191 0L191 1456L692 1456Q921 1456 1046.50 1339.50Q1172 1223 1172 1031Q1172 837 1046.50 721Q921 605 692 605L310 605M310 707L692 707Q872 707 962.50 798.50Q1053 890 1053 1029Q1053 1169 963 1261.50Q873 1354 692 1354L310 1354L310 707Z"  horiz-adv-x="1267" vert-adv-y="2048"  />

      
      <glyph glyph-name="uni51" unicode="&#x51;" d="M1254 609Q1254 445 1199.50 313.50Q1145 182 1044 99L1294-137L1211-212L947 37Q888 8 822.50-6.50Q757-21 685-21Q429-21 276.50 153Q124 327 124 609L124 846Q124 1127 276 1302Q428 1477 684 1477Q944 1477 1099 1302Q1254 1127 1254 846L1254 609M1135 848Q1135 1084 1015.50 1228Q896 1372 684 1372Q476 1372 360 1228Q244 1084 244 848L244 609Q244 371 360.50 227Q477 83 685 83Q898 83 1016.50 226.50Q1135 370 1135 609L1135 848Z"  horiz-adv-x="1379" vert-adv-y="2048"  />

      
      <glyph glyph-name="uni52" unicode="&#x52;" d="M307 658L307 0L188 0L188 1455L681 1455Q915 1455 1040 1352.50Q1165 1250 1165 1053Q1165 937 1098 845.50Q1031 754 909 712Q1044 678 1103.50 590.50Q1163 503 1163 371L1163 234Q1163 166 1179 112Q1195 58 1232 24L1232 0L1110 0Q1073 36 1058 101Q1043 166 1043 236L1043 369Q1043 503 956.50 580.50Q870 658 715 658L307 658M307 760L666 760Q863 760 954 839.50Q1045 919 1045 1054Q1045 1198 954.50 1275.50Q864 1353 681 1353L307 1353L307 760Z"  horiz-adv-x="1348" vert-adv-y="2048"  />

      
      <glyph glyph-name="uni53" unicode="&#x53;" d="M1024 357Q1024 476 935 551.50Q846 627 625 685Q386 745 263 841Q140 937 140 1100Q140 1267 277.50 1372Q415 1477 631 1477Q856 1477 994 1352Q1132 1227 1128 1047L1125 1041L1015 1041Q1015 1187 911.50 1281Q808 1375 631 1375Q456 1375 357.50 1297Q259 1219 259 1103Q259 993 350 919.50Q441 846 664 790Q899 730 1021.50 628Q1144 526 1144 359Q1144 185 1001.50 82Q859-21 638-21Q420-21 257.50 88.50Q95 198 100 408L102 414L212 414Q212 244 339 162Q466 80 638 80Q811 80 917.50 156Q1024 232 1024 357Z"  horiz-adv-x="1231" vert-adv-y="2048"  />

      
      <glyph glyph-name="uni54" unicode="&#x54;" d="M1167 1354L666 1354L666 0L546 0L546 1354L45 1354L45 1456L1167 1456L1167 1354Z"  horiz-adv-x="1213" vert-adv-y="2048"  />

      
      <glyph glyph-name="uni55" unicode="&#x55;" d="M1209 1456L1209 469Q1209 231 1063.50 105Q918-21 684-21Q453-21 310 105.50Q167 232 167 469L167 1456L287 1456L287 469Q287 283 397 181.50Q507 80 684 80Q864 80 977 181Q1090 282 1090 469L1090 1456L1209 1456Z"  horiz-adv-x="1374" vert-adv-y="2048"  />

      
      <glyph glyph-name="uni56" unicode="&#x56;" d="M600 246L629 149L635 149L664 246L1101 1456L1231 1456L688 0L575 0L32 1456L162 1456L600 246Z"  horiz-adv-x="1263" vert-adv-y="2048"  />

      
      <glyph glyph-name="uni57" unicode="&#x57;" d="M445 412L489 189L495 188L550 412L858 1456L971 1456L1279 412L1332 187L1338 188L1385 412L1648 1456L1770 1456L1396 0L1283 0L956 1117L918 1270L912 1270L875 1117L545 0L431 0L57 1456L180 1456L445 412Z"  horiz-adv-x="1834" vert-adv-y="2048"  />

      
      <glyph glyph-name="uni58" unicode="&#x58;" d="M628 834L1039 1456L1184 1456L700 738L1200 0L1057 0L630 642L204 0L59 0L559 738L74 1456L219 1456L628 834Z"  horiz-adv-x="1256" vert-adv-y="2048"  />

      
      <glyph glyph-name="uni59" unicode="&#x59;" d="M620 647L1071 1456L1210 1456L679 532L679 0L560 0L560 539L33 1456L172 1456L620 647Z"  horiz-adv-x="1244" vert-adv-y="2048"  />

      
      <glyph glyph-name="uni5a" unicode="&#x5a;" d="M238 101L1131 101L1131 0L95 0L95 92L953 1354L122 1354L122 1456L1099 1456L1099 1369L238 101Z"  horiz-adv-x="1224" vert-adv-y="2048"  />

      
      <glyph glyph-name="uni5b" unicode="&#x5b;" d="M493 1562L283 1562L283-210L493-210L493-312L163-312L163 1664L493 1664L493 1562Z"  horiz-adv-x="491" vert-adv-y="2048"  />

      
      <glyph glyph-name="uni5c" unicode="&#x5c;" d="M48 1456L165 1456L773-125L656-125L48 1456Z"  horiz-adv-x="807" vert-adv-y="2048"  />

      
      <glyph glyph-name="uni5d" unicode="&#x5d;" d="M0 1664L331 1664L331-312L0-312L0-210L211-210L211 1562L0 1562L0 1664Z"  horiz-adv-x="491" vert-adv-y="2048"  />

      
      <glyph glyph-name="uni5e" unicode="&#x5e;" d="M193 729L77 729L376 1456L466 1456L764 729L648 729L452 1213L422 1319L416 1319L386 1213L193 729Z"  horiz-adv-x="852" vert-adv-y="2048"  />

      
      <glyph glyph-name="uni5f" unicode="&#x5f;" d="M882-101L1-101L1 0L882 0L882-101Z"  horiz-adv-x="884" vert-adv-y="2048"  />

      
      <glyph glyph-name="uni60" unicode="&#x60;" d="M451 1210L334 1210L93 1471L95 1476L249 1476L451 1210Z"  horiz-adv-x="585" vert-adv-y="2048"  />

      
      <glyph glyph-name="uni61" unicode="&#x61;" d="M843 0Q831 55 826 95Q821 135 821 176Q761 91 661 35Q561-21 436-21Q278-21 190.50 63Q103 147 103 288Q103 438 232.50 528Q362 618 582 618L821 618L821 752Q821 868 746.50 934Q672 1000 538 1000Q413 1000 330.50 937Q248 874 248 783L138 784L136 790Q130 911 246.50 1006.50Q363 1102 543 1102Q722 1102 831 1011Q940 920 940 750L940 218Q940 161 946.50 107Q953 53 968 0L843 0M450 85Q579 85 678 145.50Q777 206 821 300L821 526L580 526Q417 526 319.50 456.50Q222 387 222 284Q222 196 282.50 140.50Q343 85 450 85Z"  horiz-adv-x="1101" vert-adv-y="2048"  />

      
      <glyph glyph-name="uni62" unicode="&#x62;" d="M1030 511Q1030 268 920 123.50Q810-21 617-21Q498-21 412 26.50Q326 74 273 163L260 0L157 0L157 1560L277 1560L277 912Q331 1003 415 1052.50Q499 1102 615 1102Q810 1102 920 946.50Q1030 791 1030 532L1030 511M909 532Q909 739 829 868.50Q749 998 592 998Q467 998 390.50 936Q314 874 277 777L277 288Q317 194 396.50 138.50Q476 83 594 83Q751 83 830 199Q909 315 909 511L909 532Z"  horiz-adv-x="1140" vert-adv-y="2048"  />

      
      <glyph glyph-name="uni63" unicode="&#x63;" d="M559 80Q678 80 769 148Q860 216 860 337L966 337L968 331Q973 181 848 80Q723-21 559-21Q338-21 217.50 130.50Q97 282 97 520L97 562Q97 798 218 950Q339 1102 558 1102Q736 1102 854.50 997Q973 892 969 721L967 715L860 715Q860 845 772.50 922.50Q685 1000 558 1000Q384 1000 300.50 875.50Q217 751 217 562L217 520Q217 328 300 204Q383 80 559 80Z"  horiz-adv-x="1061" vert-adv-y="2048"  />

      
      <glyph glyph-name="uni64" unicode="&#x64;" d="M111 532Q111 791 220.50 946.50Q330 1102 526 1102Q639 1102 722 1054Q805 1006 860 918L860 1560L979 1560L979 0L873 0L863 157Q809 71 724 25Q639-21 524-21Q330-21 220.50 123.50Q111 268 111 511L111 532M231 511Q231 315 309.50 199Q388 83 546 83Q662 83 739.50 135Q817 187 860 279L860 787Q819 881 744 939.50Q669 998 548 998Q390 998 310.50 868.50Q231 739 231 532L231 511Z"  horiz-adv-x="1140" vert-adv-y="2048"  />

      
      <glyph glyph-name="uni65" unicode="&#x65;" d="M564-21Q361-21 226.50 129Q92 279 92 509L92 564Q92 796 225.50 949Q359 1102 549 1102Q748 1102 862 976Q976 850 976 640L976 538L212 538L212 509Q212 326 309 203Q406 80 564 80Q676 80 755 111Q834 142 890 200L941 118Q880 54 786.50 16.50Q693-21 564-21M549 1000Q416 1000 326 898.50Q236 797 221 644L223 639L857 639L857 669Q857 810 774 905Q691 1000 549 1000Z"  horiz-adv-x="1055" vert-adv-y="2048"  />

      
      <glyph glyph-name="uni66" unicode="&#x66;" d="M245 0L245 984L66 984L66 1082L245 1082L245 1240Q245 1403 326.50 1492Q408 1581 555 1581Q588 1581 622 1576Q656 1571 691 1562L676 1463Q652 1469 626.50 1472.50Q601 1476 567 1476Q469 1476 417 1414Q365 1352 365 1240L365 1082L623 1082L623 984L365 984L365 0L245 0Z"  horiz-adv-x="673" vert-adv-y="2048"  />

      
      <glyph glyph-name="uni67" unicode="&#x67;" d="M111 532Q111 791 221.50 946.50Q332 1102 529 1102Q644 1102 728 1051.50Q812 1001 867 909L881 1082L982 1082L982 14Q982-195 866.50-316Q751-437 545-437Q467-437 379-418Q291-399 225-366L256-265Q320-297 391-313.50Q462-330 543-330Q701-330 781.50-239Q862-148 862 14L862 150Q807 68 723 23.50Q639-21 527-21Q332-21 221.50 124Q111 269 111 511L111 532M231 511Q231 316 311 199.50Q391 83 549 83Q665 83 742.50 136Q820 189 862 282L862 784Q823 878 747.50 938Q672 998 551 998Q393 998 312 868Q231 738 231 532L231 511Z"  horiz-adv-x="1141" vert-adv-y="2048"  />

      
      <glyph glyph-name="uni68" unicode="&#x68;" d="M278 897Q332 994 422 1048Q512 1102 632 1102Q803 1102 894.50 996Q986 890 986 667L986 0L866 0L866 669Q866 845 796.50 921.50Q727 998 605 998Q482 998 399.50 933.50Q317 869 278 762L278 0L158 0L158 1560L278 1560L278 897Z"  horiz-adv-x="1140" vert-adv-y="2048"  />

      
      <glyph glyph-name="uni69" unicode="&#x69;" d="M292 0L173 0L173 1082L292 1082L292 0M292 1392L173 1392L173 1560L292 1560L292 1392Z"  horiz-adv-x="465" vert-adv-y="2048"  />

      
      <glyph glyph-name="uni6a" unicode="&#x6a;" d="M299 1082L299-89Q299-256 219-346.50Q139-437-3-437Q-33-437-59.50-432Q-86-427-115-418L-102-317Q-86-322-58-327Q-30-332-9-332Q80-332 130-270.50Q180-209 180-89L180 1082L299 1082M293 1396L174 1396L174 1560L293 1560L293 1396Z"  horiz-adv-x="484" vert-adv-y="2048"  />

      
      <glyph glyph-name="uni6b" unicode="&#x6b;" d="M417 527L279 527L279 0L159 0L159 1560L279 1560L279 630L405 630L807 1082L947 1082L949 1077L516 589L994 5L991 0L854 0L417 527Z"  horiz-adv-x="1006" vert-adv-y="2048"  />

      
      <glyph glyph-name="uni6c" unicode="&#x6c;" d="M292 0L173 0L173 1560L292 1560L292 0Z"  horiz-adv-x="465" vert-adv-y="2048"  />

      
      <glyph glyph-name="uni6d" unicode="&#x6d;" d="M259 1082L270 903Q322 998 408.50 1050Q495 1102 615 1102Q739 1102 822.50 1042Q906 982 942 859Q991 973 1081.50 1037.50Q1172 1102 1302 1102Q1475 1102 1569 987Q1663 872 1663 631L1663 0L1543 0L1543 633Q1543 833 1472.50 915.50Q1402 998 1276 998Q1137 998 1061 911Q985 824 967 688Q967 681 967.50 668Q968 655 968 649L968 0L847 0L847 633Q847 829 775.50 913.50Q704 998 579 998Q452 998 377.50 933.50Q303 869 273 760L273 0L152 0L152 1082L259 1082Z"  horiz-adv-x="1815" vert-adv-y="2048"  />

      
      <glyph glyph-name="uni6e" unicode="&#x6e;" d="M264 1082L275 893Q327 993 415.50 1047.50Q504 1102 625 1102Q801 1102 893 994.50Q985 887 985 659L985 0L865 0L865 658Q865 844 795.50 921Q726 998 598 998Q472 998 392.50 931.50Q313 865 278 755L278 0L158 0L158 1082L264 1082Z"  horiz-adv-x="1140" vert-adv-y="2048"  />

      
      <glyph glyph-name="uni6f" unicode="&#x6f;" d="M91 557Q91 796 222 949Q353 1102 569 1102Q786 1102 917 949Q1048 796 1048 557L1048 524Q1048 284 917.50 131.50Q787-21 571-21Q353-21 222 131.50Q91 284 91 524L91 557M211 524Q211 336 306 208Q401 80 571 80Q738 80 833.50 208Q929 336 929 524L929 557Q929 742 833 871Q737 1000 569 1000Q401 1000 306 871Q211 742 211 557L211 524Z"  horiz-adv-x="1140" vert-adv-y="2048"  />

      
      <glyph glyph-name="uni70" unicode="&#x70;" d="M1029 511Q1029 268 919 123.50Q809-21 616-21Q502-21 416.50 22Q331 65 277 145L277-416L157-416L157 1082L258 1082L273 914Q327 1004 412.50 1053Q498 1102 614 1102Q809 1102 919 946.50Q1029 791 1029 532L1029 511M909 532Q909 738 827 868Q745 998 587 998Q466 998 390.50 940.50Q315 883 277 791L277 271Q318 182 395.50 131Q473 80 589 80Q746 80 827.50 198Q909 316 909 511L909 532Z"  horiz-adv-x="1140" vert-adv-y="2048"  />

      
      <glyph glyph-name="uni71" unicode="&#x71;" d="M111 532Q111 791 220.50 946.50Q330 1102 526 1102Q637 1102 720.50 1055.50Q804 1009 858 923L870 1082L974 1082L974-416L855-416L855 142Q800 63 717 21Q634-21 524-21Q330-21 220.50 123.50Q111 268 111 511L111 532M231 511Q231 315 309.50 197.50Q388 80 546 80Q658 80 734.50 130.50Q811 181 855 268L855 798Q814 887 738.50 943.50Q663 1000 548 1000Q390 1000 310.50 869.50Q231 739 231 532L231 511Z"  horiz-adv-x="1140" vert-adv-y="2048"  />

      
      <glyph glyph-name="uni72" unicode="&#x72;" d="M656 979L567 985Q454 985 381.50 921.50Q309 858 278 747L278 0L158 0L158 1082L263 1082L278 902L278 890Q325 990 404 1046Q483 1102 592 1102Q615 1102 636.50 1098.50Q658 1095 672 1091L656 979Z"  horiz-adv-x="697" vert-adv-y="2048"  />

      
      <glyph glyph-name="uni73" unicode="&#x73;" d="M806 275Q806 351 743.50 408Q681 465 518 501Q324 543 231.50 612Q139 681 139 807Q139 931 243.50 1016.50Q348 1102 520 1102Q703 1102 810 1011.50Q917 921 912 785L910 779L799 779Q799 868 723.50 934Q648 1000 520 1000Q389 1000 323.50 943.50Q258 887 258 811Q258 736 314.50 687Q371 638 540 601Q733 558 829 483.50Q925 409 925 281Q925 146 815.50 62.50Q706-21 526-21Q329-21 216.50 73Q104 167 110 297L112 303L222 303Q229 186 317.50 133Q406 80 526 80Q656 80 731 137Q806 194 806 275Z"  horiz-adv-x="1043" vert-adv-y="2048"  />

      
      <glyph glyph-name="uni74" unicode="&#x74;" d="M346 1359L346 1082L584 1082L584 984L346 984L346 279Q346 173 384.50 128.50Q423 84 487 84Q516 84 543.50 86.50Q571 89 607 95L625 6Q595-7 552-14Q509-21 466-21Q352-21 288.50 51Q225 123 225 279L225 984L38 984L38 1082L225 1082L225 1359L346 1359Z"  horiz-adv-x="680" vert-adv-y="2048"  />

      
      <glyph glyph-name="uni75" unicode="&#x75;" d="M867 177Q815 82 727 30.50Q639-21 519-21Q348-21 251 95Q154 211 154 455L154 1082L274 1082L274 453Q274 255 341.50 169Q409 83 533 83Q669 83 750 144Q831 205 863 312L863 1082L983 1082L983 0L877 0L867 177Z"  horiz-adv-x="1140" vert-adv-y="2048"  />

      
      <glyph glyph-name="uni76" unicode="&#x76;" d="M466 271L501 144L507 144L545 271L839 1082L963 1082L552 0L456 0L44 1082L168 1082L466 271Z"  horiz-adv-x="1002" vert-adv-y="2048"  />

      
      <glyph glyph-name="uni77" unicode="&#x77;" d="M391 351L432 158L438 158L489 351L719 1082L822 1082L1052 351L1104 153L1110 153L1155 351L1352 1082L1476 1082L1161 0L1059 0L819 740L772 927L766 927L718 740L482 0L379 0L65 1082L189 1082L391 351Z"  horiz-adv-x="1550" vert-adv-y="2048"  />

      
      <glyph glyph-name="uni78" unicode="&#x78;" d="M498 640L791 1082L933 1082L566 551L948 0L808 0L500 461L192 0L50 0L433 551L66 1082L207 1082L498 640Z"  horiz-adv-x="1002" vert-adv-y="2048"  />

      
      <glyph glyph-name="uni79" unicode="&#x79;" d="M465 293L503 164L509 164L836 1082L970 1082L500-173Q458-283 391-360Q324-437 195-437Q174-437 144-432.50Q114-428 100-423L114-323Q126-325 152.50-327.50Q179-330 191-330Q269-330 316-274.50Q363-219 396-132L453 14L35 1082L168 1082L465 293Z"  horiz-adv-x="1002" vert-adv-y="2048"  />

      
      <glyph glyph-name="uni7a" unicode="&#x7a;" d="M238 101L941 101L941 0L90 0L90 88L742 979L110 979L110 1082L893 1082L893 993L238 101Z"  horiz-adv-x="1002" vert-adv-y="2048"  />

      
      <glyph glyph-name="uni7b" unicode="&#x7b;" d="M637-404Q454-349 376.50-230.50Q299-112 299 58L299 284Q299 406 242.50 474.50Q186 543 68 543L68 647Q186 647 242.50 714Q299 781 299 904L299 1132Q299 1303 376.50 1422.50Q454 1542 637 1597L663 1518Q536 1477 477.50 1376Q419 1275 419 1132L419 904Q419 794 373.50 713Q328 632 235 595Q328 556 373.50 474.50Q419 393 419 284L419 58Q419-85 478.50-183.50Q538-282 666-324L637-404Z"  horiz-adv-x="676" vert-adv-y="2048"  />

      
      <glyph glyph-name="uni7c" unicode="&#x7c;" d="M279-270L178-270L178 1456L279 1456L279-270Z"  horiz-adv-x="452" vert-adv-y="2048"  />

      
      <glyph glyph-name="uni7d" unicode="&#x7d;" d="M9-324Q136-282 196-183.50Q256-85 256 58L256 284Q256 396 303 477Q350 558 449 594Q350 629 303 710Q256 791 256 904L256 1132Q256 1276 197.50 1376.50Q139 1477 12 1518L38 1597Q220 1542 298 1422.50Q376 1303 376 1132L376 904Q376 782 432 714.50Q488 647 607 647L607 543Q488 543 432 474.50Q376 406 376 284L376 58Q376-112 298.50-230.50Q221-349 38-404L9-324Z"  horiz-adv-x="676" vert-adv-y="2048"  />

      
      <glyph glyph-name="uni7e" unicode="&#x7e;" d="M1257 740Q1257 611 1176 517Q1095 423 974 423Q886 423 813.50 458.50Q741 494 653 573Q589 627 534.50 653.50Q480 680 424 680Q345 680 292.50 619.50Q240 559 240 459L143 474Q143 605 222 696Q301 787 424 787Q511 787 584.50 750Q658 713 747 637Q810 580 863.50 554.50Q917 529 974 529Q1051 529 1105 593Q1159 657 1159 755L1257 740Z"  horiz-adv-x="1402" vert-adv-y="2048"  />

      
      <glyph glyph-name="unia1" unicode="&#xa1;" d="M276-374L156-374L156 604L276 604L276-374M287 898L145 898L145 1082L287 1082L287 898Z"  horiz-adv-x="452" vert-adv-y="2048"  />

      
      <glyph glyph-name="unia2" unicode="&#xa2;" d="M584 80Q703 80 794 148Q885 216 885 337L992 337L994 331Q998 194 892 97Q786 0 637-18L637-245L517-245L517-17Q327 6 224.50 153.50Q122 301 122 520L122 562Q122 779 225 926.50Q328 1074 517 1098L517 1318L637 1318L637 1099Q795 1082 896.50 980Q998 878 995 721L992 715L885 715Q885 845 797.50 922.50Q710 1000 583 1000Q409 1000 325.50 875.50Q242 751 242 562L242 520Q242 328 325 204Q408 80 584 80Z"  horiz-adv-x="1115" vert-adv-y="2048"  />

      
      <glyph glyph-name="unia3" unicode="&#xa3;" d="M393 642L400 466Q400 359 374.50 262Q349 165 303 101L1072 101L1072 0L131 0L131 101L141 101Q211 116 246 231Q281 346 281 466L274 642L67 642L67 744L270 744L259 1040Q259 1244 365 1360.50Q471 1477 649 1477Q836 1477 930 1373.50Q1024 1270 1021 1096L1018 1090L906 1090Q906 1238 837.50 1306.50Q769 1375 649 1375Q524 1375 451.50 1287Q379 1199 379 1040L390 744L840 744L840 642L393 642Z"  horiz-adv-x="1170" vert-adv-y="2048"  />

      
      <glyph glyph-name="unia4" unicode="&#xa4;" d="M1131 133Q1051 59 950.50 19.50Q850-20 740-20Q629-20 528.50 19.50Q428 59 349 132L194-26L109 60L268 221Q208 302 176 400Q144 498 144 608Q144 720 178.50 822Q213 924 277 1006L109 1177L194 1264L361 1094Q439 1161 536 1197.50Q633 1234 740 1234Q846 1234 943 1196.50Q1040 1159 1119 1092L1289 1265L1375 1177L1204 1002Q1266 920 1300 819.50Q1334 719 1334 608Q1334 500 1302 402Q1270 304 1212 224L1375 60L1289-27L1131 133M257 608Q257 393 398.50 242Q540 91 740 91Q938 91 1079.50 242Q1221 393 1221 608Q1221 821 1079.50 971.50Q938 1122 740 1122Q540 1122 398.50 971.50Q257 821 257 608Z"  horiz-adv-x="1481" vert-adv-y="2048"  />

      
      <glyph glyph-name="unia5" unicode="&#xa5;" d="M607 733L1031 1456L1170 1456L715 705L1086 705L1086 603L665 603L665 428L1086 428L1086 326L665 326L665 0L546 0L546 326L130 326L130 428L546 428L546 603L130 603L130 705L500 705L45 1456L184 1456L607 733Z"  horiz-adv-x="1223" vert-adv-y="2048"  />

      
      <glyph glyph-name="unia6" unicode="&#xa6;" d="M159-270L159 501L279 501L279-270L159-270M279 698L159 698L159 1456L279 1456L279 698Z"  horiz-adv-x="444" vert-adv-y="2048"  />

      
      <glyph glyph-name="unia7" unicode="&#xa7;" d="M1119 431Q1119 333 1058 262.50Q997 192 887 159Q981 109 1028 38.50Q1075-32 1075-139Q1075-305 947.50-400Q820-495 606-495Q393-495 248-392.50Q103-290 108-70L110-64L222-62Q222-235 335-314Q448-393 606-393Q769-393 861.50-322.50Q954-252 954-141Q954-35 877 25Q800 85 585 146Q342 207 225 295.50Q108 384 108 551Q108 649 166.50 720Q225 791 331 825Q241 874 197 944.50Q153 1015 153 1120Q153 1281 281 1379Q409 1477 624 1477Q846 1477 970.50 1365.50Q1095 1254 1091 1052L1089 1046L977 1046Q977 1187 883 1281Q789 1375 624 1375Q451 1375 362 1304Q273 1233 273 1123Q273 1009 347 950Q421 891 646 828Q893 763 1006 679.50Q1119 596 1119 431M596 729Q556 738 520.50 748.50Q485 759 454 771Q342 757 285 698Q228 639 228 553Q228 437 307 378Q386 319 630 251Q664 241 695 232Q726 223 755 214Q870 227 934.50 285.50Q999 344 999 428Q999 536 914 598.50Q829 661 596 729Z"  horiz-adv-x="1239" vert-adv-y="2048"  />

      
      <glyph glyph-name="unia8" unicode="&#xa8;" d="M805 1299L632 1299L632 1456L805 1456L805 1299M336 1299L162 1299L162 1456L336 1456L336 1299Z"  horiz-adv-x="959" vert-adv-y="2048"  />

      
      <glyph glyph-name="unia9" unicode="&#xa9;" d="M1113 596L1115 590Q1119 440 1036.50 361Q954 282 807 282Q656 282 565 388.50Q474 495 474 669L474 788Q474 960 565 1067.50Q656 1175 807 1175Q954 1175 1037 1096Q1120 1017 1116 868L1114 862L1023 862Q1023 975 968 1030Q913 1085 807 1085Q697 1085 635 1001.50Q573 918 573 789L573 669Q573 537 634.50 454.50Q696 372 807 372Q914 372 968 426Q1022 480 1022 596L1113 596M192 729Q192 450 374.50 257.50Q557 65 817 65Q1074 65 1257.50 257.50Q1441 450 1441 729Q1441 1006 1258 1197.50Q1075 1389 817 1389Q557 1389 374.50 1197.50Q192 1006 192 729M107 729Q107 1044 314 1260Q521 1476 817 1476Q1112 1476 1319 1260Q1526 1044 1526 729Q1526 413 1318.50 196Q1111-21 817-21Q521-21 314 196Q107 413 107 729Z"  horiz-adv-x="1637" vert-adv-y="2048"  />

      
      <glyph glyph-name="uniaa" unicode="&#xaa;" d="M649 706Q640 731 634.50 758.50Q629 786 627 814Q590 761 528.50 726.50Q467 692 384 692Q265 692 200 753Q135 814 135 920Q135 1025 214 1083Q293 1141 443 1141L625 1141L625 1202Q625 1287 584 1333.50Q543 1380 464 1380Q372 1380 321.50 1342.50Q271 1305 271 1234L172 1243L170 1249Q165 1347 247 1412Q329 1477 464 1477Q587 1477 660.50 1405.50Q734 1334 734 1201L734 887Q734 839 740 794.50Q746 750 760 706L649 706M404 787Q474 787 539.50 825Q605 863 625 910L625 1057L444 1057Q348 1057 295.50 1018.50Q243 980 243 924Q243 858 282.50 822.50Q322 787 404 787Z"  horiz-adv-x="906" vert-adv-y="2048"  />

      
      <glyph glyph-name="uniab" unicode="&#xab;" d="M247 550L523 162L418 162L123 541L123 560L418 939L523 939L247 550M556 550L832 162L727 162L432 541L432 560L727 939L832 939L556 550Z"  horiz-adv-x="933" vert-adv-y="2048"  />

      
      <glyph glyph-name="uniac" unicode="&#xac;" d="M936 386L816 386L816 670L124 670L124 776L936 776L936 386Z"  horiz-adv-x="1117" vert-adv-y="2048"  />

      
      <glyph glyph-name="uniad" unicode="&#xad;" d="M528 570L49 570L49 671L528 671L528 570Z"  horiz-adv-x="586" vert-adv-y="2048"  />

      
      <glyph glyph-name="uniae" unicode="&#xae;" d="M102 729Q102 1044 309 1260Q516 1476 812 1476Q1107 1476 1314.50 1260Q1522 1044 1522 729Q1522 413 1314.50 196Q1107-21 812-21Q516-21 309 196Q102 413 102 729M187 729Q187 450 370 257.50Q553 65 812 65Q1070 65 1253 257.50Q1436 450 1436 729Q1436 1006 1253 1197.50Q1070 1389 812 1389Q553 1389 370 1197.50Q187 1006 187 729M650 672L650 316L552 316L552 1166L810 1166Q957 1166 1036 1103Q1115 1040 1115 918Q1115 850 1078.50 800.50Q1042 751 974 721Q1042 696 1072 643Q1102 590 1102 515L1102 459Q1102 419 1106 386Q1110 353 1119 332L1119 316L1017 316Q1007 337 1005 377.50Q1003 418 1003 460L1003 514Q1003 598 965 635Q927 672 838 672L650 672M650 763L831 763Q910 763 963.50 803.50Q1017 844 1017 916Q1017 1001 971 1038Q925 1075 810 1075L650 1075L650 763Z"  horiz-adv-x="1642" vert-adv-y="2048"  />

      
      <glyph glyph-name="uniaf" unicode="&#xaf;" d="M776 1359L106 1359L106 1456L776 1456L776 1359Z"  horiz-adv-x="874" vert-adv-y="2048"  />

      
      <glyph glyph-name="unib0" unicode="&#xb0;" d="M143 1227Q143 1329 215 1403Q287 1477 388 1477Q487 1477 558.50 1403Q630 1329 630 1227Q630 1123 559 1051.50Q488 980 388 980Q287 980 215 1052Q143 1124 143 1227M233 1227Q233 1159 277.50 1115Q322 1071 388 1071Q453 1071 496.50 1115Q540 1159 540 1227Q540 1295 496.50 1340.50Q453 1386 388 1386Q322 1386 277.50 1340Q233 1294 233 1227Z"  horiz-adv-x="774" vert-adv-y="2048"  />

      
      <glyph glyph-name="unib1" unicode="&#xb1;" d="M609 829L1001 829L1001 728L609 728L609 289L499 289L499 728L85 728L85 829L499 829L499 1267L609 1267L609 829M1028 48L193 48L193 150L1028 150L1028 48Z"  horiz-adv-x="1086" vert-adv-y="2048"  />

      
      <glyph glyph-name="unib2" unicode="&#xb2;" d="M687 667L118 667L118 757L433 1039Q510 1110 537 1154.50Q564 1199 564 1246Q564 1310 525 1349Q486 1388 407 1388Q320 1388 273 1346Q226 1304 226 1238L126 1238L124 1244Q118 1341 196.50 1410Q275 1479 407 1479Q531 1479 602 1418.50Q673 1358 673 1245Q673 1170 626 1109Q579 1048 476 951L262 763L264 757L687 757L687 667Z"  horiz-adv-x="835" vert-adv-y="2048"  />

      
      <glyph glyph-name="unib3" unicode="&#xb3;" d="M695 1253Q695 1195 659.50 1148Q624 1101 561 1076Q633 1054 671 1005.50Q709 957 709 886Q709 777 625.50 716Q542 655 409 655Q288 655 201.50 713.50Q115 772 120 882L122 888L223 888Q223 825 274 785Q325 745 409 745Q499 745 549.50 783Q600 821 600 886Q600 961 553.50 995.50Q507 1030 414 1030L292 1030L292 1119L414 1119Q502 1119 544.50 1154Q587 1189 587 1253Q587 1312 542 1349.50Q497 1387 409 1387Q334 1387 284.50 1351.50Q235 1316 235 1258L136 1258L134 1264Q128 1358 208.50 1418Q289 1478 409 1478Q541 1478 618 1419.50Q695 1361 695 1253Z"  horiz-adv-x="852" vert-adv-y="2048"  />

      
      <glyph glyph-name="unib4" unicode="&#xb4;" d="M323 1478L470 1478L473 1472L224 1212L116 1212L323 1478Z"  horiz-adv-x="576" vert-adv-y="2048"  />

      
      <glyph glyph-name="unib5" unicode="&#xb5;" d="M281 1082L281 449Q281 242 352 161Q423 80 544 80Q681 80 756 139.50Q831 199 859 310L859 1082L979 1082L979 0L876 0L865 155Q817 70 739 24.50Q661-21 552-21Q464-21 395 9Q326 39 281 105L281-416L162-416L162 1082L281 1082Z"  horiz-adv-x="1140" vert-adv-y="2048"  />

      
      <glyph glyph-name="unib6" unicode="&#xb6;" d="M680 0L680 520L574 520Q341 520 211.50 649.50Q82 779 82 988Q82 1195 211.50 1325.50Q341 1456 574 1456L800 1456L800 0L680 0Z"  horiz-adv-x="973" vert-adv-y="2048"  />

      
      <glyph glyph-name="unib7" unicode="&#xb7;" d="M321 624L166 624L166 804L321 804L321 624Z"  horiz-adv-x="503" vert-adv-y="2048"  />

      
      <glyph glyph-name="unib8" unicode="&#xb8;" d="M246 0L234-64Q313-73 361.50-112.50Q410-152 410-235Q410-326 331-380.50Q252-435 105-435L98-357Q188-357 249.50-326.50Q311-296 311-237Q311-180 269.50-157.50Q228-135 124-127L153 0L246 0Z"  horiz-adv-x="498" vert-adv-y="2048"  />

      
      <glyph glyph-name="unib9" unicode="&#xb9;" d="M344 665L235 665L235 1368L87 1361L87 1454L344 1477L344 665Z"  horiz-adv-x="511" vert-adv-y="2048"  />

      
      <glyph glyph-name="uniba" unicode="&#xba;" d="M135 1142Q135 1290 222.50 1383.50Q310 1477 458 1477Q606 1477 694 1383.50Q782 1290 782 1142L782 1026Q782 877 694.50 784.50Q607 692 460 692Q311 692 223 784.50Q135 877 135 1026L135 1142M243 1026Q243 919 297.50 853Q352 787 460 787Q563 787 618.50 853.50Q674 920 674 1026L674 1142Q674 1246 618 1313Q562 1380 458 1380Q354 1380 298.50 1313Q243 1246 243 1142L243 1026Z"  horiz-adv-x="922" vert-adv-y="2048"  />

      
      <glyph glyph-name="unibb" unicode="&#xbb;" d="M130 939L235 939L530 560L530 541L235 162L130 162L406 550L130 939M445 939L550 939L845 560L845 541L550 162L445 162L721 550L445 939Z"  horiz-adv-x="928" vert-adv-y="2048"  />

      
      <glyph glyph-name="unibc" unicode="&#xbc;" d="M417 664L308 664L308 1367L160 1360L160 1453L417 1476L417 664M400 129L326 177L1037 1315L1111 1267L400 129M1313 260L1466 260L1466 170L1313 170L1313 0L1205 0L1205 170L775 170L771 237L1200 801L1313 801L1313 260M900 260L1205 260L1205 662L1199 663L1174 620L900 260Z"  horiz-adv-x="1561" vert-adv-y="2048"  />

      
      <glyph glyph-name="unibd" unicode="&#xbd;" d="M412 129L338 177L1049 1315L1123 1267L412 129M417 664L308 664L308 1367L160 1360L160 1453L417 1476L417 664M1481 0L912 0L912 90L1227 372Q1304 443 1331 487.50Q1358 532 1358 579Q1358 643 1319 682Q1280 721 1201 721Q1114 721 1067 679Q1020 637 1020 571L920 571L918 577Q912 674 990.50 743Q1069 812 1201 812Q1325 812 1396 751.50Q1467 691 1467 578Q1467 503 1420 442Q1373 381 1270 284L1056 96L1058 90L1481 90L1481 0Z"  horiz-adv-x="1567" vert-adv-y="2048"  />

      
      <glyph glyph-name="unibe" unicode="&#xbe;" d="M607 129L533 177L1244 1315L1318 1267L607 129M1522 260L1675 260L1675 170L1522 170L1522 0L1414 0L1414 170L984 170L980 237L1409 801L1522 801L1522 260M1109 260L1414 260L1414 662L1408 663L1383 620L1109 260M720 1254Q720 1196 684.50 1149Q649 1102 586 1077Q658 1055 696 1006.50Q734 958 734 887Q734 778 650.50 717Q567 656 434 656Q313 656 226.50 714.50Q140 773 145 883L147 889L248 889Q248 826 299 786Q350 746 434 746Q524 746 574.50 784Q625 822 625 887Q625 962 578.50 996.50Q532 1031 439 1031L317 1031L317 1120L439 1120Q527 1120 569.50 1155Q612 1190 612 1254Q612 1313 567 1350.50Q522 1388 434 1388Q359 1388 309.50 1352.50Q260 1317 260 1259L161 1259L159 1265Q153 1359 233.50 1419Q314 1479 434 1479Q566 1479 643 1420.50Q720 1362 720 1254Z"  horiz-adv-x="1712" vert-adv-y="2048"  />

      
      <glyph glyph-name="unibf" unicode="&#xbf;" d="M572 678Q570 547 548.50 495Q527 443 435 359Q326 246 277 170.50Q228 95 228-19Q228-147 295.50-217Q363-287 490-287Q607-287 679-218.50Q751-150 753-33L865-33L867-39Q869-204 762-299Q655-394 490-394Q310-394 209-293Q108-192 108-20Q108 113 174 217.50Q240 322 363 437Q424 489 438 535.50Q452 582 452 678L572 678M436 1083L575 1083L575 928L436 928L436 1083Z"  horiz-adv-x="958" vert-adv-y="2048"  />

      
      <glyph glyph-name="unic0" unicode="&#xc0;" d="M973 406L306 406L156 0L32 0L585 1456L698 1456L1247 0L1123 0L973 406M346 513L934 513L644 1301L638 1301L346 513M728 1561L611 1561L370 1822L372 1827L526 1827L728 1561Z"  horiz-adv-x="1279" vert-adv-y="2048"  />

      
      <glyph glyph-name="unic1" unicode="&#xc1;" d="M973 406L306 406L156 0L32 0L585 1456L698 1456L1247 0L1123 0L973 406M346 513L934 513L644 1301L638 1301L346 513M790 1823L937 1823L940 1817L691 1557L583 1557L790 1823Z"  horiz-adv-x="1279" vert-adv-y="2048"  />

      
      <glyph glyph-name="unic2" unicode="&#xc2;" d="M973 406L306 406L156 0L32 0L585 1456L698 1456L1247 0L1123 0L973 406M346 513L934 513L644 1301L638 1301L346 513M937 1619L937 1601L825 1601L658 1769L492 1601L382 1601L382 1622L609 1843L707 1843L937 1619Z"  horiz-adv-x="1279" vert-adv-y="2048"  />

      
      <glyph glyph-name="unic3" unicode="&#xc3;" d="M973 406L306 406L156 0L32 0L585 1456L698 1456L1247 0L1123 0L973 406M346 513L934 513L644 1301L638 1301L346 513M978 1822Q978 1734 923 1676Q868 1618 786 1618Q712 1618 635 1673Q558 1728 504 1728Q457 1728 425 1693Q393 1658 393 1604L313 1622Q313 1708 367 1766.50Q421 1825 504 1825Q569 1825 651 1770Q733 1715 786 1715Q832 1715 865 1751Q898 1787 898 1842L978 1822Z"  horiz-adv-x="1279" vert-adv-y="2048"  />

      
      <glyph glyph-name="unic4" unicode="&#xc4;" d="M973 406L306 406L156 0L32 0L585 1456L698 1456L1247 0L1123 0L973 406M346 513L934 513L644 1301L638 1301L346 513M984 1641L811 1641L811 1798L984 1798L984 1641M515 1641L341 1641L341 1798L515 1798L515 1641Z"  horiz-adv-x="1279" vert-adv-y="2048"  />

      
      <glyph glyph-name="unic5" unicode="&#xc5;" d="M973 406L306 406L156 0L32 0L585 1456L698 1456L1247 0L1123 0L973 406M346 513L934 513L644 1301L638 1301L346 513M487 1730Q487 1799 536.50 1847.50Q586 1896 656 1896Q724 1896 773 1847.50Q822 1799 822 1730Q822 1659 773.50 1613Q725 1567 656 1567Q585 1567 536 1613Q487 1659 487 1730M565 1730Q565 1691 591.50 1665Q618 1639 656 1639Q693 1639 718.50 1664.50Q744 1690 744 1730Q744 1770 718.50 1796.50Q693 1823 656 1823Q618 1823 591.50 1796Q565 1769 565 1730Z"  horiz-adv-x="1279" vert-adv-y="2048"  />

      
      <glyph glyph-name="unic6" unicode="&#xc6;" d="M1823 0L1006 0L989 389L392 389L163 0L17 0L898 1456L1762 1456L1762 1354L1068 1354L1091 809L1680 809L1680 707L1095 707L1121 101L1823 101L1823 0M459 502L985 502L950 1341L944 1342L929 1298L459 502Z"  horiz-adv-x="1865" vert-adv-y="2048"  />

      
      <glyph glyph-name="unic7" unicode="&#xc7;" d="M1194 455L1196 449Q1177 230 1040 104.50Q903-21 673-21Q430-21 281 154.50Q132 330 132 609L132 846Q132 1124 281 1300.50Q430 1477 673 1477Q905 1477 1041 1354Q1177 1231 1196 1008L1194 1002L1082 1002Q1058 1183 957.50 1279Q857 1375 673 1375Q482 1375 366.50 1227Q251 1079 251 848L251 609Q251 375 366.50 227.50Q482 80 673 80Q857 80 958 174Q1059 268 1082 455L1194 455M728-8L716-72Q795-81 843.50-120.50Q892-160 892-243Q892-334 813-388.50Q734-443 587-443L580-365Q670-365 731.50-334.50Q793-304 793-245Q793-188 751.50-165.50Q710-143 606-135L635-8L728-8Z"  horiz-adv-x="1313" vert-adv-y="2048"  />

      
      <glyph glyph-name="unic8" unicode="&#xc8;" d="M1011 705L310 705L310 101L1113 101L1113 0L191 0L191 1456L1108 1456L1108 1354L310 1354L310 807L1011 807L1011 705M693 1561L576 1561L335 1822L337 1827L491 1827L693 1561Z"  horiz-adv-x="1180" vert-adv-y="2048"  />

      
      <glyph glyph-name="unic9" unicode="&#xc9;" d="M1011 705L310 705L310 101L1113 101L1113 0L191 0L191 1456L1108 1456L1108 1354L310 1354L310 807L1011 807L1011 705M755 1823L902 1823L905 1817L656 1557L548 1557L755 1823Z"  horiz-adv-x="1180" vert-adv-y="2048"  />

      
      <glyph glyph-name="unica" unicode="&#xca;" d="M1011 705L310 705L310 101L1113 101L1113 0L191 0L191 1456L1108 1456L1108 1354L310 1354L310 807L1011 807L1011 705M902 1619L902 1601L790 1601L623 1769L457 1601L347 1601L347 1622L574 1843L672 1843L902 1619Z"  horiz-adv-x="1180" vert-adv-y="2048"  />

      
      <glyph glyph-name="unicb" unicode="&#xcb;" d="M1011 705L310 705L310 101L1113 101L1113 0L191 0L191 1456L1108 1456L1108 1354L310 1354L310 807L1011 807L1011 705M949 1641L776 1641L776 1798L949 1798L949 1641M480 1641L306 1641L306 1798L480 1798L480 1641Z"  horiz-adv-x="1180" vert-adv-y="2048"  />

      
      <glyph glyph-name="unicc" unicode="&#xcc;" d="M337 0L217 0L217 1456L337 1456L337 0M349 1561L232 1561L-9 1822L-7 1827L147 1827L349 1561Z"  horiz-adv-x="554" vert-adv-y="2048"  />

      
      <glyph glyph-name="unicd" unicode="&#xcd;" d="M337 0L217 0L217 1456L337 1456L337 0M409 1823L556 1823L559 1817L310 1557L202 1557L409 1823Z"  horiz-adv-x="554" vert-adv-y="2048"  />

      
      <glyph glyph-name="unice" unicode="&#xce;" d="M337 0L217 0L217 1456L337 1456L337 0M558 1619L558 1601L446 1601L279 1769L113 1601L3 1601L3 1622L230 1843L328 1843L558 1619Z"  horiz-adv-x="554" vert-adv-y="2048"  />

      
      <glyph glyph-name="unicf" unicode="&#xcf;" d="M337 0L217 0L217 1456L337 1456L337 0M605 1641L432 1641L432 1798L605 1798L605 1641M136 1641L-38 1641L-38 1798L136 1798L136 1641Z"  horiz-adv-x="554" vert-adv-y="2048"  />

      
      <glyph glyph-name="unid0" unicode="&#xd0;" d="M221 0L221 689L68 689L68 791L221 791L221 1456L644 1456Q911 1456 1085 1278Q1259 1100 1259 821L1259 634Q1259 354 1085 177Q911 0 644 0L221 0M680 689L340 689L340 101L644 101Q860 101 999.50 252Q1139 403 1139 634L1139 824Q1139 1052 999 1203Q859 1354 644 1354L340 1354L340 791L680 791L680 689Z"  horiz-adv-x="1374" vert-adv-y="2048"  />

      
      <glyph glyph-name="unid1" unicode="&#xd1;" d="M1263 0L1144 0L317 1252L311 1251L311 0L191 0L191 1456L311 1456L1138 206L1144 207L1144 1456L1263 1456L1263 0M1047 1822Q1047 1734 992 1676Q937 1618 855 1618Q781 1618 704 1673Q627 1728 573 1728Q526 1728 494 1693Q462 1658 462 1604L382 1622Q382 1708 436 1766.50Q490 1825 573 1825Q638 1825 720 1770Q802 1715 855 1715Q901 1715 934 1751Q967 1787 967 1842L1047 1822Z"  horiz-adv-x="1454" vert-adv-y="2048"  />

      
      <glyph glyph-name="unid2" unicode="&#xd2;" d="M1254 609Q1254 327 1099.50 153Q945-21 685-21Q429-21 276.50 153Q124 327 124 609L124 846Q124 1127 276 1302Q428 1477 684 1477Q944 1477 1099 1302Q1254 1127 1254 846L1254 609M1135 848Q1135 1084 1015.50 1228Q896 1372 684 1372Q476 1372 360 1228Q244 1084 244 848L244 609Q244 371 360.50 227Q477 83 685 83Q898 83 1016.50 226.50Q1135 370 1135 609L1135 848M756 1582L639 1582L398 1843L400 1848L554 1848L756 1582Z"  horiz-adv-x="1378" vert-adv-y="2048"  />

      
      <glyph glyph-name="unid3" unicode="&#xd3;" d="M1254 609Q1254 327 1099.50 153Q945-21 685-21Q429-21 276.50 153Q124 327 124 609L124 846Q124 1127 276 1302Q428 1477 684 1477Q944 1477 1099 1302Q1254 1127 1254 846L1254 609M1135 848Q1135 1084 1015.50 1228Q896 1372 684 1372Q476 1372 360 1228Q244 1084 244 848L244 609Q244 371 360.50 227Q477 83 685 83Q898 83 1016.50 226.50Q1135 370 1135 609L1135 848M818 1844L965 1844L968 1838L719 1578L611 1578L818 1844Z"  horiz-adv-x="1378" vert-adv-y="2048"  />

      
      <glyph glyph-name="unid4" unicode="&#xd4;" d="M1254 609Q1254 327 1099.50 153Q945-21 685-21Q429-21 276.50 153Q124 327 124 609L124 846Q124 1127 276 1302Q428 1477 684 1477Q944 1477 1099 1302Q1254 1127 1254 846L1254 609M1135 848Q1135 1084 1015.50 1228Q896 1372 684 1372Q476 1372 360 1228Q244 1084 244 848L244 609Q244 371 360.50 227Q477 83 685 83Q898 83 1016.50 226.50Q1135 370 1135 609L1135 848M965 1640L965 1622L853 1622L686 1790L520 1622L410 1622L410 1643L637 1864L735 1864L965 1640Z"  horiz-adv-x="1378" vert-adv-y="2048"  />

      
      <glyph glyph-name="unid5" unicode="&#xd5;" d="M1254 609Q1254 327 1099.50 153Q945-21 685-21Q429-21 276.50 153Q124 327 124 609L124 846Q124 1127 276 1302Q428 1477 684 1477Q944 1477 1099 1302Q1254 1127 1254 846L1254 609M1135 848Q1135 1084 1015.50 1228Q896 1372 684 1372Q476 1372 360 1228Q244 1084 244 848L244 609Q244 371 360.50 227Q477 83 685 83Q898 83 1016.50 226.50Q1135 370 1135 609L1135 848M1006 1843Q1006 1755 951 1697Q896 1639 814 1639Q740 1639 663 1694Q586 1749 532 1749Q485 1749 453 1714Q421 1679 421 1625L341 1643Q341 1729 395 1787.50Q449 1846 532 1846Q597 1846 679 1791Q761 1736 814 1736Q860 1736 893 1772Q926 1808 926 1863L1006 1843Z"  horiz-adv-x="1378" vert-adv-y="2048"  />

      
      <glyph glyph-name="unid6" unicode="&#xd6;" d="M1254 609Q1254 327 1099.50 153Q945-21 685-21Q429-21 276.50 153Q124 327 124 609L124 846Q124 1127 276 1302Q428 1477 684 1477Q944 1477 1099 1302Q1254 1127 1254 846L1254 609M1135 848Q1135 1084 1015.50 1228Q896 1372 684 1372Q476 1372 360 1228Q244 1084 244 848L244 609Q244 371 360.50 227Q477 83 685 83Q898 83 1016.50 226.50Q1135 370 1135 609L1135 848M1012 1662L839 1662L839 1819L1012 1819L1012 1662M543 1662L369 1662L369 1819L543 1819L543 1662Z"  horiz-adv-x="1378" vert-adv-y="2048"  />

      
      <glyph glyph-name="unid7" unicode="&#xd7;" d="M93 318L451 683L108 1033L187 1113L529 763L872 1113L951 1033L608 683L966 318L887 239L529 603L172 239L93 318Z"  horiz-adv-x="1072" vert-adv-y="2048"  />

      
      <glyph glyph-name="unid8" unicode="&#xd8;" d="M1254 609Q1254 327 1099.50 153Q945-21 685-21Q593-21 513.50 2.50Q434 26 369 71L273-84L169-84L300 128Q214 212 169 335.50Q124 459 124 609L124 846Q124 1127 276 1302Q428 1477 684 1477Q793 1477 885.50 1444Q978 1411 1051 1349L1147 1505L1251 1505L1115 1283Q1182 1199 1218 1087.50Q1254 976 1254 846L1254 609M244 609Q244 491 273.50 394.50Q303 298 359 234L365 233L992 1254Q934 1311 856.50 1341.50Q779 1372 684 1372Q476 1372 360 1228Q244 1084 244 848L244 609M1135 848Q1135 945 1113.50 1028.50Q1092 1112 1053 1173L1047 1173L426 164Q477 124 542.50 103.50Q608 83 685 83Q898 83 1016.50 226.50Q1135 370 1135 609L1135 848Z"  horiz-adv-x="1379" vert-adv-y="2048"  />

      
      <glyph glyph-name="unid9" unicode="&#xd9;" d="M1209 1456L1209 469Q1209 231 1063.50 105Q918-21 684-21Q453-21 310 105.50Q167 232 167 469L167 1456L287 1456L287 469Q287 283 397 181.50Q507 80 684 80Q864 80 977 181Q1090 282 1090 469L1090 1456L1209 1456M767 1561L650 1561L409 1822L411 1827L565 1827L767 1561Z"  horiz-adv-x="1374" vert-adv-y="2048"  />

      
      <glyph glyph-name="unida" unicode="&#xda;" d="M1209 1456L1209 469Q1209 231 1063.50 105Q918-21 684-21Q453-21 310 105.50Q167 232 167 469L167 1456L287 1456L287 469Q287 283 397 181.50Q507 80 684 80Q864 80 977 181Q1090 282 1090 469L1090 1456L1209 1456M829 1823L976 1823L979 1817L730 1557L622 1557L829 1823Z"  horiz-adv-x="1374" vert-adv-y="2048"  />

      
      <glyph glyph-name="unidb" unicode="&#xdb;" d="M1209 1456L1209 469Q1209 231 1063.50 105Q918-21 684-21Q453-21 310 105.50Q167 232 167 469L167 1456L287 1456L287 469Q287 283 397 181.50Q507 80 684 80Q864 80 977 181Q1090 282 1090 469L1090 1456L1209 1456M976 1619L976 1601L864 1601L697 1769L531 1601L421 1601L421 1622L648 1843L746 1843L976 1619Z"  horiz-adv-x="1374" vert-adv-y="2048"  />

      
      <glyph glyph-name="unidc" unicode="&#xdc;" d="M1209 1456L1209 469Q1209 231 1063.50 105Q918-21 684-21Q453-21 310 105.50Q167 232 167 469L167 1456L287 1456L287 469Q287 283 397 181.50Q507 80 684 80Q864 80 977 181Q1090 282 1090 469L1090 1456L1209 1456M1023 1641L850 1641L850 1798L1023 1798L1023 1641M554 1641L380 1641L380 1798L554 1798L554 1641Z"  horiz-adv-x="1374" vert-adv-y="2048"  />

      
      <glyph glyph-name="unidd" unicode="&#xdd;" d="M620 647L1071 1456L1210 1456L679 532L679 0L560 0L560 539L33 1456L172 1456L620 647M752 1816L899 1816L902 1810L653 1550L545 1550L752 1816Z"  horiz-adv-x="1244" vert-adv-y="2048"  />

      
      <glyph glyph-name="unide" unicode="&#xde;" d="M303 1456L303 1152L627 1152Q848 1152 972 1036.50Q1096 921 1096 738Q1096 553 972 438.50Q848 324 627 324L303 324L303 0L183 0L183 1456L303 1456M303 1051L303 425L627 425Q800 425 888 517Q976 609 976 736Q976 866 888 958.50Q800 1051 627 1051L303 1051Z"  horiz-adv-x="1214" vert-adv-y="2048"  />

      
      <glyph glyph-name="unidf" unicode="&#xdf;" d="M271 0L151 0L151 1082Q151 1286 253.50 1399Q356 1512 527 1512Q667 1512 759 1432.50Q851 1353 851 1210Q851 1101 789.50 994.50Q728 888 728 810Q728 724 912 582Q1096 440 1096 295Q1096 142 986 60.50Q876-21 720-21Q634-21 543.50 2.50Q453 26 414 59L448 160Q489 129 562.50 104.50Q636 80 706 80Q831 80 903.50 140Q976 200 976 295Q976 394 792 535.50Q608 677 608 812Q608 905 671 1013.50Q734 1122 734 1204Q734 1296 674 1353.50Q614 1411 537 1411Q416 1411 343.50 1325.50Q271 1240 271 1082L271 0Z"  horiz-adv-x="1200" vert-adv-y="2048"  />

      
      <glyph glyph-name="unie0" unicode="&#xe0;" d="M843 0Q831 55 826 95Q821 135 821 176Q761 91 661 35Q561-21 436-21Q278-21 190.50 63Q103 147 103 288Q103 438 232.50 528Q362 618 582 618L821 618L821 752Q821 868 746.50 934Q672 1000 538 1000Q413 1000 330.50 937Q248 874 248 783L138 784L136 790Q130 911 246.50 1006.50Q363 1102 543 1102Q722 1102 831 1011Q940 920 940 750L940 218Q940 161 946.50 107Q953 53 968 0L843 0M450 85Q579 85 678 145.50Q777 206 821 300L821 526L580 526Q417 526 319.50 456.50Q222 387 222 284Q222 196 282.50 140.50Q343 85 450 85M613 1240L496 1240L255 1501L257 1506L411 1506L613 1240Z"  horiz-adv-x="1101" vert-adv-y="2048"  />

      
      <glyph glyph-name="unie1" unicode="&#xe1;" d="M843 0Q831 55 826 95Q821 135 821 176Q761 91 661 35Q561-21 436-21Q278-21 190.50 63Q103 147 103 288Q103 438 232.50 528Q362 618 582 618L821 618L821 752Q821 868 746.50 934Q672 1000 538 1000Q413 1000 330.50 937Q248 874 248 783L138 784L136 790Q130 911 246.50 1006.50Q363 1102 543 1102Q722 1102 831 1011Q940 920 940 750L940 218Q940 161 946.50 107Q953 53 968 0L843 0M450 85Q579 85 678 145.50Q777 206 821 300L821 526L580 526Q417 526 319.50 456.50Q222 387 222 284Q222 196 282.50 140.50Q343 85 450 85M675 1502L822 1502L825 1496L576 1236L468 1236L675 1502Z"  horiz-adv-x="1101" vert-adv-y="2048"  />

      
      <glyph glyph-name="unie2" unicode="&#xe2;" d="M843 0Q831 55 826 95Q821 135 821 176Q761 91 661 35Q561-21 436-21Q278-21 190.50 63Q103 147 103 288Q103 438 232.50 528Q362 618 582 618L821 618L821 752Q821 868 746.50 934Q672 1000 538 1000Q413 1000 330.50 937Q248 874 248 783L138 784L136 790Q130 911 246.50 1006.50Q363 1102 543 1102Q722 1102 831 1011Q940 920 940 750L940 218Q940 161 946.50 107Q953 53 968 0L843 0M450 85Q579 85 678 145.50Q777 206 821 300L821 526L580 526Q417 526 319.50 456.50Q222 387 222 284Q222 196 282.50 140.50Q343 85 450 85M822 1298L822 1280L710 1280L543 1448L377 1280L267 1280L267 1301L494 1522L592 1522L822 1298Z"  horiz-adv-x="1101" vert-adv-y="2048"  />

      
      <glyph glyph-name="unie3" unicode="&#xe3;" d="M843 0Q831 55 826 95Q821 135 821 176Q761 91 661 35Q561-21 436-21Q278-21 190.50 63Q103 147 103 288Q103 438 232.50 528Q362 618 582 618L821 618L821 752Q821 868 746.50 934Q672 1000 538 1000Q413 1000 330.50 937Q248 874 248 783L138 784L136 790Q130 911 246.50 1006.50Q363 1102 543 1102Q722 1102 831 1011Q940 920 940 750L940 218Q940 161 946.50 107Q953 53 968 0L843 0M450 85Q579 85 678 145.50Q777 206 821 300L821 526L580 526Q417 526 319.50 456.50Q222 387 222 284Q222 196 282.50 140.50Q343 85 450 85M863 1501Q863 1413 808 1355Q753 1297 671 1297Q597 1297 520 1352Q443 1407 389 1407Q342 1407 310 1372Q278 1337 278 1283L198 1301Q198 1387 252 1445.50Q306 1504 389 1504Q454 1504 536 1449Q618 1394 671 1394Q717 1394 750 1430Q783 1466 783 1521L863 1501Z"  horiz-adv-x="1101" vert-adv-y="2048"  />

      
      <glyph glyph-name="unie4" unicode="&#xe4;" d="M843 0Q831 55 826 95Q821 135 821 176Q761 91 661 35Q561-21 436-21Q278-21 190.50 63Q103 147 103 288Q103 438 232.50 528Q362 618 582 618L821 618L821 752Q821 868 746.50 934Q672 1000 538 1000Q413 1000 330.50 937Q248 874 248 783L138 784L136 790Q130 911 246.50 1006.50Q363 1102 543 1102Q722 1102 831 1011Q940 920 940 750L940 218Q940 161 946.50 107Q953 53 968 0L843 0M450 85Q579 85 678 145.50Q777 206 821 300L821 526L580 526Q417 526 319.50 456.50Q222 387 222 284Q222 196 282.50 140.50Q343 85 450 85M869 1320L696 1320L696 1477L869 1477L869 1320M400 1320L226 1320L226 1477L400 1477L400 1320Z"  horiz-adv-x="1101" vert-adv-y="2048"  />

      
      <glyph glyph-name="unie5" unicode="&#xe5;" d="M843 0Q831 55 826 95Q821 135 821 176Q761 91 661 35Q561-21 436-21Q278-21 190.50 63Q103 147 103 288Q103 438 232.50 528Q362 618 582 618L821 618L821 752Q821 868 746.50 934Q672 1000 538 1000Q413 1000 330.50 937Q248 874 248 783L138 784L136 790Q130 911 246.50 1006.50Q363 1102 543 1102Q722 1102 831 1011Q940 920 940 750L940 218Q940 161 946.50 107Q953 53 968 0L843 0M450 85Q579 85 678 145.50Q777 206 821 300L821 526L580 526Q417 526 319.50 456.50Q222 387 222 284Q222 196 282.50 140.50Q343 85 450 85M372 1409Q372 1478 421.50 1526.50Q471 1575 541 1575Q609 1575 658 1526.50Q707 1478 707 1409Q707 1338 658.50 1292Q610 1246 541 1246Q470 1246 421 1292Q372 1338 372 1409M450 1409Q450 1370 476.50 1344Q503 1318 541 1318Q578 1318 603.50 1343.50Q629 1369 629 1409Q629 1449 603.50 1475.50Q578 1502 541 1502Q503 1502 476.50 1475Q450 1448 450 1409Z"  horiz-adv-x="1101" vert-adv-y="2048"  />

      
      <glyph glyph-name="unie6" unicode="&#xe6;" d="M1265-21Q1127-21 1024 34.50Q921 90 861 192Q812 105 701.50 42Q591-21 432-21Q262-21 169.50 63.50Q77 148 77 293Q77 451 190 541.50Q303 632 516 632L778 632L778 720Q778 854 715 927Q652 1000 528 1000Q393 1000 314.50 933Q236 866 236 765L126 777L124 783Q119 921 230.50 1011.50Q342 1102 528 1102Q652 1102 740.50 1048Q829 994 869 891Q930 990 1025.50 1046Q1121 1102 1235 1102Q1435 1102 1546.50 978Q1658 854 1658 638L1658 538L904 538L904 509Q904 318 993.50 199Q1083 80 1265 80Q1368 80 1446.50 112.50Q1525 145 1589 199L1636 112Q1576 57 1487.50 18Q1399-21 1265-21M449 79Q551 79 646.50 132.50Q742 186 778 248L778 536L518 536Q363 536 280 465Q197 394 197 289Q197 192 262 135.50Q327 79 449 79M1235 1000Q1097 1000 1011 898.50Q925 797 912 641L914 636L1539 636L1539 667Q1539 813 1461.50 906.50Q1384 1000 1235 1000Z"  horiz-adv-x="1732" vert-adv-y="2048"  />

      
      <glyph glyph-name="unie7" unicode="&#xe7;" d="M559 80Q678 80 769 148Q860 216 860 337L966 337L968 331Q973 181 848 80Q723-21 559-21Q338-21 217.50 130.50Q97 282 97 520L97 562Q97 798 218 950Q339 1102 558 1102Q736 1102 854.50 997Q973 892 969 721L967 715L860 715Q860 845 772.50 922.50Q685 1000 558 1000Q384 1000 300.50 875.50Q217 751 217 562L217 520Q217 328 300 204Q383 80 559 80M592-8L580-72Q659-81 707.50-120.50Q756-160 756-243Q756-334 677-388.50Q598-443 451-443L444-365Q534-365 595.50-334.50Q657-304 657-245Q657-188 615.50-165.50Q574-143 470-135L499-8L592-8Z"  horiz-adv-x="1061" vert-adv-y="2048"  />

      
      <glyph glyph-name="unie8" unicode="&#xe8;" d="M564-21Q361-21 226.50 129Q92 279 92 509L92 564Q92 796 225.50 949Q359 1102 549 1102Q748 1102 862 976Q976 850 976 640L976 538L212 538L212 509Q212 326 309 203Q406 80 564 80Q676 80 755 111Q834 142 890 200L941 118Q880 54 786.50 16.50Q693-21 564-21M549 1000Q416 1000 326 898.50Q236 797 221 644L223 639L857 639L857 669Q857 810 774 905Q691 1000 549 1000M632 1240L515 1240L274 1501L276 1506L430 1506L632 1240Z"  horiz-adv-x="1055" vert-adv-y="2048"  />

      
      <glyph glyph-name="unie9" unicode="&#xe9;" d="M564-21Q361-21 226.50 129Q92 279 92 509L92 564Q92 796 225.50 949Q359 1102 549 1102Q748 1102 862 976Q976 850 976 640L976 538L212 538L212 509Q212 326 309 203Q406 80 564 80Q676 80 755 111Q834 142 890 200L941 118Q880 54 786.50 16.50Q693-21 564-21M549 1000Q416 1000 326 898.50Q236 797 221 644L223 639L857 639L857 669Q857 810 774 905Q691 1000 549 1000M694 1502L841 1502L844 1496L595 1236L487 1236L694 1502Z"  horiz-adv-x="1055" vert-adv-y="2048"  />

      
      <glyph glyph-name="uniea" unicode="&#xea;" d="M564-21Q361-21 226.50 129Q92 279 92 509L92 564Q92 796 225.50 949Q359 1102 549 1102Q748 1102 862 976Q976 850 976 640L976 538L212 538L212 509Q212 326 309 203Q406 80 564 80Q676 80 755 111Q834 142 890 200L941 118Q880 54 786.50 16.50Q693-21 564-21M549 1000Q416 1000 326 898.50Q236 797 221 644L223 639L857 639L857 669Q857 810 774 905Q691 1000 549 1000M841 1298L841 1280L729 1280L562 1448L396 1280L286 1280L286 1301L513 1522L611 1522L841 1298Z"  horiz-adv-x="1055" vert-adv-y="2048"  />

      
      <glyph glyph-name="unieb" unicode="&#xeb;" d="M564-21Q361-21 226.50 129Q92 279 92 509L92 564Q92 796 225.50 949Q359 1102 549 1102Q748 1102 862 976Q976 850 976 640L976 538L212 538L212 509Q212 326 309 203Q406 80 564 80Q676 80 755 111Q834 142 890 200L941 118Q880 54 786.50 16.50Q693-21 564-21M549 1000Q416 1000 326 898.50Q236 797 221 644L223 639L857 639L857 669Q857 810 774 905Q691 1000 549 1000M888 1320L715 1320L715 1477L888 1477L888 1320M419 1320L245 1320L245 1477L419 1477L419 1320Z"  horiz-adv-x="1055" vert-adv-y="2048"  />

      
      <glyph glyph-name="uniec" unicode="&#xec;" d="M288 0L168 0L168 1082L288 1082L288 0M300 1218L183 1218L-58 1479L-56 1484L98 1484L300 1218Z"  horiz-adv-x="456" vert-adv-y="2048"  />

      
      <glyph glyph-name="unied" unicode="&#xed;" d="M288 0L168 0L168 1082L288 1082L288 0M360 1480L507 1480L510 1474L261 1214L153 1214L360 1480Z"  horiz-adv-x="456" vert-adv-y="2048"  />

      
      <glyph glyph-name="uniee" unicode="&#xee;" d="M288 0L168 0L168 1082L288 1082L288 0M509 1276L509 1258L397 1258L230 1426L64 1258L-46 1258L-46 1279L181 1500L279 1500L509 1276Z"  horiz-adv-x="456" vert-adv-y="2048"  />

      
      <glyph glyph-name="unief" unicode="&#xef;" d="M288 0L168 0L168 1082L288 1082L288 0M556 1299L383 1299L383 1456L556 1456L556 1299M87 1299L-87 1299L-87 1456L87 1456L87 1299Z"  horiz-adv-x="456" vert-adv-y="2048"  />

      
      <glyph glyph-name="unif0" unicode="&#xf0;" d="M828 1299Q939 1179 997 1010.50Q1055 842 1055 623L1055 535Q1055 290 918 134.50Q781-21 574-21Q366-21 232.50 116Q99 253 99 455Q99 690 229 827.50Q359 965 577 965Q681 965 770 925Q859 885 913 818L917 823Q899 954 849 1057Q799 1160 723 1239L415 1063L365 1137L652 1301Q607 1334 557.50 1362Q508 1390 454 1413L493 1517Q570 1487 637 1449Q704 1411 761 1364L1018 1511L1069 1437L828 1299M935 625Q935 634 934.50 652.50Q934 671 934 681Q896 757 806 809Q716 861 577 861Q404 861 311.50 746Q219 631 219 455Q219 306 316 194Q413 82 578 82Q736 82 835.50 209.50Q935 337 935 535L935 625Z"  horiz-adv-x="1191" vert-adv-y="2048"  />

      
      <glyph glyph-name="unif1" unicode="&#xf1;" d="M264 1082L275 893Q327 993 415.50 1047.50Q504 1102 625 1102Q801 1102 893 994.50Q985 887 985 659L985 0L865 0L865 658Q865 844 795.50 921Q726 998 598 998Q472 998 392.50 931.50Q313 865 278 755L278 0L158 0L158 1082L264 1082M898 1500Q898 1412 843 1354Q788 1296 706 1296Q632 1296 555 1351Q478 1406 424 1406Q377 1406 345 1371Q313 1336 313 1282L233 1300Q233 1386 287 1444.50Q341 1503 424 1503Q489 1503 571 1448Q653 1393 706 1393Q752 1393 785 1429Q818 1465 818 1520L898 1500Z"  horiz-adv-x="1140" vert-adv-y="2048"  />

      
      <glyph glyph-name="unif2" unicode="&#xf2;" d="M91 557Q91 796 222 949Q353 1102 569 1102Q786 1102 917 949Q1048 796 1048 557L1048 524Q1048 284 917.50 131.50Q787-21 571-21Q353-21 222 131.50Q91 284 91 524L91 557M211 524Q211 336 306 208Q401 80 571 80Q738 80 833.50 208Q929 336 929 524L929 557Q929 742 833 871Q737 1000 569 1000Q401 1000 306 871Q211 742 211 557L211 524M652 1239L535 1239L294 1500L296 1505L450 1505L652 1239Z"  horiz-adv-x="1140" vert-adv-y="2048"  />

      
      <glyph glyph-name="unif3" unicode="&#xf3;" d="M91 557Q91 796 222 949Q353 1102 569 1102Q786 1102 917 949Q1048 796 1048 557L1048 524Q1048 284 917.50 131.50Q787-21 571-21Q353-21 222 131.50Q91 284 91 524L91 557M211 524Q211 336 306 208Q401 80 571 80Q738 80 833.50 208Q929 336 929 524L929 557Q929 742 833 871Q737 1000 569 1000Q401 1000 306 871Q211 742 211 557L211 524M714 1501L861 1501L864 1495L615 1235L507 1235L714 1501Z"  horiz-adv-x="1140" vert-adv-y="2048"  />

      
      <glyph glyph-name="unif4" unicode="&#xf4;" d="M91 557Q91 796 222 949Q353 1102 569 1102Q786 1102 917 949Q1048 796 1048 557L1048 524Q1048 284 917.50 131.50Q787-21 571-21Q353-21 222 131.50Q91 284 91 524L91 557M211 524Q211 336 306 208Q401 80 571 80Q738 80 833.50 208Q929 336 929 524L929 557Q929 742 833 871Q737 1000 569 1000Q401 1000 306 871Q211 742 211 557L211 524M861 1297L861 1279L749 1279L582 1447L416 1279L306 1279L306 1300L533 1521L631 1521L861 1297Z"  horiz-adv-x="1140" vert-adv-y="2048"  />

      
      <glyph glyph-name="unif5" unicode="&#xf5;" d="M91 557Q91 796 222 949Q353 1102 569 1102Q786 1102 917 949Q1048 796 1048 557L1048 524Q1048 284 917.50 131.50Q787-21 571-21Q353-21 222 131.50Q91 284 91 524L91 557M211 524Q211 336 306 208Q401 80 571 80Q738 80 833.50 208Q929 336 929 524L929 557Q929 742 833 871Q737 1000 569 1000Q401 1000 306 871Q211 742 211 557L211 524M902 1500Q902 1412 847 1354Q792 1296 710 1296Q636 1296 559 1351Q482 1406 428 1406Q381 1406 349 1371Q317 1336 317 1282L237 1300Q237 1386 291 1444.50Q345 1503 428 1503Q493 1503 575 1448Q657 1393 710 1393Q756 1393 789 1429Q822 1465 822 1520L902 1500Z"  horiz-adv-x="1140" vert-adv-y="2048"  />

      
      <glyph glyph-name="unif6" unicode="&#xf6;" d="M91 557Q91 796 222 949Q353 1102 569 1102Q786 1102 917 949Q1048 796 1048 557L1048 524Q1048 284 917.50 131.50Q787-21 571-21Q353-21 222 131.50Q91 284 91 524L91 557M211 524Q211 336 306 208Q401 80 571 80Q738 80 833.50 208Q929 336 929 524L929 557Q929 742 833 871Q737 1000 569 1000Q401 1000 306 871Q211 742 211 557L211 524M908 1319L735 1319L735 1476L908 1476L908 1319M439 1319L265 1319L265 1476L439 1476L439 1319Z"  horiz-adv-x="1140" vert-adv-y="2048"  />

      
      <glyph glyph-name="unif7" unicode="&#xf7;" d="M1070 644L72 644L72 760L1070 760L1070 644M648 1010L506 1010L506 1170L648 1170L648 1010M648 212L506 212L506 372L648 372L648 212Z"  horiz-adv-x="1164" vert-adv-y="2048"  />

      
      <glyph glyph-name="unif8" unicode="&#xf8;" d="M91 557Q91 796 222 949Q353 1102 569 1102Q629 1102 683 1089.50Q737 1077 785 1053L864 1214L957 1214L856 1007Q947 935 997.50 818Q1048 701 1048 557L1048 524Q1048 284 917.50 131.50Q787-21 571-21Q516-21 466.50-10.50Q417 0 372 20L294-140L201-140L300 62Q200 132 145.50 252.50Q91 373 91 524L91 557M211 524Q211 412 246 318Q281 224 346 169L352 169L737 956Q701 977 658.50 988.50Q616 1000 569 1000Q401 1000 306 871Q211 742 211 557L211 524M929 557Q929 659 897 749Q865 839 808 896L802 896L418 114Q451 97 489.50 88.50Q528 80 571 80Q738 80 833.50 208Q929 336 929 524L929 557Z"  horiz-adv-x="1141" vert-adv-y="2048"  />

      
      <glyph glyph-name="unif9" unicode="&#xf9;" d="M867 177Q815 82 727 30.50Q639-21 519-21Q348-21 251 95Q154 211 154 455L154 1082L274 1082L274 453Q274 255 341.50 169Q409 83 533 83Q669 83 750 144Q831 205 863 312L863 1082L983 1082L983 0L877 0L867 177M650 1218L533 1218L292 1479L294 1484L448 1484L650 1218Z"  horiz-adv-x="1140" vert-adv-y="2048"  />

      
      <glyph glyph-name="unifa" unicode="&#xfa;" d="M867 177Q815 82 727 30.50Q639-21 519-21Q348-21 251 95Q154 211 154 455L154 1082L274 1082L274 453Q274 255 341.50 169Q409 83 533 83Q669 83 750 144Q831 205 863 312L863 1082L983 1082L983 0L877 0L867 177M712 1480L859 1480L862 1474L613 1214L505 1214L712 1480Z"  horiz-adv-x="1140" vert-adv-y="2048"  />

      
      <glyph glyph-name="unifb" unicode="&#xfb;" d="M867 177Q815 82 727 30.50Q639-21 519-21Q348-21 251 95Q154 211 154 455L154 1082L274 1082L274 453Q274 255 341.50 169Q409 83 533 83Q669 83 750 144Q831 205 863 312L863 1082L983 1082L983 0L877 0L867 177M859 1276L859 1258L747 1258L580 1426L414 1258L304 1258L304 1279L531 1500L629 1500L859 1276Z"  horiz-adv-x="1140" vert-adv-y="2048"  />

      
      <glyph glyph-name="unifc" unicode="&#xfc;" d="M867 177Q815 82 727 30.50Q639-21 519-21Q348-21 251 95Q154 211 154 455L154 1082L274 1082L274 453Q274 255 341.50 169Q409 83 533 83Q669 83 750 144Q831 205 863 312L863 1082L983 1082L983 0L877 0L867 177M906 1299L733 1299L733 1456L906 1456L906 1299M437 1299L263 1299L263 1456L437 1456L437 1299Z"  horiz-adv-x="1140" vert-adv-y="2048"  />

      
      <glyph glyph-name="unifd" unicode="&#xfd;" d="M465 293L503 164L509 164L836 1082L970 1082L500-173Q458-283 391-360Q324-437 195-437Q174-437 144-432.50Q114-428 100-423L114-323Q126-325 152.50-327.50Q179-330 191-330Q269-330 316-274.50Q363-219 396-132L453 14L35 1082L168 1082L465 293M646 1480L793 1480L796 1474L547 1214L439 1214L646 1480Z"  horiz-adv-x="1002" vert-adv-y="2048"  />

      
      <glyph glyph-name="unife" unicode="&#xfe;" d="M1033 511Q1033 268 923 123.50Q813-21 620-21Q506-21 420.50 22Q335 65 281 145L281-416L161-416L161 1560L281 1560L281 920Q335 1007 419.50 1054.50Q504 1102 618 1102Q813 1102 923 946.50Q1033 791 1033 532L1033 511M913 532Q913 738 831 868Q749 998 591 998Q470 998 394.50 940.50Q319 883 281 791L281 271Q322 182 399.50 131Q477 80 593 80Q750 80 831.50 198Q913 316 913 511L913 532Z"  horiz-adv-x="1151" vert-adv-y="2048"  />

      
      <glyph glyph-name="uniff" unicode="&#xff;" d="M465 293L503 164L509 164L836 1082L970 1082L500-173Q458-283 391-360Q324-437 195-437Q174-437 144-432.50Q114-428 100-423L114-323Q126-325 152.50-327.50Q179-330 191-330Q269-330 316-274.50Q363-219 396-132L453 14L35 1082L168 1082L465 293M840 1299L667 1299L667 1456L840 1456L840 1299M371 1299L197 1299L197 1456L371 1456L371 1299Z"  horiz-adv-x="1002" vert-adv-y="2048"  />

      
      <glyph glyph-name="uni0131" unicode="&#x0131;" d="M288 0L168 0L168 1082L288 1082L288 0Z"  horiz-adv-x="456" vert-adv-y="2048"  />

      
      <glyph glyph-name="uni0152" unicode="&#x0152;" d="M1824 0L957 0Q860-10 789.50-15.50Q719-21 646-21Q407-21 257.50 145Q108 311 108 576L108 880Q108 1144 256.50 1310.50Q405 1477 644 1477Q719 1477 796 1471Q873 1465 957 1456L1819 1456L1819 1354L1021 1354L1021 807L1722 807L1722 705L1021 705L1021 101L1824 101L1824 0M646 81Q712 81 777.50 84.50Q843 88 902 96L902 1360Q842 1367 777 1371Q712 1375 644 1375Q452 1375 340 1243Q228 1111 228 882L228 576Q228 348 341.50 214.50Q455 81 646 81Z"  horiz-adv-x="1913" vert-adv-y="2048"  />

      
      <glyph glyph-name="uni0153" unicode="&#x0153;" d="M94 557Q94 796 225 949Q356 1102 572 1102Q718 1102 827.50 1029.50Q937 957 996 830Q1055 955 1162 1028.50Q1269 1102 1396 1102Q1595 1102 1709 976Q1823 850 1823 640L1823 538L1059 538L1059 509Q1059 326 1156 203Q1253 80 1411 80Q1523 80 1601.50 111Q1680 142 1736 200L1788 118Q1727 54 1633.50 16.50Q1540-21 1411-21Q1272-21 1162.50 50.50Q1053 122 994 248Q936 122 827 50.50Q718-21 574-21Q356-21 225 131.50Q94 284 94 524L94 557M214 524Q214 336 309 208Q404 80 574 80Q741 80 836 208Q931 336 931 524L931 557Q931 742 835.50 871Q740 1000 572 1000Q404 1000 309 871Q214 742 214 557L214 524M1396 1000Q1263 1000 1173 898.50Q1083 797 1068 644L1070 639L1703 639L1703 669Q1703 810 1620.50 905Q1538 1000 1396 1000Z"  horiz-adv-x="1892" vert-adv-y="2048"  />

      
      <glyph glyph-name="uni02C6" unicode="&#x02C6;" d="M715 1270L715 1252L603 1252L436 1420L270 1252L160 1252L160 1273L387 1494L485 1494L715 1270Z"  horiz-adv-x="880" vert-adv-y="2048"  />

      
      <glyph glyph-name="uni02DA" unicode="&#x02DA;" d="M171 1324Q171 1393 220.50 1441.50Q270 1490 340 1490Q408 1490 457 1441.50Q506 1393 506 1324Q506 1253 457.50 1207Q409 1161 340 1161Q269 1161 220 1207Q171 1253 171 1324M249 1324Q249 1285 275.50 1259Q302 1233 340 1233Q377 1233 402.50 1258.50Q428 1284 428 1324Q428 1364 402.50 1390.50Q377 1417 340 1417Q302 1417 275.50 1390Q249 1363 249 1324Z"  horiz-adv-x="676" vert-adv-y="2048"  />

      
      <glyph glyph-name="uni02DC" unicode="&#x02DC;" d="M767 1481Q767 1393 712 1335Q657 1277 575 1277Q501 1277 424 1332Q347 1387 293 1387Q246 1387 214 1352Q182 1317 182 1263L102 1281Q102 1367 156 1425.50Q210 1484 293 1484Q358 1484 440 1429Q522 1374 575 1374Q621 1374 654 1410Q687 1446 687 1501L767 1481Z"  horiz-adv-x="892" vert-adv-y="2048"  />

      
      <glyph glyph-name="uni0400" unicode="&#x0400;" d="M1011 705L310 705L310 101L1113 101L1113 0L191 0L191 1456L1108 1456L1108 1354L310 1354L310 807L1011 807L1011 705M693 1561L576 1561L335 1822L337 1827L491 1827L693 1561Z"  horiz-adv-x="1180" vert-adv-y="2048"  />

      
      <glyph glyph-name="uni0401" unicode="&#x0401;" d="M1011 705L310 705L310 101L1113 101L1113 0L191 0L191 1456L1108 1456L1108 1354L310 1354L310 807L1011 807L1011 705M949 1641L776 1641L776 1798L949 1798L949 1641M480 1641L306 1641L306 1798L480 1798L480 1641Z"  horiz-adv-x="1180" vert-adv-y="2048"  />

      
      <glyph glyph-name="uni0402" unicode="&#x0402;" d="M1176 1354L609 1354L609 814Q699 845 786 865Q873 885 940 885Q1172 885 1305 769.50Q1438 654 1438 423Q1438 238 1316.50 114.50Q1195-9 967-6L962-4L961 86Q1138 86 1228.50 181Q1319 276 1319 423Q1318 602 1217.50 690.50Q1117 779 940 779Q864 779 778.50 759.50Q693 740 609 709L609 0L489 0L489 1354L54 1354L54 1456L1176 1456L1176 1354Z"  horiz-adv-x="1524" vert-adv-y="2048"  />

      
      <glyph glyph-name="uni0403" unicode="&#x0403;" d="M1063 1354L306 1354L306 0L187 0L187 1456L1063 1456L1063 1354M749 1823L896 1823L899 1817L650 1557L542 1557L749 1823Z"  horiz-adv-x="1130" vert-adv-y="2048"  />

      
      <glyph glyph-name="uni0404" unicode="&#x0404;" d="M1202 456L1204 450Q1185 231 1048 105.50Q911-20 681-20Q438-20 289 155.50Q140 331 140 610L140 847Q140 1125 289 1301.50Q438 1478 681 1478Q913 1478 1049 1355Q1185 1232 1204 1009L1202 1003L1090 1003Q1066 1184 965.50 1280Q865 1376 681 1376Q490 1376 374.50 1228Q259 1080 259 849L259 788L866 788L866 687L259 687L259 610Q259 376 374.50 228.50Q490 81 681 81Q865 81 966 175Q1067 269 1090 456L1202 456Z"  horiz-adv-x="1353" vert-adv-y="2048"  />

      
      <glyph glyph-name="uni0405" unicode="&#x0405;" d="M1024 357Q1024 476 935 551.50Q846 627 625 685Q386 745 263 841Q140 937 140 1100Q140 1267 277.50 1372Q415 1477 631 1477Q856 1477 994 1352Q1132 1227 1128 1047L1125 1041L1015 1041Q1015 1187 911.50 1281Q808 1375 631 1375Q456 1375 357.50 1297Q259 1219 259 1103Q259 993 350 919.50Q441 846 664 790Q899 730 1021.50 628Q1144 526 1144 359Q1144 185 1001.50 82Q859-21 638-21Q420-21 257.50 88.50Q95 198 100 408L102 414L212 414Q212 244 339 162Q466 80 638 80Q811 80 917.50 156Q1024 232 1024 357Z"  horiz-adv-x="1231" vert-adv-y="2048"  />

      
      <glyph glyph-name="uni0406" unicode="&#x0406;" d="M337 0L217 0L217 1456L337 1456L337 0Z"  horiz-adv-x="554" vert-adv-y="2048"  />

      
      <glyph glyph-name="uni0407" unicode="&#x0407;" d="M337 0L217 0L217 1456L337 1456L337 0M605 1641L432 1641L432 1798L605 1798L605 1641M136 1641L-38 1641L-38 1798L136 1798L136 1641Z"  horiz-adv-x="554" vert-adv-y="2048"  />

      
      <glyph glyph-name="uni0408" unicode="&#x0408;" d="M825 1456L945 1456L945 413Q945 214 826.50 96.50Q708-21 520-21Q315-21 196 85Q77 191 82 395L84 401L196 401Q196 243 280 161.50Q364 80 520 80Q653 80 739 170.50Q825 261 825 413L825 1456Z"  horiz-adv-x="1127" vert-adv-y="2048"  />

      
      <glyph glyph-name="uni0409" unicode="&#x0409;" d="M1250 1456L1250 846L1615 846Q1844 846 1969.50 729Q2095 612 2095 423Q2095 234 1969 117Q1843 0 1615 0L1130 0L1130 1354L568 1354L549 797Q532 360 436 180Q340 0 93 0L52 0L52 101L89 101Q264 101 338 249Q412 397 429 797L452 1456L1250 1456M1250 745L1250 101L1615 101Q1795 101 1885.50 194Q1976 287 1976 425Q1976 558 1885 651.50Q1794 745 1615 745L1250 745Z"  horiz-adv-x="2205" vert-adv-y="2048"  />

      
      <glyph glyph-name="uni040A" unicode="&#x040A;" d="M307 785L1136 785L1136 1456L1255 1456L1255 824L1620 824Q1850 824 1975 711Q2100 598 2100 414Q2100 229 1974.50 114.50Q1849 0 1620 0L1136 0L1136 684L307 684L307 0L188 0L188 1456L307 1456L307 785M1255 722L1255 106L1620 106Q1800 106 1890.50 194Q1981 282 1981 416Q1981 545 1890.50 633.50Q1800 722 1620 722L1255 722Z"  horiz-adv-x="2210" vert-adv-y="2048"  />

      
      <glyph glyph-name="uni040B" unicode="&#x040B;" d="M1177 1354L616 1354L616 808Q708 833 798.50 846.50Q889 860 992 860Q1231 860 1353.50 754.50Q1476 649 1476 413L1476 0L1356 0L1356 413Q1356 598 1266.50 678Q1177 758 992 758Q895 758 802.50 744.50Q710 731 616 706L616 0L496 0L496 1354L55 1354L55 1456L1177 1456L1177 1354Z"  horiz-adv-x="1647" vert-adv-y="2048"  />

      
      <glyph glyph-name="uni040C" unicode="&#x040C;" d="M510 685L310 685L310 0L191 0L191 1456L310 1456L310 786L509 786L1082 1456L1217 1456L1219 1451L617 740L1262 5L1260 0L1118 0L510 685M739 1823L886 1823L889 1817L640 1557L532 1557L739 1823Z"  horiz-adv-x="1308" vert-adv-y="2048"  />

      
      <glyph glyph-name="uni040D" unicode="&#x040D;" d="M1144 1456L1263 1456L1263 0L1144 0L1144 1245L1138 1246L310 0L191 0L191 1456L310 1456L310 212L316 211L1144 1456M804 1561L687 1561L446 1822L448 1827L602 1827L804 1561Z"  horiz-adv-x="1454" vert-adv-y="2048"  />

      
      <glyph glyph-name="uni040E" unicode="&#x040E;" d="M602 660L665 513L671 513L1087 1456L1227 1456L670 248Q610 124 537 51.50Q464-21 318-21Q295-21 265-17.50Q235-14 225-10L235 87Q247 84 273.50 82Q300 80 320 80Q406 80 457 130.50Q508 181 555 275L608 382L57 1456L194 1456L602 660M927 1854L929 1848Q933 1736 856 1666Q779 1596 646 1596Q513 1596 435.50 1666.50Q358 1737 363 1848L365 1854L459 1854Q459 1777 504 1730Q549 1683 646 1683Q740 1683 786.50 1731Q833 1779 833 1854L927 1854Z"  horiz-adv-x="1285" vert-adv-y="2048"  />

      
      <glyph glyph-name="uni040F" unicode="&#x040F;" d="M188 1456L307 1456L307 101L1136 101L1136 1456L1255 1456L1255 0L787 0L787-353L667-353L667 0L188 0L188 1456Z"  horiz-adv-x="1444" vert-adv-y="2048"  />

      
      <glyph glyph-name="uni0410" unicode="&#x0410;" d="M973 406L306 406L156 0L32 0L585 1456L698 1456L1247 0L1123 0L973 406M346 513L934 513L644 1301L638 1301L346 513Z"  horiz-adv-x="1279" vert-adv-y="2048"  />

      
      <glyph glyph-name="uni0411" unicode="&#x0411;" d="M1055 1354L299 1354L299 822L663 822Q894 822 1019 711Q1144 600 1144 413Q1144 225 1018.50 112.50Q893 0 663 0L179 0L179 1456L1055 1456L1055 1354M299 720L299 101L663 101Q844 101 933.50 189.50Q1023 278 1023 415Q1023 546 933.50 633Q844 720 663 720L299 720Z"  horiz-adv-x="1285" vert-adv-y="2048"  />

      
      <glyph glyph-name="uni0412" unicode="&#x0412;" d="M191 0L191 1456L616 1456Q843 1456 969.50 1360.50Q1096 1265 1096 1073Q1096 961 1032.50 878Q969 795 860 763Q993 739 1076 638Q1159 537 1159 405Q1159 210 1032.50 105Q906 0 694 0L191 0M310 702L310 101L694 101Q855 101 947 180.50Q1039 260 1039 403Q1039 534 955.50 618Q872 702 713 702L310 702M310 803L645 803Q803 803 889.50 872.50Q976 942 976 1077Q976 1215 884 1284.50Q792 1354 616 1354L310 1354L310 803Z"  horiz-adv-x="1269" vert-adv-y="2048"  />

      
      <glyph glyph-name="uni0413" unicode="&#x0413;" d="M1063 1354L306 1354L306 0L187 0L187 1456L1063 1456L1063 1354Z"  horiz-adv-x="1130" vert-adv-y="2048"  />

      
      <glyph glyph-name="uni0414" unicode="&#x0414;" d="M1407-353L1296-353L1296 0L191 0L191-353L85-353L72 101L170 101Q253 187 334 385Q415 583 431 932L457 1456L1260 1456L1260 101L1416 101L1407-353M551 932Q536 647 468.50 432.50Q401 218 308 101L1140 101L1140 1354L572 1354L551 932Z"  horiz-adv-x="1482" vert-adv-y="2048"  />

      
      <glyph glyph-name="uni0415" unicode="&#x0415;" d="M1011 705L310 705L310 101L1113 101L1113 0L191 0L191 1456L1108 1456L1108 1354L310 1354L310 807L1011 807L1011 705Z"  horiz-adv-x="1180" vert-adv-y="2048"  />

      
      <glyph glyph-name="uni0416" unicode="&#x0416;" d="M1124 695L960 695L960 0L841 0L841 695L672 695L175 0L23 0L564 752L61 1456L205 1456L664 797L841 797L841 1456L960 1456L960 797L1133 797L1592 1456L1736 1456L1232 752L1774 0L1622 0L1124 695Z"  horiz-adv-x="1802" vert-adv-y="2048"  />

      
      <glyph glyph-name="uni0417" unicode="&#x0417;" d="M1100 1073Q1100 964 1031 876.50Q962 789 839 746Q979 707 1051 618Q1123 529 1123 395Q1123 200 977 89.50Q831-21 598-21Q393-21 242.50 87Q92 195 97 398L99 404L210 404Q210 264 318.50 172Q427 80 598 80Q789 80 896 164Q1003 248 1003 391Q1003 546 902 618.50Q801 691 602 691L427 691L427 794L602 794Q796 794 888.50 868Q981 942 981 1077Q981 1211 884.50 1293Q788 1375 598 1375Q443 1375 337 1291Q231 1207 231 1075L120 1075L118 1081Q112 1257 253 1367Q394 1477 598 1477Q831 1477 965.50 1372Q1100 1267 1100 1073Z"  horiz-adv-x="1218" vert-adv-y="2048"  />

      
      <glyph glyph-name="uni0418" unicode="&#x0418;" d="M1144 1456L1263 1456L1263 0L1144 0L1144 1245L1138 1246L310 0L191 0L191 1456L310 1456L310 212L316 211L1144 1456Z"  horiz-adv-x="1454" vert-adv-y="2048"  />

      
      <glyph glyph-name="uni0419" unicode="&#x0419;" d="M1144 1456L1263 1456L1263 0L1144 0L1144 1245L1138 1246L310 0L191 0L191 1456L310 1456L310 212L316 211L1144 1456M1015 1854L1017 1848Q1021 1736 944 1666Q867 1596 734 1596Q601 1596 523.50 1666.50Q446 1737 451 1848L453 1854L547 1854Q547 1777 592 1730Q637 1683 734 1683Q828 1683 874.50 1731Q921 1779 921 1854L1015 1854Z"  horiz-adv-x="1454" vert-adv-y="2048"  />

      
      <glyph glyph-name="uni041A" unicode="&#x041A;" d="M510 685L310 685L310 0L191 0L191 1456L310 1456L310 786L509 786L1082 1456L1217 1456L1219 1451L617 740L1262 5L1260 0L1118 0L510 685Z"  horiz-adv-x="1308" vert-adv-y="2048"  />

      
      <glyph glyph-name="uni041B" unicode="&#x041B;" d="M1250 1456L1250 0L1130 0L1130 1354L504 1354L485 797Q471 361 385.50 180.50Q300 0 82 0L41 0L41 101L78 101Q227 101 289.50 249Q352 397 365 797L388 1456L1250 1456Z"  horiz-adv-x="1438" vert-adv-y="2048"  />

      
      <glyph glyph-name="uni041C" unicode="&#x041C;" d="M348 1456L883 174L889 174L1426 1456L1584 1456L1584 0L1465 0L1465 643L1475 1280L1469 1282L928 0L845 0L305 1276L299 1275L310 643L310 0L191 0L191 1456L348 1456Z"  horiz-adv-x="1775" vert-adv-y="2048"  />

      
      <glyph glyph-name="uni041D" unicode="&#x041D;" d="M1257 0L1138 0L1138 670L310 670L310 0L191 0L191 1456L310 1456L310 772L1138 772L1138 1456L1257 1456L1257 0Z"  horiz-adv-x="1448" vert-adv-y="2048"  />

      
      <glyph glyph-name="uni041E" unicode="&#x041E;" d="M1254 609Q1254 327 1099.50 153Q945-21 685-21Q429-21 276.50 153Q124 327 124 609L124 846Q124 1127 276 1302Q428 1477 684 1477Q944 1477 1099 1302Q1254 1127 1254 846L1254 609M1135 848Q1135 1084 1015.50 1228Q896 1372 684 1372Q476 1372 360 1228Q244 1084 244 848L244 609Q244 371 360.50 227Q477 83 685 83Q898 83 1016.50 226.50Q1135 370 1135 609L1135 848Z"  horiz-adv-x="1378" vert-adv-y="2048"  />

      
      <glyph glyph-name="uni041F" unicode="&#x041F;" d="M1258 0L1139 0L1139 1354L310 1354L310 0L191 0L191 1456L1258 1456L1258 0Z"  horiz-adv-x="1449" vert-adv-y="2048"  />

      
      <glyph glyph-name="uni0420" unicode="&#x0420;" d="M310 605L310 0L191 0L191 1456L692 1456Q921 1456 1046.50 1339.50Q1172 1223 1172 1031Q1172 837 1046.50 721Q921 605 692 605L310 605M310 707L692 707Q872 707 962.50 798.50Q1053 890 1053 1029Q1053 1169 963 1261.50Q873 1354 692 1354L310 1354L310 707Z"  horiz-adv-x="1267" vert-adv-y="2048"  />

      
      <glyph glyph-name="uni0421" unicode="&#x0421;" d="M1194 455L1196 449Q1177 230 1040 104.50Q903-21 673-21Q430-21 281 154.50Q132 330 132 609L132 846Q132 1124 281 1300.50Q430 1477 673 1477Q905 1477 1041 1354Q1177 1231 1196 1008L1194 1002L1082 1002Q1058 1183 957.50 1279Q857 1375 673 1375Q482 1375 366.50 1227Q251 1079 251 848L251 609Q251 375 366.50 227.50Q482 80 673 80Q857 80 958 174Q1059 268 1082 455L1194 455Z"  horiz-adv-x="1313" vert-adv-y="2048"  />

      
      <glyph glyph-name="uni0422" unicode="&#x0422;" d="M1167 1354L666 1354L666 0L546 0L546 1354L45 1354L45 1456L1167 1456L1167 1354Z"  horiz-adv-x="1213" vert-adv-y="2048"  />

      
      <glyph glyph-name="uni0423" unicode="&#x0423;" d="M602 660L665 513L671 513L1087 1456L1227 1456L670 248Q610 124 537 51.50Q464-21 318-21Q295-21 265-17.50Q235-14 225-10L235 87Q247 84 273.50 82Q300 80 320 80Q406 80 457 130.50Q508 181 555 275L608 382L57 1456L194 1456L602 660Z"  horiz-adv-x="1285" vert-adv-y="2048"  />

      
      <glyph glyph-name="uni0424" unicode="&#x0424;" d="M823 1308L850 1308Q1114 1308 1282 1144.50Q1450 981 1450 732Q1450 482 1282 317.50Q1114 153 850 153L823 153L823-60L702-60L702 153L676 153Q410 153 243.50 316.50Q77 480 77 730Q77 979 244 1143.50Q411 1308 676 1308L702 1308L702 1516L823 1516L823 1308M823 1207L823 255L852 255Q1073 255 1201.50 387Q1330 519 1330 732Q1330 943 1201.50 1075Q1073 1207 852 1207L823 1207M676 1207Q453 1207 324.50 1074Q196 941 196 730Q196 517 324 386Q452 255 676 255L702 255L702 1207L676 1207Z"  horiz-adv-x="1521" vert-adv-y="2048"  />

      
      <glyph glyph-name="uni0425" unicode="&#x0425;" d="M628 834L1039 1456L1184 1456L700 738L1200 0L1057 0L630 642L204 0L59 0L559 738L74 1456L219 1456L628 834Z"  horiz-adv-x="1256" vert-adv-y="2048"  />

      
      <glyph glyph-name="uni0426" unicode="&#x0426;" d="M182 1456L301 1456L301 101L1128 101L1128 103L1130 103L1130 1456L1249 1456L1249 103L1390 103L1381-351L1272-351L1272 0L182 0L182 1456Z"  horiz-adv-x="1461" vert-adv-y="2048"  />

      
      <glyph glyph-name="uni0427" unicode="&#x0427;" d="M1175 1456L1175 0L1055 0L1055 664Q954 635 859 620.50Q764 606 656 606Q416 606 294.50 711Q173 816 173 1053L173 1456L293 1456L293 1053Q293 867 382 787.50Q471 708 656 708Q758 708 856.50 722.50Q955 737 1055 766L1055 1456L1175 1456Z"  horiz-adv-x="1363" vert-adv-y="2048"  />

      
      <glyph glyph-name="uni0428" unicode="&#x0428;" d="M304 1456L304 101L889 101L889 1456L1009 1456L1009 101L1592 101L1592 1456L1712 1456L1712 0L184 0L184 1456L304 1456Z"  horiz-adv-x="1896" vert-adv-y="2048"  />

      
      <glyph glyph-name="uni0429" unicode="&#x0429;" d="M304 1456L304 101L889 101L889 1456L1009 1456L1009 101L1592 101L1592 1456L1712 1456L1712 102L1853 102L1844-351L1734-351L1734 0L184 0L184 1456L304 1456Z"  horiz-adv-x="1931" vert-adv-y="2048"  />

      
      <glyph glyph-name="uni042A" unicode="&#x042A;" d="M-10 1456L599 1456L599 822L963 822Q1194 822 1319 711Q1444 600 1444 413Q1444 225 1318.50 112.50Q1193 0 963 0L479 0L479 1354L-10 1354L-10 1456M599 720L599 101L963 101Q1144 101 1233.50 189.50Q1323 278 1323 415Q1323 546 1233.50 633Q1144 720 963 720L599 720Z"  horiz-adv-x="1586" vert-adv-y="2048"  />

      
      <glyph glyph-name="uni042B" unicode="&#x042B;" d="M307 822L671 822Q902 822 1027 711Q1152 600 1152 413Q1152 225 1026.50 112.50Q901 0 671 0L187 0L187 1456L307 1456L307 822M307 720L307 101L671 101Q852 101 941.50 189.50Q1031 278 1031 415Q1031 546 941.50 633Q852 720 671 720L307 720M1518 0L1398 0L1398 1456L1518 1456L1518 0Z"  horiz-adv-x="1710" vert-adv-y="2048"  />

      
      <glyph glyph-name="uni042C" unicode="&#x042C;" d="M299 822L663 822Q894 822 1019 711Q1144 600 1144 413Q1144 225 1018.50 112.50Q893 0 663 0L179 0L179 1456L299 1456L299 822M299 720L299 101L663 101Q844 101 933.50 189.50Q1023 278 1023 415Q1023 546 933.50 633Q844 720 663 720L299 720Z"  horiz-adv-x="1254" vert-adv-y="2048"  />

      
      <glyph glyph-name="uni042D" unicode="&#x042D;" d="M168 1001L166 1007Q161 1220 305 1349Q449 1478 684 1478Q926 1478 1075.50 1301.50Q1225 1125 1225 847L1225 610Q1225 331 1075.50 155.50Q926-20 684-20Q446-20 303.50 104Q161 228 166 448L168 454L280 454Q280 277 387 179Q494 81 684 81Q874 81 990 228Q1106 375 1106 608L1106 705L494 705L494 807L1106 807L1106 847Q1106 1080 990 1228Q874 1376 684 1376Q494 1376 387 1279.50Q280 1183 280 1001L168 1001Z"  horiz-adv-x="1352" vert-adv-y="2048"  />

      
      <glyph glyph-name="uni042E" unicode="&#x042E;" d="M1736 609Q1736 327 1581.50 153Q1427-21 1167-21Q911-21 758.50 153Q606 327 606 609L606 664L335 664L335 0L215 0L215 1456L335 1456L335 765L606 765L606 846Q606 1127 758 1302Q910 1477 1166 1477Q1426 1477 1581 1302Q1736 1127 1736 846L1736 609M1617 848Q1617 1084 1497.50 1228Q1378 1372 1166 1372Q958 1372 842 1228Q726 1084 726 848L726 609Q726 371 842.50 227Q959 83 1167 83Q1380 83 1498.50 226.50Q1617 370 1617 609L1617 848Z"  horiz-adv-x="1864" vert-adv-y="2048"  />

      
      <glyph glyph-name="uni042F" unicode="&#x042F;" d="M226 0L97 0L443 631Q300 678 225 777Q150 876 150 1018Q150 1226 281 1341Q412 1456 643 1456L1087 1456L1087 0L967 0L967 595L545 595L226 0M967 1354L643 1354Q460 1354 364.50 1265.50Q269 1177 269 1020Q269 876 359 787Q449 698 609 698L967 698L967 1354Z"  horiz-adv-x="1252" vert-adv-y="2048"  />

      
      <glyph glyph-name="uni0430" unicode="&#x0430;" d="M843 0Q831 55 826 95Q821 135 821 176Q761 91 661 35Q561-21 436-21Q278-21 190.50 63Q103 147 103 288Q103 438 232.50 528Q362 618 582 618L821 618L821 752Q821 868 746.50 934Q672 1000 538 1000Q413 1000 330.50 937Q248 874 248 783L138 784L136 790Q130 911 246.50 1006.50Q363 1102 543 1102Q722 1102 831 1011Q940 920 940 750L940 218Q940 161 946.50 107Q953 53 968 0L843 0M450 85Q579 85 678 145.50Q777 206 821 300L821 526L580 526Q417 526 319.50 456.50Q222 387 222 284Q222 196 282.50 140.50Q343 85 450 85Z"  horiz-adv-x="1101" vert-adv-y="2048"  />

      
      <glyph glyph-name="uni0431" unicode="&#x0431;" d="M592 1010Q801 1010 927.50 874Q1054 738 1054 526L1054 493Q1054 266 923 122.50Q792-21 576-21Q359-21 228 123Q97 267 97 493L97 650Q97 963 227.50 1154Q358 1345 583 1381Q734 1404 796.50 1442Q859 1480 859 1553L953 1553L955 1547Q959 1411 871.50 1354.50Q784 1298 607 1275Q452 1256 345.50 1144Q239 1032 218 840L222 835Q280 914 377.50 962Q475 1010 592 1010M574 909Q406 909 311.50 797Q217 685 217 526L217 493Q217 318 312 199Q407 80 576 80Q744 80 839 199Q934 318 934 493L934 526Q934 687 838.50 798Q743 909 574 909Z"  horiz-adv-x="1127" vert-adv-y="2048"  />

      
      <glyph glyph-name="uni0432" unicode="&#x0432;" d="M169 0L169 1082L566 1082Q768 1082 880 1009.50Q992 937 992 793Q992 710 941.50 647Q891 584 800 556Q906 536 970.50 464.50Q1035 393 1035 300Q1035 153 927.50 76.50Q820 0 635 0L169 0M288 498L288 100L635 100Q769 100 842.50 152Q916 204 916 302Q916 392 841.50 445Q767 498 635 498L288 498M288 598L591 598Q729 600 801 648.50Q873 697 873 790Q873 887 795.50 933.50Q718 980 566 980L288 980L288 598Z"  horiz-adv-x="1145" vert-adv-y="2048"  />

      
      <glyph glyph-name="uni0433" unicode="&#x0433;" d="M830 979L283 979L283 0L163 0L163 1082L830 1082L830 979Z"  horiz-adv-x="863" vert-adv-y="2048"  />

      
      <glyph glyph-name="uni0434" unicode="&#x0434;" d="M131 101Q217 209 268 327.50Q319 446 330 691L348 1082L987 1082L987 101L1099 101L1090-318L980-318L980 0L167 0L167-318L62-318L53 101L131 101M449 691Q440 479 392 336Q344 193 269 101L867 101L867 970L462 970L449 691Z"  horiz-adv-x="1174" vert-adv-y="2048"  />

      
      <glyph glyph-name="uni0435" unicode="&#x0435;" d="M564-21Q361-21 226.50 129Q92 279 92 509L92 564Q92 796 225.50 949Q359 1102 549 1102Q748 1102 862 976Q976 850 976 640L976 538L212 538L212 509Q212 326 309 203Q406 80 564 80Q676 80 755 111Q834 142 890 200L941 118Q880 54 786.50 16.50Q693-21 564-21M549 1000Q416 1000 326 898.50Q236 797 221 644L223 639L857 639L857 669Q857 810 774 905Q691 1000 549 1000Z"  horiz-adv-x="1055" vert-adv-y="2048"  />

      
      <glyph glyph-name="uni0436" unicode="&#x0436;" d="M983 500L839 500L839 0L719 0L719 500L576 500L176 0L31 0L28 5L476 561L74 1082L219 1082L574 607L719 607L719 1082L839 1082L839 607L985 607L1340 1082L1487 1082L1083 560L1532 5L1529 0L1383 0L983 500Z"  horiz-adv-x="1571" vert-adv-y="2048"  />

      
      <glyph glyph-name="uni0437" unicode="&#x0437;" d="M910 794Q910 715 861 652Q812 589 722 555Q825 525 877.50 460Q930 395 930 297Q930 149 816.50 65.50Q703-18 517-18Q349-18 224.50 65.50Q100 149 105 304L107 310L218 310Q218 214 303 148Q388 82 517 82Q657 82 733 140Q809 198 809 295Q809 402 738.50 451Q668 500 521 500L356 500L356 604L521 604Q663 604 726.50 653.50Q790 703 790 796Q790 886 723 942Q656 998 517 998Q400 998 317.50 939Q235 880 235 790L125 790L123 796Q117 929 234 1014Q351 1099 517 1099Q702 1099 806 1020Q910 941 910 794Z"  horiz-adv-x="1037" vert-adv-y="2048"  />

      
      <glyph glyph-name="uni0438" unicode="&#x0438;" d="M867 1082L987 1082L987 0L867 0L867 883L861 885L283 0L164 0L164 1082L283 1082L283 199L289 197L867 1082Z"  horiz-adv-x="1151" vert-adv-y="2048"  />

      
      <glyph glyph-name="uni0439" unicode="&#x0439;" d="M867 1082L987 1082L987 0L867 0L867 883L861 885L283 0L164 0L164 1082L283 1082L283 199L289 197L867 1082M853 1511L855 1505Q859 1393 782 1323Q705 1253 572 1253Q439 1253 361.50 1323.50Q284 1394 289 1505L291 1511L385 1511Q385 1434 430 1387Q475 1340 572 1340Q666 1340 712.50 1388Q759 1436 759 1511L853 1511Z"  horiz-adv-x="1151" vert-adv-y="2048"  />

      
      <glyph glyph-name="uni043A" unicode="&#x043A;" d="M450 496L284 496L284 0L163 0L163 1082L284 1082L284 602L448 602L845 1082L989 1082L991 1077L552 557L1040 5L1038 0L887 0L450 496Z"  horiz-adv-x="1061" vert-adv-y="2048"  />

      
      <glyph glyph-name="uni043B" unicode="&#x043B;" d="M988 1082L988 0L868 0L868 979L410 979L410 604Q410 286 335.50 143Q261 0 85 0L42 0L44 107L81 108Q191 108 240.50 218.50Q290 329 290 604L290 1082L988 1082Z"  horiz-adv-x="1153" vert-adv-y="2048"  />

      
      <glyph glyph-name="uni043C" unicode="&#x043C;" d="M752 168L758 168L1185 1082L1333 1082L1333 0L1213 0L1213 874L1207 875L797 0L712 0L294 895L288 894L288 0L169 0L169 1082L326 1082L752 168Z"  horiz-adv-x="1497" vert-adv-y="2048"  />

      
      <glyph glyph-name="uni043D" unicode="&#x043D;" d="M987 0L867 0L867 496L284 496L284 0L164 0L164 1082L284 1082L284 597L867 597L867 1082L987 1082L987 0Z"  horiz-adv-x="1151" vert-adv-y="2048"  />

      
      <glyph glyph-name="uni043E" unicode="&#x043E;" d="M91 557Q91 796 222 949Q353 1102 569 1102Q786 1102 917 949Q1048 796 1048 557L1048 524Q1048 284 917.50 131.50Q787-21 571-21Q353-21 222 131.50Q91 284 91 524L91 557M211 524Q211 336 306 208Q401 80 571 80Q738 80 833.50 208Q929 336 929 524L929 557Q929 742 833 871Q737 1000 569 1000Q401 1000 306 871Q211 742 211 557L211 524Z"  horiz-adv-x="1140" vert-adv-y="2048"  />

      
      <glyph glyph-name="uni043F" unicode="&#x043F;" d="M987 0L867 0L867 979L284 979L284 0L164 0L164 1082L987 1082L987 0Z"  horiz-adv-x="1151" vert-adv-y="2048"  />

      
      <glyph glyph-name="uni0440" unicode="&#x0440;" d="M1029 511Q1029 268 919 123.50Q809-21 616-21Q502-21 416.50 22Q331 65 277 145L277-416L157-416L157 1082L258 1082L273 914Q327 1004 412.50 1053Q498 1102 614 1102Q809 1102 919 946.50Q1029 791 1029 532L1029 511M909 532Q909 738 827 868Q745 998 587 998Q466 998 390.50 940.50Q315 883 277 791L277 271Q318 182 395.50 131Q473 80 589 80Q746 80 827.50 198Q909 316 909 511L909 532Z"  horiz-adv-x="1140" vert-adv-y="2048"  />

      
      <glyph glyph-name="uni0441" unicode="&#x0441;" d="M559 80Q678 80 769 148Q860 216 860 337L966 337L968 331Q973 181 848 80Q723-21 559-21Q338-21 217.50 130.50Q97 282 97 520L97 562Q97 798 218 950Q339 1102 558 1102Q736 1102 854.50 997Q973 892 969 721L967 715L860 715Q860 845 772.50 922.50Q685 1000 558 1000Q384 1000 300.50 875.50Q217 751 217 562L217 520Q217 328 300 204Q383 80 559 80Z"  horiz-adv-x="1061" vert-adv-y="2048"  />

      
      <glyph glyph-name="uni0442" unicode="&#x0442;" d="M941 980L547 980L547 0L428 0L428 980L48 980L48 1082L941 1082L941 980Z"  horiz-adv-x="990" vert-adv-y="2048"  />

      
      <glyph glyph-name="uni0443" unicode="&#x0443;" d="M465 293L503 164L509 164L836 1082L970 1082L500-173Q458-283 391-360Q324-437 195-437Q174-437 144-432.50Q114-428 100-423L114-323Q126-325 152.50-327.50Q179-330 191-330Q269-330 316-274.50Q363-219 396-132L453 14L35 1082L168 1082L465 293Z"  horiz-adv-x="1002" vert-adv-y="2048"  />

      
      <glyph glyph-name="uni0444" unicode="&#x0444;" d="M111 532Q111 792 213 947Q315 1102 501 1102Q554 1102 599 1089.50Q644 1077 679 1055L679 1560L798 1560L798 1051Q833 1075 879 1088.50Q925 1102 982 1102Q1167 1102 1270 947Q1373 792 1373 532L1373 511Q1373 268 1270.50 123.50Q1168-21 984-21Q927-21 880.50-9Q834 3 798 26L798-416L679-416L679 25Q642 3 597.50-9Q553-21 499-21Q315-21 213 123.50Q111 268 111 511L111 532M1254 532Q1254 739 1178.50 869.50Q1103 1000 956 1000Q901 1000 862 988Q823 976 798 956L798 119Q826 101 865.50 90.50Q905 80 958 80Q1105 80 1179.50 197.50Q1254 315 1254 511L1254 532M231 511Q231 314 303 197Q375 80 522 80Q572 80 611 91Q650 102 679 121L679 959Q652 977 614 988.50Q576 1000 524 1000Q376 1000 303.50 870Q231 740 231 532L231 511Z"  horiz-adv-x="1484" vert-adv-y="2048"  />

      
      <glyph glyph-name="uni0445" unicode="&#x0445;" d="M498 640L791 1082L933 1082L566 551L948 0L808 0L500 461L192 0L50 0L433 551L66 1082L207 1082L498 640Z"  horiz-adv-x="1002" vert-adv-y="2048"  />

      
      <glyph glyph-name="uni0446" unicode="&#x0446;" d="M164 1082L284 1082L284 101L867 101L867 1082L987 1082L987 101L1097 101L1088-321L978-321L978 0L164 0L164 1082Z"  horiz-adv-x="1166" vert-adv-y="2048"  />

      
      </font>
</defs>
</svg>
