<?xml version="1.0" standalone="no"?>
  <!DOCTYPE svg PUBLIC "-//W3C//DTD SVG 1.1//EN" "http://www.w3.org/Graphics/SVG/1.1/DTD/svg11.dtd" >
  <svg>
  <metadata>
  Created by font-carrier
  </metadata>
  <defs>
  <font id="RobotoCondensed-Regular" horiz-adv-x="1917" vert-adv-y="1917" >
    <font-face
      
      font-family="RobotoCondensed-Regular"
      
      font-weight="400"
      
      font-stretch="normal"
      
      units-per-em="2048"
      
      ascent="2146"
      
      descent="-555"
      
    />
      <missing-glyph />

      

      
      <glyph glyph-name="uni21" unicode="&#x21;" d="M339 485L136 485L136 1456L339 1456L339 485M340 0L136 0L136 204L340 204L340 0Z"  horiz-adv-x="474" vert-adv-y="2048"  />

      
      <glyph glyph-name="uni22" unicode="&#x22;" d="M236 1311L180 1057L83 1057L84 1302L84 1560L236 1560L236 1311M507 1311L450 1057L354 1057L355 1309L355 1560L507 1560L507 1311Z"  horiz-adv-x="589" vert-adv-y="2048"  />

      
      <glyph glyph-name="uni23" unicode="&#x23;" d="M585 410L393 410L329 0L190 0L254 410L57 410L57 540L274 540L332 908L121 908L121 1040L352 1040L418 1456L556 1456L491 1040L683 1040L749 1456L887 1456L822 1040L1001 1040L1001 908L801 908L744 540L938 540L938 410L724 410L660 0L521 0L585 410M413 540L605 540L663 908L470 908L413 540Z"  horiz-adv-x="1069" vert-adv-y="2048"  />

      
      <glyph glyph-name="uni24" unicode="&#x24;" d="M703 370Q703 466 656 528.50Q609 591 497 645Q318 715 229 812.50Q140 910 140 1082Q140 1245 226 1349.50Q312 1454 459 1473L459 1685L590 1685L590 1471Q735 1447 818 1328.50Q901 1210 901 1014L698 1014Q698 1150 649.50 1233.50Q601 1317 518 1317Q431 1317 386.50 1252Q342 1187 342 1084Q342 986 387 926Q432 866 551 809Q730 736 817.50 639.50Q905 543 905 372Q905 204 816.50 103Q728 2 574-17L574-210L444-210L444-17Q291 0 192 109Q93 218 93 432L295 432Q295 274 355.50 206Q416 138 505 138Q598 138 650.50 202Q703 266 703 370Z"  horiz-adv-x="1000" vert-adv-y="2048"  />

      
      <glyph glyph-name="uni25" unicode="&#x25;" d="M97 1176Q97 1304 169.50 1390.50Q242 1477 367 1477Q493 1477 565.50 1390.50Q638 1304 638 1176L638 1099Q638 971 566 885.50Q494 800 369 800Q243 800 170 885.50Q97 971 97 1099L97 1176M240 1099Q240 1025 273.50 972.50Q307 920 369 920Q429 920 462 972Q495 1024 495 1099L495 1176Q495 1251 461.50 1304Q428 1357 367 1357Q306 1357 273 1304Q240 1251 240 1176L240 1099M720 357Q720 484 793 570.50Q866 657 991 657Q1117 657 1189.50 571Q1262 485 1262 357L1262 279Q1262 150 1189.50 64.50Q1117-21 993-21Q867-21 793.50 65Q720 151 720 279L720 357M864 279Q864 205 898.50 152Q933 99 993 99Q1056 99 1087.50 150.50Q1119 202 1119 279L1119 357Q1119 433 1085.50 485Q1052 537 991 537Q930 537 897 485Q864 433 864 357L864 279M413 113L309 176L910 1314L1014 1251L413 113Z"  horiz-adv-x="1350" vert-adv-y="2048"  />

      
      <glyph glyph-name="uni26" unicode="&#x26;" d="M67 383Q67 504 129.50 596.50Q192 689 315 785Q247 883 214 962.50Q181 1042 181 1125Q181 1291 270.50 1384Q360 1477 513 1477Q652 1477 738 1387.50Q824 1298 824 1169Q824 1073 780 1001Q736 929 655 864L551 778L844 385L850 386Q881 444 898.50 517.50Q916 591 916 675L1081 675Q1081 544 1049 435Q1017 326 952 240L1131 0L894 0L817 104Q742 43 659 11Q576-21 484-21Q293-21 180 90.50Q67 202 67 383M490 133Q552 133 613 156.50Q674 180 727 225L407 658L384 639Q317 567 294.50 504.50Q272 442 272 388Q272 278 330 205.50Q388 133 490 133M373 1127Q373 1076 395.50 1021.50Q418 967 462 901L566 983Q616 1023 634.50 1067Q653 1111 653 1164Q653 1228 615 1274.50Q577 1321 513 1321Q446 1321 409.50 1265.50Q373 1210 373 1127Z"  horiz-adv-x="1172" vert-adv-y="2048"  />

      
      <glyph glyph-name="uni27" unicode="&#x27;" d="M233 1334L178 1055L82 1055L83 1321L83 1560L233 1560L233 1334Z"  horiz-adv-x="319" vert-adv-y="2048"  />

      
      <glyph glyph-name="uni28" unicode="&#x28;" d="M117 590Q117 969 247.50 1250.50Q378 1532 531 1623L537 1623L574 1515Q462 1413 380.50 1171Q299 929 299 592L299 572Q299 235 380.50-6Q462-247 574-355L537-457L531-457Q377-365 247-87.50Q117 190 117 574L117 590Z"  horiz-adv-x="602" vert-adv-y="2048"  />

      
      <glyph glyph-name="uni29" unicode="&#x29;" d="M490 574Q490 194 357-86Q224-366 69-457L63-457L25-355Q135-253 217.50-9Q300 235 300 572L300 592Q300 925 215.50 1170.50Q131 1416 25 1521L63 1623L69 1623Q223 1532 356.50 1249Q490 966 490 590L490 574Z"  horiz-adv-x="606" vert-adv-y="2048"  />

      
      <glyph glyph-name="uni2a" unicode="&#x2a;" d="M301 984L32 1080L76 1220L344 1101L333 1456L478 1456L466 1095L728 1216L772 1075L498 975L677 697L559 610L397 905L238 616L120 700L301 984Z"  horiz-adv-x="806" vert-adv-y="2048"  />

      
      <glyph glyph-name="uni2b" unicode="&#x2b;" d="M607 774L949 774L949 600L607 600L607 146L409 146L409 600L67 600L67 774L409 774L409 1206L607 1206L607 774Z"  horiz-adv-x="1023" vert-adv-y="2048"  />

      
      <glyph glyph-name="uni2c" unicode="&#x2c;" d="M301 24L174-271L53-271L112 31L112 214L301 214L301 24Z"  horiz-adv-x="397" vert-adv-y="2048"  />

      
      <glyph glyph-name="uni2d" unicode="&#x2d;" d="M519 542L73 542L73 697L519 697L519 542Z"  horiz-adv-x="598" vert-adv-y="2048"  />

      
      <glyph glyph-name="uni2e" unicode="&#x2e;" d="M341 0L137 0L137 203L341 203L341 0Z"  horiz-adv-x="497" vert-adv-y="2048"  />

      
      <glyph glyph-name="uni2f" unicode="&#x2f;" d="M168-125L9-125L491 1456L650 1456L168-125Z"  horiz-adv-x="693" vert-adv-y="2048"  />

      
      <glyph glyph-name="uni30" unicode="&#x30;" d="M905 563Q905 280 796.50 129.50Q688-21 502-21Q315-21 205.50 130Q96 281 96 563L96 892Q96 1173 205 1325Q314 1477 500 1477Q686 1477 795.50 1325Q905 1173 905 892L905 563M703 921Q703 1119 650.50 1220Q598 1321 500 1321Q402 1321 350.50 1219.50Q299 1118 299 921L299 535Q299 337 351.50 235Q404 133 502 133Q599 133 651 234.50Q703 336 703 535L703 921Z"  horiz-adv-x="1002" vert-adv-y="2048"  />

      
      <glyph glyph-name="uni31" unicode="&#x31;" d="M630-2L428-2L428 1253L143 1234L143 1365L630 1457L630-2Z"  horiz-adv-x="1000" vert-adv-y="2048"  />

      
      <glyph glyph-name="uni32" unicode="&#x32;" d="M918 0L101 0L101 135L501 661Q598 798 636.50 887.50Q675 977 675 1061Q675 1176 626.50 1248.50Q578 1321 493 1321Q386 1321 332.50 1241Q279 1161 279 1023L84 1023L82 1028Q78 1217 189 1347Q300 1477 493 1477Q671 1477 774.50 1364.50Q878 1252 878 1067Q878 942 814.50 820.50Q751 699 630 549L355 154L918 154L918 0Z"  horiz-adv-x="1000" vert-adv-y="2048"  />

      
      <glyph glyph-name="uni33" unicode="&#x33;" d="M340 818L479 818Q580 818 626.50 885.50Q673 953 673 1068Q673 1186 624.50 1253.50Q576 1321 483 1321Q398 1321 343.50 1253.50Q289 1186 289 1076L96 1076L93 1082Q89 1251 199 1364Q309 1477 479 1477Q659 1477 767 1369.50Q875 1262 875 1066Q875 969 824 880.50Q773 792 679 746Q789 705 842 613.50Q895 522 895 402Q895 204 778.50 91.50Q662-21 480-21Q310-21 192.50 86.50Q75 194 79 386L82 392L276 392Q276 277 333 205Q390 133 483 133Q581 133 636.50 202.50Q692 272 692 400Q692 536 639 600.50Q586 665 479 665L340 665L340 818Z"  horiz-adv-x="1000" vert-adv-y="2048"  />

      
      <glyph glyph-name="uni34" unicode="&#x34;" d="M793 497L949 497L949 342L793 342L793 0L591 0L591 342L62 342L56 456L585 1456L793 1456L793 497M256 497L591 497L591 1162L585 1163L565 1121L256 497Z"  horiz-adv-x="1000" vert-adv-y="2048"  />

      
      <glyph glyph-name="uni35" unicode="&#x35;" d="M140 654L210 1456L863 1456L863 1289L379 1289L341 857Q378 895 427 919.50Q476 944 539 946Q711 948 809 818.50Q907 689 907 465Q907 248 804.50 113.50Q702-21 505-21Q341-21 229 83Q117 187 121 382L123 387L314 391Q314 267 366.50 200Q419 133 505 133Q604 133 654 220.50Q704 308 704 463Q704 609 652 697.50Q600 786 503 786Q417 786 374.50 748.50Q332 711 315 637L140 654Z"  horiz-adv-x="1000" vert-adv-y="2048"  />

      
      <glyph glyph-name="uni36" unicode="&#x36;" d="M581 1477Q647 1477 708 1460Q769 1443 819 1414L780 1265Q735 1292 689 1306Q643 1320 582 1320Q460 1320 384.50 1202.50Q309 1085 309 888L309 847Q359 904 427 935.50Q495 967 576 967Q741 967 836.50 831Q932 695 932 482Q932 262 822 120.50Q712-21 534-21Q347-21 227 132Q107 285 107 558L107 874Q107 1145 242 1311Q377 1477 581 1477M526 818Q449 818 393.50 781Q338 744 309 680L309 546Q309 350 372 241Q435 132 534 132Q624 132 677 233.50Q730 335 730 482Q730 630 675.50 724Q621 818 526 818Z"  horiz-adv-x="1000" vert-adv-y="2048"  />

      
      <glyph glyph-name="uni37" unicode="&#x37;" d="M916 1300Q707 1022 629.50 767.50Q552 513 520 139L507 0L305 0L317 139Q350 491 448.50 773Q547 1055 719 1300L66 1300L66 1456L916 1456L916 1300Z"  horiz-adv-x="1000" vert-adv-y="2048"  />

      
      <glyph glyph-name="uni38" unicode="&#x38;" d="M880 1076Q880 961 825 874.50Q770 788 676 746Q783 701 846.50 607.50Q910 514 910 392Q910 192 796.50 85.50Q683-21 501-21Q316-21 202.50 85.50Q89 192 89 392Q89 515 152 608.50Q215 702 323 747Q229 789 175 875.50Q121 962 121 1076Q121 1267 225 1372Q329 1477 499 1477Q668 1477 774 1372Q880 1267 880 1076M708 399Q708 519 649 594.50Q590 670 499 670Q407 670 349.50 595Q292 520 292 399Q292 274 348.50 203.50Q405 133 501 133Q592 133 650 204Q708 275 708 399M676 1071Q676 1181 627 1251Q578 1321 499 1321Q419 1321 371.50 1253.50Q324 1186 324 1071Q324 958 372 891Q420 824 501 824Q580 824 628 891Q676 958 676 1071Z"  horiz-adv-x="1000" vert-adv-y="2048"  />

      
      <glyph glyph-name="uni39" unicode="&#x39;" d="M443 133Q554 133 622.50 235.50Q691 338 691 531L691 602Q649 531 588 494.50Q527 458 455 458Q281 458 179.50 592.50Q78 727 78 957Q78 1180 192.50 1328.50Q307 1477 476 1477Q665 1477 779.50 1333Q894 1189 894 918L894 538Q894 272 768 125.50Q642-21 443-21Q381-21 313-5.50Q245 10 187 39L214 187Q267 158 321.50 145.50Q376 133 443 133M476 610Q554 610 608.50 654.50Q663 699 691 769L691 938Q691 1126 635 1223.50Q579 1321 479 1321Q394 1321 337.50 1216Q281 1111 281 957Q281 803 332.50 706.50Q384 610 476 610Z"  horiz-adv-x="1000" vert-adv-y="2048"  />

      
      <glyph glyph-name="uni3a" unicode="&#x3a;" d="M341 0L137 0L137 203L341 203L341 0M341 878L137 878L137 1081L341 1081L341 878Z"  horiz-adv-x="476" vert-adv-y="2048"  />

      
      <glyph glyph-name="uni3b" unicode="&#x3b;" d="M338 879L134 879L134 1082L338 1082L338 879M339 24L212-271L91-271L150 31L150 214L339 214L339 24Z"  horiz-adv-x="470" vert-adv-y="2048"  />

      
      <glyph glyph-name="uni3c" unicode="&#x3c;" d="M276 567L212 553L212 547L276 533L772 293L772 101L61 477L61 628L772 1002L772 810L276 567Z"  horiz-adv-x="898" vert-adv-y="2048"  />

      
      <glyph glyph-name="uni3d" unicode="&#x3d;" d="M862 808L130 808L130 968L862 968L862 808M862 390L130 390L130 550L862 550L862 390Z"  horiz-adv-x="1003" vert-adv-y="2048"  />

      
      <glyph glyph-name="uni3e" unicode="&#x3e;" d="M114 814L114 1002L845 628L845 477L114 101L114 290L630 537L693 550L693 556L630 571L114 814Z"  horiz-adv-x="916" vert-adv-y="2048"  />

      
      <glyph glyph-name="uni3f" unicode="&#x3f;" d="M296 408Q297 541 324 599Q351 657 445 750Q516 840 553.50 912.50Q591 985 591 1083Q591 1193 545.50 1254.50Q500 1316 416 1316Q346 1316 296 1259.50Q246 1203 246 1103L51 1103L49 1109Q46 1282 149.50 1379.50Q253 1477 416 1477Q593 1477 693.50 1372Q794 1267 794 1086Q794 956 733.50 850Q673 744 573 641Q524 590 511.50 543.50Q499 497 499 408L296 408M503 0L295 0L295 198L503 198L503 0Z"  horiz-adv-x="857" vert-adv-y="2048"  />

      
      <glyph glyph-name="uni40" unicode="&#x40;" d="M1542 509Q1534 293 1432.50 136Q1331-21 1131-21Q1062-21 1013 24Q964 69 945 151Q902 65 841 22.50Q780-20 699-20Q580-20 516.50 100Q453 220 469 416Q490 671 594 825.50Q698 980 846 980Q942 980 1000.50 953.50Q1059 927 1129 873L1126 870L1131 870L1085 293Q1078 178 1102 135.50Q1126 93 1165 93Q1273 93 1337.50 210Q1402 327 1410 509Q1425 885 1285.50 1095Q1146 1305 852 1305Q580 1305 413.50 1078Q247 851 235 478Q219 108 367.50-112.50Q516-333 793-333Q870-333 950-312Q1030-291 1086-257L1118-364Q1059-406 967.50-429.50Q876-453 789-453Q446-453 259.50-203.50Q73 46 89 478Q105 903 312 1162.50Q519 1422 856 1422Q1196 1422 1376 1177Q1556 932 1542 509M637 416Q627 274 655.50 194.50Q684 115 748 115Q804 115 850 146Q896 177 933 258Q933 265 933 272.50Q933 280 935 293L977 829Q953 840 928 846.50Q903 853 877 853Q771 853 712.50 744Q654 635 637 416Z"  horiz-adv-x="1635" vert-adv-y="2048"  />

      
      <glyph glyph-name="uni41" unicode="&#x41;" d="M803 368L339 368L233 0L27 0L475 1456L671 1456L1115 0L909 0L803 368M386 529L757 529L575 1165L569 1165L386 529Z"  horiz-adv-x="1137" vert-adv-y="2048"  />

      
      <glyph glyph-name="uni42" unicode="&#x42;" d="M141 0L141 1456L547 1456Q753 1456 868.50 1358Q984 1260 984 1064Q984 960 931.50 880.50Q879 801 786 764Q904 738 967.50 640.50Q1031 543 1031 412Q1031 211 917.50 105.50Q804 0 604 0L141 0M344 679L344 154L604 154Q712 154 770.50 220.50Q829 287 829 411Q829 534 779 606.50Q729 679 625 679L344 679M344 825L567 825Q667 825 724 885.50Q781 946 781 1060Q781 1180 721.50 1240Q662 1300 547 1300L344 1300L344 825Z"  horiz-adv-x="1122" vert-adv-y="2048"  />

      
      <glyph glyph-name="uni43" unicode="&#x43;" d="M1002 442L1005 436Q1004 218 889 98.50Q774-21 564-21Q350-21 222 123Q94 267 94 525L94 929Q94 1187 220.50 1332Q347 1477 558 1477Q772 1477 887 1360Q1002 1243 1005 1018L1002 1012L810 1012Q807 1171 747 1246Q687 1321 558 1321Q433 1321 364 1220Q295 1119 295 932L295 525Q295 335 365.50 234Q436 133 564 133Q690 133 748.50 206.50Q807 280 809 442L1002 442Z"  horiz-adv-x="1084" vert-adv-y="2048"  />

      
      <glyph glyph-name="uni44" unicode="&#x44;" d="M141 0L141 1456L541 1456Q773 1456 919.50 1281Q1066 1106 1066 831L1066 624Q1066 348 919.50 174Q773 0 541 0L141 0M344 1300L344 154L534 154Q687 154 775.50 285Q864 416 864 624L864 833Q864 1039 775.50 1169.50Q687 1300 534 1300L344 1300Z"  horiz-adv-x="1154" vert-adv-y="2048"  />

      
      <glyph glyph-name="uni45" unicode="&#x45;" d="M884 676L344 676L344 154L970 154L970 0L141 0L141 1456L964 1456L964 1300L344 1300L344 831L884 831L884 676Z"  horiz-adv-x="1018" vert-adv-y="2048"  />

      
      <glyph glyph-name="uni46" unicode="&#x46;" d="M885 647L344 647L344 0L141 0L141 1456L972 1456L972 1300L344 1300L344 802L885 802L885 647Z"  horiz-adv-x="1020" vert-adv-y="2048"  />

      
      <glyph glyph-name="uni47" unicode="&#x47;" d="M1061 207Q1011 119 898.50 49Q786-21 611-21Q382-21 242 118Q102 257 102 514L102 946Q102 1199 235 1338Q368 1477 588 1477Q811 1477 929 1364.50Q1047 1252 1055 1049L1053 1043L861 1043Q856 1179 789.50 1250Q723 1321 591 1321Q458 1321 381 1225.50Q304 1130 304 948L304 514Q304 328 386.50 230.50Q469 133 611 133Q715 133 772.50 168.50Q830 204 858 259L858 590L609 590L609 737L1061 737L1061 207Z"  horiz-adv-x="1198" vert-adv-y="2048"  />

      
      <glyph glyph-name="uni48" unicode="&#x48;" d="M1104 0L902 0L902 642L344 642L344 0L141 0L141 1456L344 1456L344 797L902 797L902 1456L1104 1456L1104 0Z"  horiz-adv-x="1246" vert-adv-y="2048"  />

      
      <glyph glyph-name="uni49" unicode="&#x49;" d="M357 0L155 0L155 1456L357 1456L357 0Z"  horiz-adv-x="513" vert-adv-y="2048"  />

      
      <glyph glyph-name="uni4a" unicode="&#x4a;" d="M651 1456L853 1456L853 417Q853 216 743 97.50Q633-21 461-21Q276-21 167.50 86.50Q59 194 63 402L66 408L261 408Q261 270 314.50 201.50Q368 133 461 133Q543 133 597 210Q651 287 651 417L651 1456Z"  horiz-adv-x="989" vert-adv-y="2048"  />

      
      <glyph glyph-name="uni4b" unicode="&#x4b;" d="M483 653L344 653L344 0L141 0L141 1456L344 1456L344 816L465 816L850 1456L1092 1456L634 765L1127 0L879 0L483 653Z"  horiz-adv-x="1131" vert-adv-y="2048"  />

      
      <glyph glyph-name="uni4c" unicode="&#x4c;" d="M344 154L912 154L912 0L141 0L141 1456L344 1456L344 154Z"  horiz-adv-x="951" vert-adv-y="2048"  />

      
      <glyph glyph-name="uni4d" unicode="&#x4d;" d="M397 1456L737 268L743 268L1084 1456L1346 1456L1346 0L1145 0L1145 559L1163 1119L1157 1120L807 0L673 0L324 1119L318 1118L337 559L337 0L136 0L136 1456L397 1456Z"  horiz-adv-x="1483" vert-adv-y="2048"  />

      
      <glyph glyph-name="uni4e" unicode="&#x4e;" d="M1104 0L902 0L350 1083L344 1081L344 0L141 0L141 1456L344 1456L896 376L902 378L902 1456L1104 1456L1104 0Z"  horiz-adv-x="1247" vert-adv-y="2048"  />

      
      <glyph glyph-name="uni4f" unicode="&#x4f;" d="M1068 527Q1068 268 934 123.50Q800-21 575-21Q353-21 222 123.50Q91 268 91 527L91 927Q91 1185 222.50 1331Q354 1477 575 1477Q799 1477 933.50 1331Q1068 1185 1068 927L1068 527M866 930Q866 1120 790 1218.50Q714 1317 575 1317Q438 1317 365 1218.50Q292 1120 292 930L292 527Q292 335 365.50 236Q439 137 575 137Q715 137 790.50 235.50Q866 334 866 527L866 930Z"  horiz-adv-x="1160" vert-adv-y="2048"  />

      
      <glyph glyph-name="uni50" unicode="&#x50;" d="M344 574L344 0L141 0L141 1456L619 1456Q823 1456 939 1334.50Q1055 1213 1055 1015Q1055 816 939 695Q823 574 619 574L344 574M344 730L619 730Q734 730 793 810.50Q852 891 852 1013Q852 1137 793.50 1218.50Q735 1300 619 1300L344 1300L344 730Z"  horiz-adv-x="1132" vert-adv-y="2048"  />

      
      <glyph glyph-name="uni51" unicode="&#x51;" d="M1070 527Q1070 398 1035 296Q1000 194 936 124L1156-110L1024-221L798 24Q748 1 692.50-10Q637-21 577-21Q355-21 224 123.50Q93 268 93 527L93 927Q93 1185 224.50 1331Q356 1477 577 1477Q801 1477 935.50 1331Q1070 1185 1070 927L1070 527M868 930Q868 1120 792 1218.50Q716 1317 577 1317Q440 1317 367 1218.50Q294 1120 294 930L294 527Q294 335 367.50 236Q441 137 577 137Q717 137 792.50 235.50Q868 334 868 527L868 930Z"  horiz-adv-x="1212" vert-adv-y="2048"  />

      
      <glyph glyph-name="uni52" unicode="&#x52;" d="M344 627L344 0L141 0L141 1455L594 1455Q801 1455 914 1348Q1027 1241 1027 1041Q1027 927 974.50 842Q922 757 823 709Q932 672 980.50 583.50Q1029 495 1029 365L1029 238Q1029 171 1042.50 113.50Q1056 56 1089 23L1089 0L880 0Q846 33 836.50 99.50Q827 166 827 240L827 363Q827 485 771.50 556Q716 627 619 627L344 627M344 782L584 782Q707 782 765.50 848.50Q824 915 824 1037Q824 1162 767 1231Q710 1300 594 1300L344 1300L344 782Z"  horiz-adv-x="1162" vert-adv-y="2048"  />

      
      <glyph glyph-name="uni53" unicode="&#x53;" d="M807 366Q807 469 749 535Q691 601 546 651Q338 714 227 815.50Q116 917 116 1084Q116 1256 239.50 1366.50Q363 1477 557 1477Q759 1477 882.50 1349.50Q1006 1222 1002 1042L1000 1036L805 1036Q805 1163 739.50 1242.50Q674 1322 555 1322Q442 1322 380.50 1255.50Q319 1189 319 1086Q319 993 385 929.50Q451 866 603 814Q802 752 906 645Q1010 538 1010 368Q1010 189 887 84Q764-21 564-21Q369-21 223.50 94.50Q78 210 83 420L85 426L280 426Q280 276 358.50 204Q437 132 564 132Q678 132 742.50 195.50Q807 259 807 366Z"  horiz-adv-x="1087" vert-adv-y="2048"  />

      
      <glyph glyph-name="uni54" unicode="&#x54;" d="M984 1300L610 1300L610 0L407 0L407 1300L35 1300L35 1456L984 1456L984 1300Z"  horiz-adv-x="1018" vert-adv-y="2048"  />

      
      <glyph glyph-name="uni55" unicode="&#x55;" d="M1045 1456L1045 447Q1045 221 915.50 100Q786-21 577-21Q371-21 244 100Q117 221 117 447L117 1456L318 1456L318 447Q318 291 388 212Q458 133 577 133Q701 133 772 209Q843 285 843 447L843 1456L1045 1456Z"  horiz-adv-x="1160" vert-adv-y="2048"  />

      
      <glyph glyph-name="uni56" unicode="&#x56;" d="M536 322L556 237L562 237L583 321L880 1456L1095 1456L657 0L461 0L24 1456L240 1456L536 322Z"  horiz-adv-x="1119" vert-adv-y="2048"  />

      
      <glyph glyph-name="uni57" unicode="&#x57;" d="M1103 418L1109 418L1305 1456L1504 1456L1210 0L1023 0L776 1034L770 1034L521 0L334 0L41 1456L240 1456L437 418L443 418L691 1456L852 1456L1103 418Z"  horiz-adv-x="1551" vert-adv-y="2048"  />

      
      <glyph glyph-name="uni58" unicode="&#x58;" d="M553 888L559 888L819 1456L1058 1456L679 735L1074 0L831 0L562 582L556 582L288 0L48 0L436 735L58 1456L295 1456L553 888Z"  horiz-adv-x="1112" vert-adv-y="2048"  />

      
      <glyph glyph-name="uni59" unicode="&#x59;" d="M547 749L553 749L851 1456L1076 1456L648 524L648 0L446 0L446 537L23 1456L250 1456L547 749Z"  horiz-adv-x="1100" vert-adv-y="2048"  />

      
      <glyph glyph-name="uni5a" unicode="&#x5a;" d="M295 154L939 154L939 0L79 0L79 125L700 1301L83 1301L83 1456L919 1456L919 1335L295 154Z"  horiz-adv-x="1010" vert-adv-y="2048"  />

      
      <glyph glyph-name="uni5b" unicode="&#x5b;" d="M480 1519L332 1519L332-167L480-167L480-319L127-319L127 1672L480 1672L480 1519Z"  horiz-adv-x="503" vert-adv-y="2048"  />

      
      <glyph glyph-name="uni5c" unicode="&#x5c;" d="M25 1456L222 1456L737-125L540-125L25 1456Z"  horiz-adv-x="736" vert-adv-y="2048"  />

      
      <glyph glyph-name="uni5d" unicode="&#x5d;" d="M17 1672L372 1672L372-319L17-319L17-167L167-167L167 1519L17 1519L17 1672Z"  horiz-adv-x="503" vert-adv-y="2048"  />

      
      <glyph glyph-name="uni5e" unicode="&#x5e;" d="M224 729L53 729L306 1456L451 1456L703 729L533 729L390 1173L380 1221L374 1221L364 1173L224 729Z"  horiz-adv-x="758" vert-adv-y="2048"  />

      
      <glyph glyph-name="uni5f" unicode="&#x5f;" d="M782-152L10-152L10 0L782 0L782-152Z"  horiz-adv-x="793" vert-adv-y="2048"  />

      
      <glyph glyph-name="uni60" unicode="&#x60;" d="M478 1211L308 1211L80 1472L82 1477L309 1477L478 1211Z"  horiz-adv-x="591" vert-adv-y="2048"  />

      
      <glyph glyph-name="uni61" unicode="&#x61;" d="M667 0Q656 37 649 72.50Q642 108 640 144Q595 71 527 25Q459-21 376-21Q239-21 161.50 65.50Q84 152 84 297Q84 452 189.50 540.50Q295 629 486 629L637 629L637 740Q637 839 593 894.50Q549 950 468 950Q395 950 350.50 900Q306 850 306 775L113 776L110 782Q105 907 210 1004.50Q315 1102 481 1102Q641 1102 740.50 1007.50Q840 913 840 738L840 236Q840 173 847.50 114.50Q855 56 872 0L667 0M422 135Q493 135 551.50 177Q610 219 637 282L637 503L483 503Q390 503 338.50 443.50Q287 384 287 298Q287 225 322 180Q357 135 422 135Z"  horiz-adv-x="955" vert-adv-y="2048"  />

      
      <glyph glyph-name="uni62" unicode="&#x62;" d="M917 451Q917 236 824 107.50Q731-21 562-21Q477-21 413.50 16.50Q350 54 307 127L292 0L116 0L116 1560L319 1560L319 968Q361 1033 421 1067.50Q481 1102 560 1102Q731 1102 824 964.50Q917 827 917 598L917 451M715 598Q715 754 665.50 849Q616 944 509 944Q441 944 393.50 903.50Q346 863 319 795L319 275Q346 209 394 172.50Q442 136 511 136Q618 136 666.50 221Q715 306 715 451L715 598Z"  horiz-adv-x="995" vert-adv-y="2048"  />

      
      <glyph glyph-name="uni63" unicode="&#x63;" d="M492 133Q568 133 620 191.50Q672 250 672 348L854 348L856 342Q860 189 752.50 84Q645-21 492-21Q290-21 182.50 116Q75 253 75 465L75 614Q75 826 182.50 964Q290 1102 491 1102Q655 1102 757.50 992.50Q860 883 857 709L854 703L672 703Q672 811 622.50 878.50Q573 946 491 946Q375 946 326.50 852Q278 758 278 614L278 465Q278 319 326.50 226Q375 133 492 133Z"  horiz-adv-x="921" vert-adv-y="2048"  />

      
      <glyph glyph-name="uni64" unicode="&#x64;" d="M78 528Q78 787 171.50 944.50Q265 1102 435 1102Q511 1102 570.50 1068Q630 1034 673 970L673 1560L875 1560L875 0L698 0L683 124Q640 53 577.50 16Q515-21 434-21Q265-21 171.50 123Q78 267 78 507L78 528M281 507Q281 336 330 236Q379 136 485 136Q551 136 597.50 172Q644 208 673 273L673 799Q644 866 597.50 905Q551 944 487 944Q381 944 331 829Q281 714 281 528L281 507Z"  horiz-adv-x="995" vert-adv-y="2048"  />

      
      <glyph glyph-name="uni65" unicode="&#x65;" d="M507-21Q314-21 198 113Q82 247 82 456L82 614Q82 826 195.50 964Q309 1102 484 1102Q668 1102 767 976.50Q866 851 866 639L866 499L284 499L284 456Q284 316 345.50 224.50Q407 133 520 133Q604 133 664 159.50Q724 186 778 237L842 111Q791 53 705 16Q619-21 507-21M484 946Q396 946 343 860.50Q290 775 284 644L665 644L665 685Q665 800 619 873Q573 946 484 946Z"  horiz-adv-x="930" vert-adv-y="2048"  />

      
      <glyph glyph-name="uni66" unicode="&#x66;" d="M187 0L187 937L47 937L47 1082L187 1082L187 1221Q187 1393 269.50 1487Q352 1581 501 1581Q530 1581 560.50 1575.50Q591 1570 629 1560L609 1411Q592 1416 571 1419Q550 1422 526 1422Q459 1422 424.50 1370Q390 1318 390 1221L390 1082L579 1082L579 937L390 937L390 0L187 0Z"  horiz-adv-x="623" vert-adv-y="2048"  />

      
      <glyph glyph-name="uni67" unicode="&#x67;" d="M78 584Q78 817 173.50 959.50Q269 1102 439 1102Q521 1102 583 1063.50Q645 1025 689 952L704 1082L879 1082L879 5Q879-203 768.50-320Q658-437 460-437Q392-437 314.50-416Q237-395 176-359L219-207Q270-238 331-255.50Q392-273 458-273Q569-273 622.50-202Q676-131 676 6L676 104Q633 42 573.50 10.50Q514-21 437-21Q268-21 173 108.50Q78 238 78 451L78 584M281 451Q281 307 331 221.50Q381 136 488 136Q554 136 600.50 170Q647 204 676 266L676 805Q646 869 600 906.50Q554 944 490 944Q384 944 332.50 844Q281 744 281 584L281 451Z"  horiz-adv-x="994" vert-adv-y="2048"  />

      
      <glyph glyph-name="uni68" unicode="&#x68;" d="M316 937Q361 1015 427 1058.50Q493 1102 574 1102Q720 1102 801 994Q882 886 882 662L882 0L679 0L679 664Q679 813 635.50 878.50Q592 944 506 944Q444 944 395.50 908.50Q347 873 316 811L316 0L113 0L113 1560L316 1560L316 937Z"  horiz-adv-x="995" vert-adv-y="2048"  />

      
      <glyph glyph-name="uni69" unicode="&#x69;" d="M332 0L129 0L129 1082L332 1082L332 0M332 1366L129 1366L129 1560L332 1560L332 1366Z"  horiz-adv-x="462" vert-adv-y="2048"  />

      
      <glyph glyph-name="uni6a" unicode="&#x6a;" d="M340 1082L340-74Q340-248 261.50-342.50Q183-437 42-437Q12-437-12-432.50Q-36-428-64-419L-53-264Q-37-270-16.50-274Q4-278 22-278Q75-278 106-227.50Q137-177 137-74L137 1082L340 1082M340 1366L137 1366L137 1560L340 1560L340 1366Z"  horiz-adv-x="467" vert-adv-y="2048"  />

      
      <glyph glyph-name="uni6b" unicode="&#x6b;" d="M405 496L319 496L319 0L117 0L117 1560L319 1560L319 651L402 651L641 1082L878 1082L564 594L923 0L687 0L405 496Z"  horiz-adv-x="922" vert-adv-y="2048"  />

      
      <glyph glyph-name="uni6c" unicode="&#x6c;" d="M332 0L129 0L129 1560L332 1560L332 0Z"  horiz-adv-x="462" vert-adv-y="2048"  />

      
      <glyph glyph-name="uni6d" unicode="&#x6d;" d="M301 1082L312 935Q356 1015 424 1058.50Q492 1102 583 1102Q672 1102 736 1052.50Q800 1003 833 902Q875 996 945 1049Q1015 1102 1111 1102Q1249 1102 1328.50 988.50Q1408 875 1408 643L1408 0L1205 0L1205 644Q1205 810 1164 877Q1123 944 1043 944Q974 944 927.50 891.50Q881 839 860 752Q859 760 861 726.50Q863 693 863 678L863 0L661 0L661 644Q661 805 619 874.50Q577 944 497 944Q433 944 388 908.50Q343 873 318 810L318 0L116 0L116 1082L301 1082Z"  horiz-adv-x="1525" vert-adv-y="2048"  />

      
      <glyph glyph-name="uni6e" unicode="&#x6e;" d="M300 1082L311 922Q356 1007 425 1054.50Q494 1102 581 1102Q723 1102 802 997Q881 892 881 671L881 0L678 0L678 669Q678 820 635 882Q592 944 505 944Q443 944 395 905.50Q347 867 317 801L317 0L114 0L114 1082L300 1082Z"  horiz-adv-x="995" vert-adv-y="2048"  />

      
      <glyph glyph-name="uni6f" unicode="&#x6f;" d="M76 609Q76 824 188.50 963Q301 1102 497 1102Q692 1102 805 963.50Q918 825 918 609L918 471Q918 254 805.50 116.50Q693-21 498-21Q301-21 188.50 116.50Q76 254 76 471L76 609M279 471Q279 323 333 228Q387 133 498 133Q606 133 660.50 228Q715 323 715 471L715 609Q715 755 660.50 850.50Q606 946 497 946Q387 946 333 851Q279 756 279 609L279 471Z"  horiz-adv-x="995" vert-adv-y="2048"  />

      
      <glyph glyph-name="uni70" unicode="&#x70;" d="M916 451Q916 237 822 108Q728-21 561-21Q482-21 422 10Q362 41 319 101L319-416L116-416L116 1082L297 1082L310 958Q353 1027 415 1064.50Q477 1102 559 1102Q728 1102 822 960Q916 818 916 584L916 451M713 584Q713 743 660.50 843.50Q608 944 504 944Q439 944 393 907Q347 870 319 806L319 259Q346 198 392 165.50Q438 133 505 133Q610 133 661.50 220.50Q713 308 713 451L713 584Z"  horiz-adv-x="995" vert-adv-y="2048"  />

      
      <glyph glyph-name="uni71" unicode="&#x71;" d="M78 584Q78 818 172 960Q266 1102 435 1102Q514 1102 574.50 1066Q635 1030 679 962L694 1082L870 1082L870-416L667-416L667 97Q624 39 566 9Q508-21 434-21Q265-21 171.50 108Q78 237 78 451L78 584M281 451Q281 307 330 220Q379 133 485 133Q548 133 593 165Q638 197 667 256L667 817Q639 877 594 911.50Q549 946 487 946Q381 946 331 845.50Q281 745 281 584L281 451Z"  horiz-adv-x="995" vert-adv-y="2048"  />

      
      <glyph glyph-name="uni72" unicode="&#x72;" d="M582 911L487 916Q424 916 382.50 878Q341 840 319 771L319 0L116 0L116 1082L301 1082L316 919Q350 1005 405 1053.50Q460 1102 532 1102Q552 1102 573 1098.50Q594 1095 606 1090L582 911Z"  horiz-adv-x="633" vert-adv-y="2048"  />

      
      <glyph glyph-name="uni73" unicode="&#x73;" d="M620 271Q620 334 578.50 377.50Q537 421 422 473Q255 538 174.50 611.50Q94 685 94 802Q94 927 192.50 1014.50Q291 1102 451 1102Q618 1102 717 1007.50Q816 913 812 772L810 766L615 766Q615 843 571.50 898.50Q528 954 451 954Q375 954 332.50 911Q290 868 290 810Q290 748 326.50 712Q363 676 484 618Q654 557 736.50 479.50Q819 402 819 281Q819 147 717 63Q615-21 449-21Q270-21 167 80.50Q64 182 69 318L71 324L260 324Q264 219 318 172.50Q372 126 452 126Q531 126 575.50 166.50Q620 207 620 271Z"  horiz-adv-x="891" vert-adv-y="2048"  />

      
      <glyph glyph-name="uni74" unicode="&#x74;" d="M375 1351L375 1082L544 1082L544 937L375 937L375 293Q375 209 400 173.50Q425 138 465 138Q489 138 509.50 141Q530 144 558 150L579 10Q545-4 502.50-12.50Q460-21 415-21Q300-21 236.50 54.50Q173 130 173 293L173 937L32 937L32 1082L173 1082L173 1351L375 1351Z"  horiz-adv-x="628" vert-adv-y="2048"  />

      
      <glyph glyph-name="uni75" unicode="&#x75;" d="M687 145Q644 65 577 22Q510-21 423-21Q276-21 194 92Q112 205 112 443L112 1082L314 1082L314 441Q314 275 353.50 205.50Q393 136 472 136Q547 136 597.50 171Q648 206 678 271L678 1082L881 1082L881 0L700 0L687 145Z"  horiz-adv-x="995" vert-adv-y="2048"  />

      
      <glyph glyph-name="uni76" unicode="&#x76;" d="M430 325L447 241L453 241L470 325L654 1082L863 1082L539 0L360 0L34 1082L244 1082L430 325Z"  horiz-adv-x="892" vert-adv-y="2048"  />

      
      <glyph glyph-name="uni77" unicode="&#x77;" d="M920 351L926 351L1069 1082L1263 1082L1015 0L848 0L654 719L648 719L457 0L289 0L41 1082L235 1082L381 357L387 357L579 1082L725 1082L920 351Z"  horiz-adv-x="1308" vert-adv-y="2048"  />

      
      <glyph glyph-name="uni78" unicode="&#x78;" d="M440 687L446 687L616 1082L848 1082L561 548L858 0L627 0L450 408L444 408L266 0L35 0L331 548L44 1082L274 1082L440 687Z"  horiz-adv-x="892" vert-adv-y="2048"  />

      
      <glyph glyph-name="uni79" unicode="&#x79;" d="M420 373L435 302L441 302L649 1082L870 1082L491-168Q453-280 388-358.50Q323-437 201-437Q176-437 147.50-431.50Q119-426 91-419L113-269Q124-271 143-273Q162-275 173-275Q232-275 266.50-224.50Q301-174 320-105L356 5L22 1082L242 1082L420 373Z"  horiz-adv-x="892" vert-adv-y="2048"  />

      
      <glyph glyph-name="uni7a" unicode="&#x7a;" d="M298 154L797 154L797 0L76 0L76 128L550 925L86 925L86 1082L776 1082L776 956L298 154Z"  horiz-adv-x="865" vert-adv-y="2048"  />

      
      <glyph glyph-name="uni7b" unicode="&#x7b;" d="M522-379Q358-324 288.50-204.50Q219-85 219 85L219 297Q219 409 178.50 472Q138 535 55 535L55 681Q138 681 178.50 742.50Q219 804 219 917L219 1132Q219 1303 288.50 1422.50Q358 1542 522 1597L561 1483Q478 1447 443.50 1356.50Q409 1266 409 1132L409 917Q409 811 369 730.50Q329 650 248 608Q329 564 369 483Q409 402 409 297L409 85Q409-49 443.50-138Q478-227 562-264L522-379Z"  horiz-adv-x="594" vert-adv-y="2048"  />

      
      <glyph glyph-name="uni7c" unicode="&#x7c;" d="M292-270L155-270L155 1456L292 1456L292-270Z"  horiz-adv-x="446" vert-adv-y="2048"  />

      
      <glyph glyph-name="uni7d" unicode="&#x7d;" d="M30-264Q113-227 149-137.50Q185-48 185 85L185 297Q185 405 226 485.50Q267 566 352 607Q267 647 226 727.50Q185 808 185 917L185 1132Q185 1265 149.50 1355.50Q114 1446 31 1483L71 1597Q234 1542 304 1422.50Q374 1303 374 1132L374 917Q374 804 413.50 742.50Q453 681 538 681L538 535Q454 535 414 472Q374 409 374 297L374 85Q374-85 304-204.50Q234-324 71-379L30-264Z"  horiz-adv-x="594" vert-adv-y="2048"  />

      
      <glyph glyph-name="uni7e" unicode="&#x7e;" d="M1057 745Q1057 603 983 502.50Q909 402 798 402Q725 402 663.50 436Q602 470 532 544Q485 594 448.50 618Q412 642 371 642Q320 642 285 586Q250 530 250 446L108 466Q108 607 180 705Q252 803 365 803Q437 803 500.50 767.50Q564 732 633 662Q677 610 713.50 587Q750 564 791 564Q841 564 877.50 622Q914 680 914 765L1057 745Z"  horiz-adv-x="1165" vert-adv-y="2048"  />

      
      <glyph glyph-name="unia0" unicode="&#xa0;" d="Z"  horiz-adv-x="446" vert-adv-y="2048"  />

      
      <glyph glyph-name="unia1" unicode="&#xa1;" d="M333-374L130-374L130 596L333 596L333-374M334 869L129 869L129 1082L334 1082L334 869Z"  horiz-adv-x="473" vert-adv-y="2048"  />

      
      <glyph glyph-name="unia2" unicode="&#xa2;" d="M514 133Q590 133 642 191.50Q694 250 694 348L877 348L880 343Q882 210 798.50 110.50Q715 11 588-14L588-245L425-245L425-13Q265 17 181 148Q97 279 97 465L97 614Q97 800 181 931.50Q265 1063 425 1094L425 1318L588 1318L588 1095Q722 1070 803 964.50Q884 859 884 703L694 703Q694 811 644.50 878.50Q595 946 513 946Q397 946 348.50 852Q300 758 300 614L300 465Q300 319 348.50 226Q397 133 514 133Z"  horiz-adv-x="991" vert-adv-y="2048"  />

      
      <glyph glyph-name="unia3" unicode="&#xa3;" d="M422 618L427 477Q427 384 403 299.50Q379 215 334 154L963 154L963 0L131 0L131 154L138 154Q180 167 201 267Q222 367 222 473L217 618L77 618L77 773L212 773L204 1036Q204 1241 302 1359Q400 1477 565 1477Q740 1477 835.50 1370Q931 1263 928 1088L925 1082L730 1082Q730 1205 684 1263Q638 1321 565 1321Q492 1321 449.50 1246Q407 1171 407 1036L416 773L744 773L744 618L422 618Z"  horiz-adv-x="1034" vert-adv-y="2048"  />

      
      <glyph glyph-name="unia4" unicode="&#xa4;" d="M972 112Q904 48 821 14Q738-20 648-20Q557-20 474.50 13.50Q392 47 324 110L206-26L90 92L219 239Q171 317 145.50 411Q120 505 120 608Q120 715 147 811Q174 907 226 987L90 1144L206 1264L335 1115Q402 1172 481.50 1203Q561 1234 648 1234Q734 1234 813.50 1202.50Q893 1171 961 1113L1093 1265L1209 1144L1070 984Q1119 903 1146 807.50Q1173 712 1173 608Q1173 506 1148 413.50Q1123 321 1077 243L1209 92L1093-27L972 112M273 608Q273 410 382.50 271.50Q492 133 648 133Q802 133 911 271.50Q1020 410 1020 608Q1020 804 911 942Q802 1080 648 1080Q492 1080 382.50 942Q273 804 273 608Z"  horiz-adv-x="1290" vert-adv-y="2048"  />

      
      <glyph glyph-name="unia5" unicode="&#xa5;" d="M530 824L536 824L808 1456L1034 1456L684 726L931 726L931 571L631 571L631 434L931 434L931 279L631 279L631 0L428 0L428 279L124 279L124 434L428 434L428 571L124 571L124 726L380 726L31 1456L257 1456L530 824Z"  horiz-adv-x="1070" vert-adv-y="2048"  />

      
      <glyph glyph-name="unia6" unicode="&#xa6;" d="M123-270L123 514L313 514L313-270L123-270M313 698L123 698L123 1456L313 1456L313 698Z"  horiz-adv-x="442" vert-adv-y="2048"  />

      
      <glyph glyph-name="unia7" unicode="&#xa7;" d="M991 444Q991 351 947.50 282Q904 213 825 174Q893 123 927.50 53.50Q962-16 962-118Q962-290 846.50-387Q731-484 536-484Q345-484 216-382.50Q87-281 92-62L94-56L288-54Q288-198 360.50-263.50Q433-329 536-329Q640-329 699.50-270.50Q759-212 759-120Q759-30 702.50 20.50Q646 71 488 129Q283 193 185.50 283.50Q88 374 88 546Q88 637 130 706.50Q172 776 251 817Q184 867 151 937.50Q118 1008 118 1109Q118 1275 234.50 1376Q351 1477 545 1477Q746 1477 858.50 1365.50Q971 1254 967 1053L965 1047L771 1047Q771 1165 711 1243Q651 1321 545 1321Q433 1321 377 1262Q321 1203 321 1111Q321 1014 373.50 963.50Q426 913 590 857Q799 791 895 702.50Q991 614 991 444M516 697Q480 707 449.50 717.50Q419 728 393 740Q341 718 316 670Q291 622 291 556Q291 455 343.50 403.50Q396 352 562 292Q591 282 620 271.50Q649 261 678 251Q731 273 761 321Q791 369 791 434Q791 526 733 580.50Q675 635 516 697Z"  horiz-adv-x="1091" vert-adv-y="2048"  />

      
      <glyph glyph-name="unia8" unicode="&#xa8;" d="M787 1271L580 1271L580 1456L787 1456L787 1271M359 1271L151 1271L151 1456L359 1456L359 1271Z"  horiz-adv-x="940" vert-adv-y="2048"  />

      
      <glyph glyph-name="unia9" unicode="&#xa9;" d="M989 596L992 590Q995 440 918 361Q841 282 704 282Q563 282 480 388.50Q397 495 397 669L397 788Q397 961 480 1068Q563 1175 704 1175Q841 1175 918.50 1095.50Q996 1016 993 867L990 861L869 861Q869 963 827 1011Q785 1059 704 1059Q618 1059 571.50 984Q525 909 525 789L525 669Q525 546 571.50 471.50Q618 397 704 397Q786 397 827 444Q868 491 868 596L989 596M190 729Q190 458 343.50 272Q497 86 715 86Q933 86 1086.50 272Q1240 458 1240 729Q1240 997 1086.50 1182Q933 1367 715 1367Q496 1367 343 1182Q190 997 190 729M88 729Q88 1044 270.50 1260Q453 1476 715 1476Q976 1476 1159.50 1260Q1343 1044 1343 729Q1343 413 1159 196Q975-21 715-21Q454-21 271 196Q88 413 88 729Z"  horiz-adv-x="1440" vert-adv-y="2048"  />

      
      <glyph glyph-name="uniaa" unicode="&#xaa;" d="M525 705Q518 727 513.50 752Q509 777 506 805Q479 755 431.50 723Q384 691 318 691Q218 691 162.50 752.50Q107 814 107 919Q107 1028 178 1087Q249 1146 386 1146L504 1146L504 1202Q504 1273 478.50 1312Q453 1351 403 1351Q345 1351 313 1319.50Q281 1288 281 1231L148 1243L147 1249Q142 1347 213.50 1412Q285 1477 403 1477Q515 1477 581 1406Q647 1335 647 1201L647 886Q647 835 652 791Q657 747 669 705L525 705M352 813Q397 813 443 846Q489 879 504 919L504 1043L387 1043Q321 1043 285 1007.50Q249 972 249 923Q249 870 274.50 841.50Q300 813 352 813Z"  horiz-adv-x="788" vert-adv-y="2048"  />

      
      <glyph glyph-name="uniab" unicode="&#xab;" d="M253 516L463 122L324 122L81 507L81 526L324 910L463 910L253 516M559 516L769 122L630 122L387 507L387 526L630 910L769 910L559 516Z"  horiz-adv-x="857" vert-adv-y="2048"  />

      
      <glyph glyph-name="uniac" unicode="&#xac;" d="M819 378L657 378L657 649L115 649L115 792L819 792L819 378Z"  horiz-adv-x="972" vert-adv-y="2048"  />

      
      <glyph glyph-name="uniad" unicode="&#xad;" d="M519 542L73 542L73 697L519 697L519 542Z"  horiz-adv-x="598" vert-adv-y="2048"  />

      
      <glyph glyph-name="uniae" unicode="&#xae;" d="M87 729Q87 1044 270 1260Q453 1476 715 1476Q976 1476 1159 1260Q1342 1044 1342 729Q1342 413 1158.50 196Q975-21 715-21Q453-21 270 196Q87 413 87 729M189 729Q189 458 342.50 272Q496 86 715 86Q932 86 1085.50 272Q1239 458 1239 729Q1239 997 1085.50 1182Q932 1367 715 1367Q496 1367 342.50 1182Q189 997 189 729M585 660L585 316L459 316L459 1166L704 1166Q837 1166 913 1100.50Q989 1035 989 911Q989 848 959.50 801.50Q930 755 874 724Q932 697 958.50 643.50Q985 590 985 515L985 459Q985 417 988 385Q991 353 999 332L999 316L870 316Q862 337 860.50 377.50Q859 418 859 460L859 514Q859 590 828.50 625Q798 660 729 660L585 660M585 776L716 776Q778 776 821 811Q864 846 864 908Q864 985 828 1018Q792 1051 704 1051L585 1051L585 776Z"  horiz-adv-x="1441" vert-adv-y="2048"  />

      
      <glyph glyph-name="uniaf" unicode="&#xaf;" d="M760 1324L125 1324L125 1456L760 1456L760 1324Z"  horiz-adv-x="879" vert-adv-y="2048"  />

      
      <glyph glyph-name="unib0" unicode="&#xb0;" d="M122 1216Q122 1322 190.50 1399.50Q259 1477 355 1477Q448 1477 516 1399.50Q584 1322 584 1216Q584 1108 516.50 1033.50Q449 959 355 959Q259 959 190.50 1033.50Q122 1108 122 1216M239 1216Q239 1157 272.50 1117.50Q306 1078 355 1078Q402 1078 434.50 1117Q467 1156 467 1216Q467 1276 434.50 1316.50Q402 1357 355 1357Q306 1357 272.50 1316.50Q239 1276 239 1216Z"  horiz-adv-x="706" vert-adv-y="2048"  />

      
      <glyph glyph-name="unib1" unicode="&#xb1;" d="M592 873L900 873L900 716L592 716L592 302L410 302L410 716L90 716L90 873L410 873L410 1280L592 1280L592 873M829 21L123 21L123 176L829 176L829 21Z"  horiz-adv-x="986" vert-adv-y="2048"  />

      
      <glyph glyph-name="unib2" unicode="&#xb2;" d="M622 667L109 667L109 788L369 1055Q424 1115 441 1154Q458 1193 458 1238Q458 1291 435.50 1323.50Q413 1356 366 1356Q313 1356 285.50 1321Q258 1286 258 1230L108 1230L106 1236Q101 1336 173.50 1407.50Q246 1479 368 1479Q485 1479 550.50 1416Q616 1353 616 1237Q616 1159 572.50 1096.50Q529 1034 431 937L309 793L311 788L622 788L622 667Z"  horiz-adv-x="745" vert-adv-y="2048"  />

      
      <glyph glyph-name="unib3" unicode="&#xb3;" d="M360 1130Q416 1130 443 1160Q470 1190 470 1245Q470 1293 442.50 1324Q415 1355 361 1355Q313 1355 285.50 1327.50Q258 1300 258 1255L110 1255L108 1261Q102 1358 175.50 1418Q249 1478 359 1478Q483 1478 555.50 1418.50Q628 1359 628 1250Q628 1194 597.50 1148Q567 1102 514 1076Q574 1053 606.50 1005Q639 957 639 888Q639 778 563.50 716.50Q488 655 363 655Q247 655 169.50 714Q92 773 97 885L99 891L248 891Q248 839 278 807.50Q308 776 362 776Q417 776 449.50 807Q482 838 482 892Q482 956 451 986.50Q420 1017 360 1017L258 1017L258 1130L360 1130Z"  horiz-adv-x="747" vert-adv-y="2048"  />

      
      <glyph glyph-name="unib4" unicode="&#xb4;" d="M284 1478L510 1478L512 1473L274 1212L112 1212L284 1478Z"  horiz-adv-x="615" vert-adv-y="2048"  />

      
      <glyph glyph-name="unib5" unicode="&#xb5;" d="M334 1082L334 456Q334 271 377.50 202.50Q421 134 504 134Q579 134 626 170Q673 206 699 275L699 1082L901 1082L901 0L715 0L709 88Q671 35 619.50 7Q568-21 503-21Q450-21 408.50-6Q367 9 334 43L334-416L132-416L132 1082L334 1082Z"  horiz-adv-x="1042" vert-adv-y="2048"  />

      
      <glyph glyph-name="unib6" unicode="&#xb6;" d="M550 0L550 520L478 520Q281 520 171.50 649.50Q62 779 62 988Q62 1195 171.50 1325.50Q281 1456 478 1456L753 1456L753 0L550 0Z"  horiz-adv-x="896" vert-adv-y="2048"  />

      
      <glyph glyph-name="unib7" unicode="&#xb7;" d="M348 606L143 606L143 820L348 820L348 606Z"  horiz-adv-x="505" vert-adv-y="2048"  />

      
      <glyph glyph-name="unib8" unicode="&#xb8;" d="M276 2L266-56Q322-66 358.50-106.50Q395-147 395-228Q395-326 322.50-384Q250-442 117-442L111-329Q164-329 196.50-304Q229-279 229-228Q229-178 200-158.50Q171-139 100-132L126 2L276 2Z"  horiz-adv-x="464" vert-adv-y="2048"  />

      
      <glyph glyph-name="unib9" unicode="&#xb9;" d="M360 665L201 665L201 1331L92 1328L92 1454L360 1477L360 665Z"  horiz-adv-x="491" vert-adv-y="2048"  />

      
      <glyph glyph-name="uniba" unicode="&#xba;" d="M109 1142Q109 1290 188.50 1383.50Q268 1477 400 1477Q533 1477 612 1383.50Q691 1290 691 1142L691 1025Q691 876 612.50 783.50Q534 691 402 691Q268 691 188.50 783.50Q109 876 109 1025L109 1142M252 1025Q252 930 290 872Q328 814 402 814Q473 814 511 872Q549 930 549 1025L549 1142Q549 1234 510.50 1292.50Q472 1351 400 1351Q328 1351 290 1292.50Q252 1234 252 1142L252 1025Z"  horiz-adv-x="806" vert-adv-y="2048"  />

      
      <glyph glyph-name="unibb" unicode="&#xbb;" d="M224 946L467 560L467 541L224 155L85 155L294 550L85 946L224 946M541 946L784 560L784 541L541 155L402 155L611 550L402 946L541 946Z"  horiz-adv-x="857" vert-adv-y="2048"  />

      
      <glyph glyph-name="unibc" unicode="&#xbc;" d="M402 664L243 664L243 1330L134 1327L134 1453L402 1476L402 664M358 121L254 184L855 1322L959 1259L358 121M1155 277L1253 277L1253 155L1155 155L1155 0L998 0L998 155L647 155L639 250L997 801L1155 801L1155 277M804 277L998 277L998 598L992 599L981 580L804 277Z"  horiz-adv-x="1318" vert-adv-y="2048"  />

      
      <glyph glyph-name="unibd" unicode="&#xbd;" d="M362 121L258 184L859 1322L963 1259L362 121M395 664L236 664L236 1330L127 1327L127 1453L395 1476L395 664M1268 0L755 0L755 121L1015 388Q1070 448 1087 487Q1104 526 1104 571Q1104 624 1081.50 656.50Q1059 689 1012 689Q959 689 931.50 654Q904 619 904 563L754 563L752 569Q747 669 819.50 740.50Q892 812 1014 812Q1131 812 1196.50 749Q1262 686 1262 570Q1262 492 1218.50 429.50Q1175 367 1077 270L955 126L957 121L1268 121L1268 0Z"  horiz-adv-x="1383" vert-adv-y="2048"  />

      
      <glyph glyph-name="unibe" unicode="&#xbe;" d="M529 121L425 184L1026 1322L1130 1259L529 121M1315 277L1413 277L1413 155L1315 155L1315 0L1158 0L1158 155L807 155L799 250L1157 801L1315 801L1315 277M964 277L1158 277L1158 598L1152 599L1141 580L964 277M363 1131Q419 1131 446 1161Q473 1191 473 1246Q473 1294 445.50 1325Q418 1356 364 1356Q316 1356 288.50 1328.50Q261 1301 261 1256L113 1256L111 1262Q105 1359 178.50 1419Q252 1479 362 1479Q486 1479 558.50 1419.50Q631 1360 631 1251Q631 1195 600.50 1149Q570 1103 517 1077Q577 1054 609.50 1006Q642 958 642 889Q642 779 566.50 717.50Q491 656 366 656Q250 656 172.50 715Q95 774 100 886L102 892L251 892Q251 840 281 808.50Q311 777 365 777Q420 777 452.50 808Q485 839 485 893Q485 957 454 987.50Q423 1018 363 1018L261 1018L261 1131L363 1131Z"  horiz-adv-x="1485" vert-adv-y="2048"  />

      
      <glyph glyph-name="unibf" unicode="&#xbf;" d="M584 673Q582 539 555 481Q528 423 434 331Q362 239 325.50 167.50Q289 96 289 0Q289-110 334-171.50Q379-233 463-233Q533-233 583-177Q633-121 634-20L829-20L831-26Q833-199 729-296.50Q625-394 463-394Q286-394 186.50-289.50Q87-185 87-3Q87 125 146.50 231Q206 337 306 440Q354 490 367.50 536.50Q381 583 381 673L584 673M377 1082L585 1082L585 883L377 883L377 1082Z"  horiz-adv-x="879" vert-adv-y="2048"  />

      
      <glyph glyph-name="unic0" unicode="&#xc0;" d="M803 368L339 368L233 0L27 0L475 1456L671 1456L1115 0L909 0L803 368M386 529L757 529L575 1165L569 1165L386 529M689 1561L519 1561L291 1822L293 1827L520 1827L689 1561Z"  horiz-adv-x="1137" vert-adv-y="2048"  />

      
      <glyph glyph-name="unic1" unicode="&#xc1;" d="M803 368L339 368L233 0L27 0L475 1456L671 1456L1115 0L909 0L803 368M386 529L757 529L575 1165L569 1165L386 529M658 1824L884 1824L886 1819L648 1558L486 1558L658 1824Z"  horiz-adv-x="1137" vert-adv-y="2048"  />

      
      <glyph glyph-name="unic2" unicode="&#xc2;" d="M803 368L339 368L233 0L27 0L475 1456L671 1456L1115 0L909 0L803 368M386 529L757 529L575 1165L569 1165L386 529M875 1621L875 1599L711 1599L588 1750L466 1599L305 1599L305 1622L527 1854L649 1854L875 1621Z"  horiz-adv-x="1137" vert-adv-y="2048"  />

      
      <glyph glyph-name="unic3" unicode="&#xc3;" d="M803 368L339 368L233 0L27 0L475 1456L671 1456L1115 0L909 0L803 368M386 529L757 529L575 1165L569 1165L386 529M892 1838Q892 1746 842 1683Q792 1620 716 1620Q655 1620 585 1669Q515 1718 472 1718Q439 1718 416 1684.50Q393 1651 393 1602L282 1630Q282 1720 332 1785Q382 1850 458 1850Q506 1850 582 1800.50Q658 1751 702 1751Q735 1751 758.50 1785Q782 1819 782 1869L892 1838Z"  horiz-adv-x="1137" vert-adv-y="2048"  />

      
      <glyph glyph-name="unic4" unicode="&#xc4;" d="M803 368L339 368L233 0L27 0L475 1456L671 1456L1115 0L909 0L803 368M386 529L757 529L575 1165L569 1165L386 529M907 1617L700 1617L700 1802L907 1802L907 1617M479 1617L271 1617L271 1802L479 1802L479 1617Z"  horiz-adv-x="1137" vert-adv-y="2048"  />

      
      <glyph glyph-name="unic5" unicode="&#xc5;" d="M803 368L339 368L233 0L27 0L475 1456L671 1456L1115 0L909 0L803 368M386 529L757 529L575 1165L569 1165L386 529M408 1734Q408 1812 461 1865Q514 1918 589 1918Q663 1918 715 1865Q767 1812 767 1734Q767 1654 715.50 1603.50Q664 1553 589 1553Q513 1553 460.50 1604Q408 1655 408 1734M501 1734Q501 1693 526.50 1665.50Q552 1638 589 1638Q625 1638 649 1665Q673 1692 673 1734Q673 1777 649 1805Q625 1833 589 1833Q552 1833 526.50 1804.50Q501 1776 501 1734Z"  horiz-adv-x="1137" vert-adv-y="2048"  />

      
      <glyph glyph-name="unic6" unicode="&#xc6;" d="M1590 0L838 0L825 361L409 361L245 0L3 0L706 1456L1538 1456L1538 1299L994 1299L1011 832L1469 832L1469 677L1016 677L1034 155L1590 155L1590 0M487 531L819 531L795 1196L790 1197L487 531Z"  horiz-adv-x="1639" vert-adv-y="2048"  />

      
      <glyph glyph-name="unic7" unicode="&#xc7;" d="M1002 442L1005 436Q1004 218 889 98.50Q774-21 564-21Q350-21 222 123Q94 267 94 525L94 929Q94 1187 220.50 1332Q347 1477 558 1477Q772 1477 887 1360Q1002 1243 1005 1018L1002 1012L810 1012Q807 1171 747 1246Q687 1321 558 1321Q433 1321 364 1220Q295 1119 295 932L295 525Q295 335 365.50 234Q436 133 564 133Q690 133 748.50 206.50Q807 280 809 442L1002 442M635-3L625-61Q681-71 717.50-111.50Q754-152 754-233Q754-331 681.50-389Q609-447 476-447L470-334Q523-334 555.50-309Q588-284 588-233Q588-183 559-163.50Q530-144 459-137L485-3L635-3Z"  horiz-adv-x="1084" vert-adv-y="2048"  />

      
      <glyph glyph-name="unic8" unicode="&#xc8;" d="M884 676L344 676L344 154L970 154L970 0L141 0L141 1456L964 1456L964 1300L344 1300L344 831L884 831L884 676M629 1561L459 1561L231 1822L233 1827L460 1827L629 1561Z"  horiz-adv-x="1018" vert-adv-y="2048"  />

      
      <glyph glyph-name="unic9" unicode="&#xc9;" d="M884 676L344 676L344 154L970 154L970 0L141 0L141 1456L964 1456L964 1300L344 1300L344 831L884 831L884 676M598 1824L824 1824L826 1819L588 1558L426 1558L598 1824Z"  horiz-adv-x="1018" vert-adv-y="2048"  />

      
      <glyph glyph-name="unica" unicode="&#xca;" d="M884 676L344 676L344 154L970 154L970 0L141 0L141 1456L964 1456L964 1300L344 1300L344 831L884 831L884 676M815 1621L815 1599L651 1599L528 1750L406 1599L245 1599L245 1622L467 1854L589 1854L815 1621Z"  horiz-adv-x="1018" vert-adv-y="2048"  />

      
      <glyph glyph-name="unicb" unicode="&#xcb;" d="M884 676L344 676L344 154L970 154L970 0L141 0L141 1456L964 1456L964 1300L344 1300L344 831L884 831L884 676M847 1617L640 1617L640 1802L847 1802L847 1617M419 1617L211 1617L211 1802L419 1802L419 1617Z"  horiz-adv-x="1018" vert-adv-y="2048"  />

      
      <glyph glyph-name="unicc" unicode="&#xcc;" d="M357 0L155 0L155 1456L357 1456L357 0M359 1561L189 1561L-39 1822L-37 1827L190 1827L359 1561Z"  horiz-adv-x="513" vert-adv-y="2048"  />

      
      <glyph glyph-name="unicd" unicode="&#xcd;" d="M357 0L155 0L155 1456L357 1456L357 0M326 1824L552 1824L554 1819L316 1558L154 1558L326 1824Z"  horiz-adv-x="513" vert-adv-y="2048"  />

      
      <glyph glyph-name="unice" unicode="&#xce;" d="M357 0L155 0L155 1456L357 1456L357 0M545 1621L545 1599L381 1599L258 1750L136 1599L-25 1599L-25 1622L197 1854L319 1854L545 1621Z"  horiz-adv-x="513" vert-adv-y="2048"  />

      
      <glyph glyph-name="unicf" unicode="&#xcf;" d="M357 0L155 0L155 1456L357 1456L357 0M577 1617L370 1617L370 1802L577 1802L577 1617M149 1617L-59 1617L-59 1802L149 1802L149 1617Z"  horiz-adv-x="513" vert-adv-y="2048"  />

      
      <glyph glyph-name="unid0" unicode="&#xd0;" d="M171 0L171 670L44 670L44 811L171 811L171 1456L571 1456Q803 1456 949.50 1281Q1096 1106 1096 831L1096 624Q1096 348 949.50 174Q803 0 571 0L171 0M599 670L374 670L374 154L564 154Q717 154 805.50 285Q894 416 894 624L894 833Q894 1039 805.50 1169.50Q717 1300 564 1300L374 1300L374 811L599 811L599 670Z"  horiz-adv-x="1184" vert-adv-y="2048"  />

      
      <glyph glyph-name="unid1" unicode="&#xd1;" d="M1104 0L902 0L350 1083L344 1081L344 0L141 0L141 1456L344 1456L896 376L902 378L902 1456L1104 1456L1104 0M926 1838Q926 1746 876 1683Q826 1620 750 1620Q689 1620 619 1669Q549 1718 506 1718Q473 1718 450 1684.50Q427 1651 427 1602L316 1630Q316 1720 366 1785Q416 1850 492 1850Q540 1850 616 1800.50Q692 1751 736 1751Q769 1751 792.50 1785Q816 1819 816 1869L926 1838Z"  horiz-adv-x="1247" vert-adv-y="2048"  />

      
      <glyph glyph-name="unid2" unicode="&#xd2;" d="M1068 527Q1068 268 934 123.50Q800-21 575-21Q353-21 222 123.50Q91 268 91 527L91 927Q91 1185 222.50 1331Q354 1477 575 1477Q799 1477 933.50 1331Q1068 1185 1068 927L1068 527M866 930Q866 1120 790 1218.50Q714 1317 575 1317Q438 1317 365 1218.50Q292 1120 292 930L292 527Q292 335 365.50 236Q439 137 575 137Q715 137 790.50 235.50Q866 334 866 527L866 930M680 1582L510 1582L282 1843L284 1848L511 1848L680 1582Z"  horiz-adv-x="1160" vert-adv-y="2048"  />

      
      <glyph glyph-name="unid3" unicode="&#xd3;" d="M1068 527Q1068 268 934 123.50Q800-21 575-21Q353-21 222 123.50Q91 268 91 527L91 927Q91 1185 222.50 1331Q354 1477 575 1477Q799 1477 933.50 1331Q1068 1185 1068 927L1068 527M866 930Q866 1120 790 1218.50Q714 1317 575 1317Q438 1317 365 1218.50Q292 1120 292 930L292 527Q292 335 365.50 236Q439 137 575 137Q715 137 790.50 235.50Q866 334 866 527L866 930M649 1845L875 1845L877 1840L639 1579L477 1579L649 1845Z"  horiz-adv-x="1160" vert-adv-y="2048"  />

      
      <glyph glyph-name="unid4" unicode="&#xd4;" d="M1068 527Q1068 268 934 123.50Q800-21 575-21Q353-21 222 123.50Q91 268 91 527L91 927Q91 1185 222.50 1331Q354 1477 575 1477Q799 1477 933.50 1331Q1068 1185 1068 927L1068 527M866 930Q866 1120 790 1218.50Q714 1317 575 1317Q438 1317 365 1218.50Q292 1120 292 930L292 527Q292 335 365.50 236Q439 137 575 137Q715 137 790.50 235.50Q866 334 866 527L866 930M866 1642L866 1620L702 1620L579 1771L457 1620L296 1620L296 1643L518 1875L640 1875L866 1642Z"  horiz-adv-x="1160" vert-adv-y="2048"  />

      
      <glyph glyph-name="unid5" unicode="&#xd5;" d="M1068 527Q1068 268 934 123.50Q800-21 575-21Q353-21 222 123.50Q91 268 91 527L91 927Q91 1185 222.50 1331Q354 1477 575 1477Q799 1477 933.50 1331Q1068 1185 1068 927L1068 527M866 930Q866 1120 790 1218.50Q714 1317 575 1317Q438 1317 365 1218.50Q292 1120 292 930L292 527Q292 335 365.50 236Q439 137 575 137Q715 137 790.50 235.50Q866 334 866 527L866 930M883 1859Q883 1767 833 1704Q783 1641 707 1641Q646 1641 576 1690Q506 1739 463 1739Q430 1739 407 1705.50Q384 1672 384 1623L273 1651Q273 1741 323 1806Q373 1871 449 1871Q497 1871 573 1821.50Q649 1772 693 1772Q726 1772 749.50 1806Q773 1840 773 1890L883 1859Z"  horiz-adv-x="1160" vert-adv-y="2048"  />

      
      <glyph glyph-name="unid6" unicode="&#xd6;" d="M1068 527Q1068 268 934 123.50Q800-21 575-21Q353-21 222 123.50Q91 268 91 527L91 927Q91 1185 222.50 1331Q354 1477 575 1477Q799 1477 933.50 1331Q1068 1185 1068 927L1068 527M866 930Q866 1120 790 1218.50Q714 1317 575 1317Q438 1317 365 1218.50Q292 1120 292 930L292 527Q292 335 365.50 236Q439 137 575 137Q715 137 790.50 235.50Q866 334 866 527L866 930M898 1638L691 1638L691 1823L898 1823L898 1638M470 1638L262 1638L262 1823L470 1823L470 1638Z"  horiz-adv-x="1160" vert-adv-y="2048"  />

      
      <glyph glyph-name="unid7" unicode="&#xd7;" d="M76 344L369 683L78 1019L203 1138L483 814L764 1138L889 1019L597 683L892 344L767 225L483 551L200 225L76 344Z"  horiz-adv-x="977" vert-adv-y="2048"  />

      
      <glyph glyph-name="unid8" unicode="&#xd8;" d="M1070 527Q1070 268 936 123.50Q802-21 577-21Q508-21 447.50-7Q387 7 336 35L273-90L153-90L248 99Q173 169 133 277.50Q93 386 93 527L93 927Q93 1185 224.50 1331Q356 1477 577 1477Q668 1477 747 1451Q826 1425 888 1376L956 1512L1077 1512L967 1293Q1017 1223 1043.50 1130.50Q1070 1038 1070 927L1070 527M294 527Q294 451 305 391Q316 331 338 291L344 290L802 1205Q764 1260 707 1288.50Q650 1317 577 1317Q440 1317 367 1218.50Q294 1120 294 930L294 527M868 930Q868 967 864.50 1000.50Q861 1034 856 1059L850 1060L413 189Q445 162 486 149.50Q527 137 577 137Q717 137 792.50 235.50Q868 334 868 527L868 930Z"  horiz-adv-x="1202" vert-adv-y="2048"  />

      
      <glyph glyph-name="unid9" unicode="&#xd9;" d="M1045 1456L1045 447Q1045 221 915.50 100Q786-21 577-21Q371-21 244 100Q117 221 117 447L117 1456L318 1456L318 447Q318 291 388 212Q458 133 577 133Q701 133 772 209Q843 285 843 447L843 1456L1045 1456M682 1561L512 1561L284 1822L286 1827L513 1827L682 1561Z"  horiz-adv-x="1160" vert-adv-y="2048"  />

      
      <glyph glyph-name="unida" unicode="&#xda;" d="M1045 1456L1045 447Q1045 221 915.50 100Q786-21 577-21Q371-21 244 100Q117 221 117 447L117 1456L318 1456L318 447Q318 291 388 212Q458 133 577 133Q701 133 772 209Q843 285 843 447L843 1456L1045 1456M651 1824L877 1824L879 1819L641 1558L479 1558L651 1824Z"  horiz-adv-x="1160" vert-adv-y="2048"  />

      
      <glyph glyph-name="unidb" unicode="&#xdb;" d="M1045 1456L1045 447Q1045 221 915.50 100Q786-21 577-21Q371-21 244 100Q117 221 117 447L117 1456L318 1456L318 447Q318 291 388 212Q458 133 577 133Q701 133 772 209Q843 285 843 447L843 1456L1045 1456M868 1621L868 1599L704 1599L581 1750L459 1599L298 1599L298 1622L520 1854L642 1854L868 1621Z"  horiz-adv-x="1160" vert-adv-y="2048"  />

      
      <glyph glyph-name="unidc" unicode="&#xdc;" d="M1045 1456L1045 447Q1045 221 915.50 100Q786-21 577-21Q371-21 244 100Q117 221 117 447L117 1456L318 1456L318 447Q318 291 388 212Q458 133 577 133Q701 133 772 209Q843 285 843 447L843 1456L1045 1456M900 1617L693 1617L693 1802L900 1802L900 1617M472 1617L264 1617L264 1802L472 1802L472 1617Z"  horiz-adv-x="1160" vert-adv-y="2048"  />

      
      <glyph glyph-name="unidd" unicode="&#xdd;" d="M547 749L553 749L851 1456L1076 1456L648 524L648 0L446 0L446 537L23 1456L250 1456L547 749M622 1820L848 1820L850 1815L612 1554L450 1554L622 1820Z"  horiz-adv-x="1100" vert-adv-y="2048"  />

      
      <glyph glyph-name="unide" unicode="&#xde;" d="M336 1456L336 1166L547 1166Q752 1166 866.50 1047Q981 928 981 738Q981 546 866.50 427.50Q752 309 547 309L336 309L336 0L133 0L133 1456L336 1456M336 1011L336 464L547 464Q663 464 720.50 543Q778 622 778 736Q778 851 720.50 931Q663 1011 547 1011L336 1011Z"  horiz-adv-x="1055" vert-adv-y="2048"  />

      
      <glyph glyph-name="unidf" unicode="&#xdf;" d="M326 0L124 0L124 1088Q124 1303 227 1423Q330 1543 502 1543Q645 1543 738 1456.50Q831 1370 831 1210Q831 1099 781.50 994.50Q732 890 732 821Q732 745 868.50 603Q1005 461 1005 320Q1005 150 912 64.50Q819-21 653-21Q584-21 513-1Q442 19 409 49L449 203Q484 175 536 153.50Q588 132 642 132Q721 132 762.50 181.50Q804 231 804 313Q804 399 666.50 539Q529 679 529 819Q529 907 581 1013.50Q633 1120 633 1198Q633 1283 592 1336Q551 1389 498 1389Q420 1389 373 1309.50Q326 1230 326 1086L326 0Z"  horiz-adv-x="1079" vert-adv-y="2048"  />

      
      <glyph glyph-name="unie0" unicode="&#xe0;" d="M667 0Q656 37 649 72.50Q642 108 640 144Q595 71 527 25Q459-21 376-21Q239-21 161.50 65.50Q84 152 84 297Q84 452 189.50 540.50Q295 629 486 629L637 629L637 740Q637 839 593 894.50Q549 950 468 950Q395 950 350.50 900Q306 850 306 775L113 776L110 782Q105 907 210 1004.50Q315 1102 481 1102Q641 1102 740.50 1007.50Q840 913 840 738L840 236Q840 173 847.50 114.50Q855 56 872 0L667 0M422 135Q493 135 551.50 177Q610 219 637 282L637 503L483 503Q390 503 338.50 443.50Q287 384 287 298Q287 225 322 180Q357 135 422 135M572 1239L402 1239L174 1500L176 1505L403 1505L572 1239Z"  horiz-adv-x="955" vert-adv-y="2048"  />

      
      <glyph glyph-name="unie1" unicode="&#xe1;" d="M667 0Q656 37 649 72.50Q642 108 640 144Q595 71 527 25Q459-21 376-21Q239-21 161.50 65.50Q84 152 84 297Q84 452 189.50 540.50Q295 629 486 629L637 629L637 740Q637 839 593 894.50Q549 950 468 950Q395 950 350.50 900Q306 850 306 775L113 776L110 782Q105 907 210 1004.50Q315 1102 481 1102Q641 1102 740.50 1007.50Q840 913 840 738L840 236Q840 173 847.50 114.50Q855 56 872 0L667 0M422 135Q493 135 551.50 177Q610 219 637 282L637 503L483 503Q390 503 338.50 443.50Q287 384 287 298Q287 225 322 180Q357 135 422 135M541 1502L767 1502L769 1497L531 1236L369 1236L541 1502Z"  horiz-adv-x="955" vert-adv-y="2048"  />

      
      <glyph glyph-name="unie2" unicode="&#xe2;" d="M667 0Q656 37 649 72.50Q642 108 640 144Q595 71 527 25Q459-21 376-21Q239-21 161.50 65.50Q84 152 84 297Q84 452 189.50 540.50Q295 629 486 629L637 629L637 740Q637 839 593 894.50Q549 950 468 950Q395 950 350.50 900Q306 850 306 775L113 776L110 782Q105 907 210 1004.50Q315 1102 481 1102Q641 1102 740.50 1007.50Q840 913 840 738L840 236Q840 173 847.50 114.50Q855 56 872 0L667 0M422 135Q493 135 551.50 177Q610 219 637 282L637 503L483 503Q390 503 338.50 443.50Q287 384 287 298Q287 225 322 180Q357 135 422 135M758 1299L758 1277L594 1277L471 1428L349 1277L188 1277L188 1300L410 1532L532 1532L758 1299Z"  horiz-adv-x="955" vert-adv-y="2048"  />

      
      <glyph glyph-name="unie3" unicode="&#xe3;" d="M667 0Q656 37 649 72.50Q642 108 640 144Q595 71 527 25Q459-21 376-21Q239-21 161.50 65.50Q84 152 84 297Q84 452 189.50 540.50Q295 629 486 629L637 629L637 740Q637 839 593 894.50Q549 950 468 950Q395 950 350.50 900Q306 850 306 775L113 776L110 782Q105 907 210 1004.50Q315 1102 481 1102Q641 1102 740.50 1007.50Q840 913 840 738L840 236Q840 173 847.50 114.50Q855 56 872 0L667 0M422 135Q493 135 551.50 177Q610 219 637 282L637 503L483 503Q390 503 338.50 443.50Q287 384 287 298Q287 225 322 180Q357 135 422 135M775 1516Q775 1424 725 1361Q675 1298 599 1298Q538 1298 468 1347Q398 1396 355 1396Q322 1396 299 1362.50Q276 1329 276 1280L165 1308Q165 1398 215 1463Q265 1528 341 1528Q389 1528 465 1478.50Q541 1429 585 1429Q618 1429 641.50 1463Q665 1497 665 1547L775 1516Z"  horiz-adv-x="955" vert-adv-y="2048"  />

      
      <glyph glyph-name="unie4" unicode="&#xe4;" d="M667 0Q656 37 649 72.50Q642 108 640 144Q595 71 527 25Q459-21 376-21Q239-21 161.50 65.50Q84 152 84 297Q84 452 189.50 540.50Q295 629 486 629L637 629L637 740Q637 839 593 894.50Q549 950 468 950Q395 950 350.50 900Q306 850 306 775L113 776L110 782Q105 907 210 1004.50Q315 1102 481 1102Q641 1102 740.50 1007.50Q840 913 840 738L840 236Q840 173 847.50 114.50Q855 56 872 0L667 0M422 135Q493 135 551.50 177Q610 219 637 282L637 503L483 503Q390 503 338.50 443.50Q287 384 287 298Q287 225 322 180Q357 135 422 135M790 1295L583 1295L583 1480L790 1480L790 1295M362 1295L154 1295L154 1480L362 1480L362 1295Z"  horiz-adv-x="955" vert-adv-y="2048"  />

      
      <glyph glyph-name="unie5" unicode="&#xe5;" d="M667 0Q656 37 649 72.50Q642 108 640 144Q595 71 527 25Q459-21 376-21Q239-21 161.50 65.50Q84 152 84 297Q84 452 189.50 540.50Q295 629 486 629L637 629L637 740Q637 839 593 894.50Q549 950 468 950Q395 950 350.50 900Q306 850 306 775L113 776L110 782Q105 907 210 1004.50Q315 1102 481 1102Q641 1102 740.50 1007.50Q840 913 840 738L840 236Q840 173 847.50 114.50Q855 56 872 0L667 0M422 135Q493 135 551.50 177Q610 219 637 282L637 503L483 503Q390 503 338.50 443.50Q287 384 287 298Q287 225 322 180Q357 135 422 135M291 1412Q291 1490 344 1543Q397 1596 472 1596Q546 1596 598 1543Q650 1490 650 1412Q650 1332 598.50 1281.50Q547 1231 472 1231Q396 1231 343.50 1282Q291 1333 291 1412M384 1412Q384 1371 409.50 1343.50Q435 1316 472 1316Q508 1316 532 1343Q556 1370 556 1412Q556 1455 532 1483Q508 1511 472 1511Q435 1511 409.50 1482.50Q384 1454 384 1412Z"  horiz-adv-x="955" vert-adv-y="2048"  />

      
      <glyph glyph-name="unie6" unicode="&#xe6;" d="M1068-21Q956-21 869.50 24Q783 69 727 153Q678 78 588 28.50Q498-21 373-21Q220-21 136.50 66Q53 153 53 304Q53 462 155.50 550Q258 638 453 638L629 638L629 716Q629 825 589 885.50Q549 946 475 946Q395 946 348.50 891.50Q302 837 302 757L108 773L106 779Q101 918 203.50 1010Q306 1102 476 1102Q568 1102 640.50 1068.50Q713 1035 760 971Q813 1034 884.50 1068Q956 1102 1041 1102Q1220 1102 1319.50 973.50Q1419 845 1419 623L1419 499L836 499Q837 333 897 233Q957 133 1082 133Q1165 133 1221 159.50Q1277 186 1340 236L1399 104Q1352 56 1266 17.50Q1180-21 1068-21M413 127Q470 127 532.50 167Q595 207 629 259L629 501L455 501Q361 501 308.50 442.50Q256 384 256 300Q256 220 295 173.50Q334 127 413 127M1041 946Q950 946 899.50 862Q849 778 839 639L1219 639L1219 669Q1219 793 1175 869.50Q1131 946 1041 946Z"  horiz-adv-x="1479" vert-adv-y="2048"  />

      
      <glyph glyph-name="unie7" unicode="&#xe7;" d="M492 133Q568 133 620 191.50Q672 250 672 348L854 348L856 342Q860 189 752.50 84Q645-21 492-21Q290-21 182.50 116Q75 253 75 465L75 614Q75 826 182.50 964Q290 1102 491 1102Q655 1102 757.50 992.50Q860 883 857 709L854 703L672 703Q672 811 622.50 878.50Q573 946 491 946Q375 946 326.50 852Q278 758 278 614L278 465Q278 319 326.50 226Q375 133 492 133M548-3L538-61Q594-71 630.50-111.50Q667-152 667-233Q667-331 594.50-389Q522-447 389-447L383-334Q436-334 468.50-309Q501-284 501-233Q501-183 472-163.50Q443-144 372-137L398-3L548-3Z"  horiz-adv-x="921" vert-adv-y="2048"  />

      
      <glyph glyph-name="unie8" unicode="&#xe8;" d="M507-21Q314-21 198 113Q82 247 82 456L82 614Q82 826 195.50 964Q309 1102 484 1102Q668 1102 767 976.50Q866 851 866 639L866 499L284 499L284 456Q284 316 345.50 224.50Q407 133 520 133Q604 133 664 159.50Q724 186 778 237L842 111Q791 53 705 16Q619-21 507-21M484 946Q396 946 343 860.50Q290 775 284 644L665 644L665 685Q665 800 619 873Q573 946 484 946M575 1240L405 1240L177 1501L179 1506L406 1506L575 1240Z"  horiz-adv-x="930" vert-adv-y="2048"  />

      
      <glyph glyph-name="unie9" unicode="&#xe9;" d="M507-21Q314-21 198 113Q82 247 82 456L82 614Q82 826 195.50 964Q309 1102 484 1102Q668 1102 767 976.50Q866 851 866 639L866 499L284 499L284 456Q284 316 345.50 224.50Q407 133 520 133Q604 133 664 159.50Q724 186 778 237L842 111Q791 53 705 16Q619-21 507-21M484 946Q396 946 343 860.50Q290 775 284 644L665 644L665 685Q665 800 619 873Q573 946 484 946M544 1503L770 1503L772 1498L534 1237L372 1237L544 1503Z"  horiz-adv-x="930" vert-adv-y="2048"  />

      
      <glyph glyph-name="uniea" unicode="&#xea;" d="M507-21Q314-21 198 113Q82 247 82 456L82 614Q82 826 195.50 964Q309 1102 484 1102Q668 1102 767 976.50Q866 851 866 639L866 499L284 499L284 456Q284 316 345.50 224.50Q407 133 520 133Q604 133 664 159.50Q724 186 778 237L842 111Q791 53 705 16Q619-21 507-21M484 946Q396 946 343 860.50Q290 775 284 644L665 644L665 685Q665 800 619 873Q573 946 484 946M761 1300L761 1278L597 1278L474 1429L352 1278L191 1278L191 1301L413 1533L535 1533L761 1300Z"  horiz-adv-x="930" vert-adv-y="2048"  />

      
      <glyph glyph-name="unieb" unicode="&#xeb;" d="M507-21Q314-21 198 113Q82 247 82 456L82 614Q82 826 195.50 964Q309 1102 484 1102Q668 1102 767 976.50Q866 851 866 639L866 499L284 499L284 456Q284 316 345.50 224.50Q407 133 520 133Q604 133 664 159.50Q724 186 778 237L842 111Q791 53 705 16Q619-21 507-21M484 946Q396 946 343 860.50Q290 775 284 644L665 644L665 685Q665 800 619 873Q573 946 484 946M793 1296L586 1296L586 1481L793 1481L793 1296M365 1296L157 1296L157 1481L365 1481L365 1296Z"  horiz-adv-x="930" vert-adv-y="2048"  />

      
      <glyph glyph-name="uniec" unicode="&#xec;" d="M332 0L129 0L129 1082L332 1082L332 0M334 1218L164 1218L-64 1479L-62 1484L165 1484L334 1218Z"  horiz-adv-x="468" vert-adv-y="2048"  />

      
      <glyph glyph-name="unied" unicode="&#xed;" d="M332 0L129 0L129 1082L332 1082L332 0M301 1481L527 1481L529 1476L291 1215L129 1215L301 1481Z"  horiz-adv-x="468" vert-adv-y="2048"  />

      
      <glyph glyph-name="uniee" unicode="&#xee;" d="M332 0L129 0L129 1082L332 1082L332 0M520 1278L520 1256L356 1256L233 1407L111 1256L-50 1256L-50 1279L172 1511L294 1511L520 1278Z"  horiz-adv-x="468" vert-adv-y="2048"  />

      
      <glyph glyph-name="unief" unicode="&#xef;" d="M332 0L129 0L129 1082L332 1082L332 0M552 1274L345 1274L345 1459L552 1459L552 1274M124 1274L-84 1274L-84 1459L124 1459L124 1274Z"  horiz-adv-x="468" vert-adv-y="2048"  />

      
      <glyph glyph-name="unif0" unicode="&#xf0;" d="M739 1291Q836 1171 889 1006Q942 841 942 637L942 550Q942 299 815 139Q688-21 497-21Q305-21 182.50 117.50Q60 256 60 462Q60 692 174.50 830Q289 968 478 968Q547 968 608 941Q669 914 712 868L716 872Q700 966 665.50 1045Q631 1124 583 1187L365 1041L301 1135L503 1270Q468 1298 431.50 1320.50Q395 1343 358 1360L421 1517Q487 1492 547.50 1456.50Q608 1421 660 1375L855 1505L918 1411L739 1291M739 639Q739 646 738.50 660.50Q738 675 738 682Q708 740 646.50 778.50Q585 817 498 817Q388 817 325.50 716Q263 615 263 462Q263 330 327.50 232Q392 134 500 134Q608 134 673.50 251Q739 368 739 550L739 639Z"  horiz-adv-x="1039" vert-adv-y="2048"  />

      
      <glyph glyph-name="unif1" unicode="&#xf1;" d="M300 1082L311 922Q356 1007 425 1054.50Q494 1102 581 1102Q723 1102 802 997Q881 892 881 671L881 0L678 0L678 669Q678 820 635 882Q592 944 505 944Q443 944 395 905.50Q347 867 317 801L317 0L114 0L114 1082L300 1082M799 1516Q799 1424 749 1361Q699 1298 623 1298Q562 1298 492 1347Q422 1396 379 1396Q346 1396 323 1362.50Q300 1329 300 1280L189 1308Q189 1398 239 1463Q289 1528 365 1528Q413 1528 489 1478.50Q565 1429 609 1429Q642 1429 665.50 1463Q689 1497 689 1547L799 1516Z"  horiz-adv-x="995" vert-adv-y="2048"  />

      
      <glyph glyph-name="unif2" unicode="&#xf2;" d="M76 609Q76 824 188.50 963Q301 1102 497 1102Q692 1102 805 963.50Q918 825 918 609L918 471Q918 254 805.50 116.50Q693-21 498-21Q301-21 188.50 116.50Q76 254 76 471L76 609M279 471Q279 323 333 228Q387 133 498 133Q606 133 660.50 228Q715 323 715 471L715 609Q715 755 660.50 850.50Q606 946 497 946Q387 946 333 851Q279 756 279 609L279 471M599 1239L429 1239L201 1500L203 1505L430 1505L599 1239Z"  horiz-adv-x="995" vert-adv-y="2048"  />

      
      <glyph glyph-name="unif3" unicode="&#xf3;" d="M76 609Q76 824 188.50 963Q301 1102 497 1102Q692 1102 805 963.50Q918 825 918 609L918 471Q918 254 805.50 116.50Q693-21 498-21Q301-21 188.50 116.50Q76 254 76 471L76 609M279 471Q279 323 333 228Q387 133 498 133Q606 133 660.50 228Q715 323 715 471L715 609Q715 755 660.50 850.50Q606 946 497 946Q387 946 333 851Q279 756 279 609L279 471M568 1502L794 1502L796 1497L558 1236L396 1236L568 1502Z"  horiz-adv-x="995" vert-adv-y="2048"  />

      
      <glyph glyph-name="unif4" unicode="&#xf4;" d="M76 609Q76 824 188.50 963Q301 1102 497 1102Q692 1102 805 963.50Q918 825 918 609L918 471Q918 254 805.50 116.50Q693-21 498-21Q301-21 188.50 116.50Q76 254 76 471L76 609M279 471Q279 323 333 228Q387 133 498 133Q606 133 660.50 228Q715 323 715 471L715 609Q715 755 660.50 850.50Q606 946 497 946Q387 946 333 851Q279 756 279 609L279 471M785 1299L785 1277L621 1277L498 1428L376 1277L215 1277L215 1300L437 1532L559 1532L785 1299Z"  horiz-adv-x="995" vert-adv-y="2048"  />

      
      <glyph glyph-name="unif5" unicode="&#xf5;" d="M76 609Q76 824 188.50 963Q301 1102 497 1102Q692 1102 805 963.50Q918 825 918 609L918 471Q918 254 805.50 116.50Q693-21 498-21Q301-21 188.50 116.50Q76 254 76 471L76 609M279 471Q279 323 333 228Q387 133 498 133Q606 133 660.50 228Q715 323 715 471L715 609Q715 755 660.50 850.50Q606 946 497 946Q387 946 333 851Q279 756 279 609L279 471M802 1516Q802 1424 752 1361Q702 1298 626 1298Q565 1298 495 1347Q425 1396 382 1396Q349 1396 326 1362.50Q303 1329 303 1280L192 1308Q192 1398 242 1463Q292 1528 368 1528Q416 1528 492 1478.50Q568 1429 612 1429Q645 1429 668.50 1463Q692 1497 692 1547L802 1516Z"  horiz-adv-x="995" vert-adv-y="2048"  />

      
      <glyph glyph-name="unif6" unicode="&#xf6;" d="M76 609Q76 824 188.50 963Q301 1102 497 1102Q692 1102 805 963.50Q918 825 918 609L918 471Q918 254 805.50 116.50Q693-21 498-21Q301-21 188.50 116.50Q76 254 76 471L76 609M279 471Q279 323 333 228Q387 133 498 133Q606 133 660.50 228Q715 323 715 471L715 609Q715 755 660.50 850.50Q606 946 497 946Q387 946 333 851Q279 756 279 609L279 471M817 1295L610 1295L610 1480L817 1480L817 1295M389 1295L181 1295L181 1480L389 1480L389 1295Z"  horiz-adv-x="995" vert-adv-y="2048"  />

      
      <glyph glyph-name="unif7" unicode="&#xf7;" d="M922 608L64 608L64 779L922 779L922 608M597 995L392 995L392 1190L597 1190L597 995M597 188L392 188L392 383L597 383L597 188Z"  horiz-adv-x="1005" vert-adv-y="2048"  />

      
      <glyph glyph-name="unif8" unicode="&#xf8;" d="M76 609Q76 824 188.50 963Q301 1102 497 1102Q542 1102 584 1093.50Q626 1085 664 1069L724 1213L845 1213L760 1009Q836 943 877 839Q918 735 918 609L918 471Q918 254 805.50 116.50Q693-21 498-21Q456-21 417.50-14Q379-7 344 6L284-139L163-139L246 61Q163 125 119.50 231.50Q76 338 76 471L76 609M279 471Q279 404 289 348.50Q299 293 321 257L327 257L600 916Q578 930 552 938Q526 946 497 946Q387 946 333 851Q279 756 279 609L279 471M715 609Q715 667 706 717.50Q697 768 681 803L675 804L406 155Q426 144 448.50 138.50Q471 133 498 133Q606 133 660.50 228Q715 323 715 471L715 609Z"  horiz-adv-x="996" vert-adv-y="2048"  />

      
      <glyph glyph-name="unif9" unicode="&#xf9;" d="M687 145Q644 65 577 22Q510-21 423-21Q276-21 194 92Q112 205 112 443L112 1082L314 1082L314 441Q314 275 353.50 205.50Q393 136 472 136Q547 136 597.50 171Q648 206 678 271L678 1082L881 1082L881 0L700 0L687 145M597 1218L427 1218L199 1479L201 1484L428 1484L597 1218Z"  horiz-adv-x="995" vert-adv-y="2048"  />

      
      <glyph glyph-name="unifa" unicode="&#xfa;" d="M687 145Q644 65 577 22Q510-21 423-21Q276-21 194 92Q112 205 112 443L112 1082L314 1082L314 441Q314 275 353.50 205.50Q393 136 472 136Q547 136 597.50 171Q648 206 678 271L678 1082L881 1082L881 0L700 0L687 145M566 1481L792 1481L794 1476L556 1215L394 1215L566 1481Z"  horiz-adv-x="995" vert-adv-y="2048"  />

      
      <glyph glyph-name="unifb" unicode="&#xfb;" d="M687 145Q644 65 577 22Q510-21 423-21Q276-21 194 92Q112 205 112 443L112 1082L314 1082L314 441Q314 275 353.50 205.50Q393 136 472 136Q547 136 597.50 171Q648 206 678 271L678 1082L881 1082L881 0L700 0L687 145M783 1278L783 1256L619 1256L496 1407L374 1256L213 1256L213 1279L435 1511L557 1511L783 1278Z"  horiz-adv-x="995" vert-adv-y="2048"  />

      
      <glyph glyph-name="unifc" unicode="&#xfc;" d="M687 145Q644 65 577 22Q510-21 423-21Q276-21 194 92Q112 205 112 443L112 1082L314 1082L314 441Q314 275 353.50 205.50Q393 136 472 136Q547 136 597.50 171Q648 206 678 271L678 1082L881 1082L881 0L700 0L687 145M815 1274L608 1274L608 1459L815 1459L815 1274M387 1274L179 1274L179 1459L387 1459L387 1274Z"  horiz-adv-x="995" vert-adv-y="2048"  />

      
      <glyph glyph-name="unifd" unicode="&#xfd;" d="M420 373L435 302L441 302L649 1082L870 1082L491-168Q453-280 388-358.50Q323-437 201-437Q176-437 147.50-431.50Q119-426 91-419L113-269Q124-271 143-273Q162-275 173-275Q232-275 266.50-224.50Q301-174 320-105L356 5L22 1082L242 1082L420 373M515 1481L741 1481L743 1476L505 1215L343 1215L515 1481Z"  horiz-adv-x="892" vert-adv-y="2048"  />

      
      <glyph glyph-name="unife" unicode="&#xfe;" d="M921 451Q921 237 827 108Q733-21 566-21Q487-21 427 10Q367 41 324 101L324-416L121-416L121 0L120 0L120 1560L323 1560L323 970Q365 1034 425.50 1068Q486 1102 564 1102Q733 1102 827 960Q921 818 921 584L921 451M718 584Q718 743 665.50 843.50Q613 944 509 944Q444 944 398 907Q352 870 324 806L324 259Q351 198 397 165.50Q443 133 510 133Q615 133 666.50 220.50Q718 308 718 451L718 584Z"  horiz-adv-x="1006" vert-adv-y="2048"  />

      
      <glyph glyph-name="uniff" unicode="&#xff;" d="M420 373L435 302L441 302L649 1082L870 1082L491-168Q453-280 388-358.50Q323-437 201-437Q176-437 147.50-431.50Q119-426 91-419L113-269Q124-271 143-273Q162-275 173-275Q232-275 266.50-224.50Q301-174 320-105L356 5L22 1082L242 1082L420 373M766 1274L559 1274L559 1459L766 1459L766 1274M338 1274L130 1274L130 1459L338 1459L338 1274Z"  horiz-adv-x="892" vert-adv-y="2048"  />

      
      <glyph glyph-name="uni0131" unicode="&#x0131;" d="M332 0L129 0L129 1082L332 1082L332 0Z"  horiz-adv-x="468" vert-adv-y="2048"  />

      
      <glyph glyph-name="uni0152" unicode="&#x0152;" d="M1597 0L832 0Q754-10 698.50-15.50Q643-21 586-21Q367-21 230 145Q93 311 93 576L93 880Q93 1145 229 1311Q365 1477 585 1477Q643 1477 703.50 1471Q764 1465 832 1456L1591 1456L1591 1300L971 1300L971 831L1511 831L1511 676L971 676L971 154L1597 154L1597 0M586 134Q632 134 678 137.50Q724 141 768 148L768 1308Q723 1314 677.50 1318Q632 1322 585 1322Q450 1322 373 1206.50Q296 1091 296 882L296 576Q296 366 373.50 250Q451 134 586 134Z"  horiz-adv-x="1681" vert-adv-y="2048"  />

      
      <glyph glyph-name="uni0153" unicode="&#x0153;" d="M84 553Q84 794 196 948Q308 1102 503 1102Q607 1102 689.50 1055.50Q772 1009 828 925Q882 1009 960.50 1055.50Q1039 1102 1133 1102Q1317 1102 1416 972.50Q1515 843 1515 625L1515 499L934 499Q936 338 996.50 235.50Q1057 133 1169 133Q1254 133 1313.50 159.50Q1373 186 1428 237L1492 111Q1441 53 1355 16Q1269-21 1156-21Q1052-21 968 24.50Q884 70 828 154Q773 70 691 24.50Q609-21 505-21Q308-21 196 131.50Q84 284 84 526L84 553M286 526Q286 354 340.50 243.50Q395 133 505 133Q613 133 667.50 243.50Q722 354 722 526L722 553Q722 723 667.50 834.50Q613 946 503 946Q394 946 340 834Q286 722 286 553L286 526M1133 946Q1053 946 1001.50 862Q950 778 938 644L1315 644L1315 672Q1315 792 1268.50 869Q1222 946 1133 946Z"  horiz-adv-x="1584" vert-adv-y="2048"  />

      
      <glyph glyph-name="uni02C6" unicode="&#x02C6;" d="M707 1274L707 1252L543 1252L420 1403L298 1252L137 1252L137 1275L359 1507L481 1507L707 1274Z"  horiz-adv-x="853" vert-adv-y="2048"  />

      
      <glyph glyph-name="uni02DA" unicode="&#x02DA;" d="M129 1311Q129 1389 182 1442Q235 1495 310 1495Q384 1495 436 1442Q488 1389 488 1311Q488 1231 436.50 1180.50Q385 1130 310 1130Q234 1130 181.50 1181Q129 1232 129 1311M222 1311Q222 1270 247.50 1242.50Q273 1215 310 1215Q346 1215 370 1242Q394 1269 394 1311Q394 1354 370 1382Q346 1410 310 1410Q273 1410 247.50 1381.50Q222 1353 222 1311Z"  horiz-adv-x="622" vert-adv-y="2048"  />

      
      <glyph glyph-name="uni02DC" unicode="&#x02DC;" d="M722 1484Q722 1392 672 1329Q622 1266 546 1266Q485 1266 415 1315Q345 1364 302 1364Q269 1364 246 1330.50Q223 1297 223 1248L112 1276Q112 1366 162 1431Q212 1496 288 1496Q336 1496 412 1446.50Q488 1397 532 1397Q565 1397 588.50 1431Q612 1465 612 1515L722 1484Z"  horiz-adv-x="841" vert-adv-y="2048"  />

      
      <glyph glyph-name="uni0400" unicode="&#x0400;" d="M884 676L344 676L344 154L970 154L970 0L141 0L141 1456L964 1456L964 1300L344 1300L344 831L884 831L884 676M629 1561L459 1561L231 1822L233 1827L460 1827L629 1561Z"  horiz-adv-x="1018" vert-adv-y="2048"  />

      
      <glyph glyph-name="uni0401" unicode="&#x0401;" d="M884 676L344 676L344 154L970 154L970 0L141 0L141 1456L964 1456L964 1300L344 1300L344 831L884 831L884 676M847 1617L640 1617L640 1802L847 1802L847 1617M419 1617L211 1617L211 1802L419 1802L419 1617Z"  horiz-adv-x="1018" vert-adv-y="2048"  />

      
      <glyph glyph-name="uni0402" unicode="&#x0402;" d="M997 1300L574 1300L574 842Q639 864 696 877Q753 890 801 890Q1010 890 1128.50 772.50Q1247 655 1247 431Q1247 232 1137.50 110.50Q1028-11 811-7L805-5L805 134Q938 134 991.50 212.50Q1045 291 1045 427Q1044 574 982 651.50Q920 729 801 729Q746 729 688.50 718Q631 707 574 688L574 0L370 0L370 1300L38 1300L38 1456L997 1456L997 1300Z"  horiz-adv-x="1313" vert-adv-y="2048"  />

      
      <glyph glyph-name="uni0403" unicode="&#x0403;" d="M920 1300L344 1300L344 0L141 0L141 1456L920 1456L920 1300M599 1824L825 1824L827 1819L589 1558L427 1558L599 1824Z"  horiz-adv-x="980" vert-adv-y="2048"  />

      
      <glyph glyph-name="uni0404" unicode="&#x0404;" d="M1006 443L1009 437Q1008 219 893 99.50Q778-20 568-20Q354-20 226 124Q98 268 98 526L98 930Q98 1188 224.50 1333Q351 1478 562 1478Q776 1478 891 1361Q1006 1244 1009 1019L1006 1013L814 1013Q811 1172 751 1247Q691 1322 562 1322Q437 1322 368 1221Q299 1120 299 933L299 813L739 813L739 658L299 658L299 526Q299 336 369.50 235Q440 134 568 134Q694 134 752.50 207.50Q811 281 813 443L1006 443Z"  horiz-adv-x="1144" vert-adv-y="2048"  />

      
      <glyph glyph-name="uni0405" unicode="&#x0405;" d="M807 366Q807 469 749 535Q691 601 546 651Q338 714 227 815.50Q116 917 116 1084Q116 1256 239.50 1366.50Q363 1477 557 1477Q759 1477 882.50 1349.50Q1006 1222 1002 1042L1000 1036L805 1036Q805 1163 739.50 1242.50Q674 1322 555 1322Q442 1322 380.50 1255.50Q319 1189 319 1086Q319 993 385 929.50Q451 866 603 814Q802 752 906 645Q1010 538 1010 368Q1010 189 887 84Q764-21 564-21Q369-21 223.50 94.50Q78 210 83 420L85 426L280 426Q280 276 358.50 204Q437 132 564 132Q678 132 742.50 195.50Q807 259 807 366Z"  horiz-adv-x="1087" vert-adv-y="2048"  />

      
      <glyph glyph-name="uni0406" unicode="&#x0406;" d="M357 0L155 0L155 1456L357 1456L357 0Z"  horiz-adv-x="513" vert-adv-y="2048"  />

      
      <glyph glyph-name="uni0407" unicode="&#x0407;" d="M357 0L155 0L155 1456L357 1456L357 0M577 1617L370 1617L370 1802L577 1802L577 1617M149 1617L-59 1617L-59 1802L149 1802L149 1617Z"  horiz-adv-x="513" vert-adv-y="2048"  />

      
      <glyph glyph-name="uni0408" unicode="&#x0408;" d="M651 1456L853 1456L853 417Q853 216 743 97.50Q633-21 461-21Q276-21 167.50 86.50Q59 194 63 402L66 408L261 408Q261 270 314.50 201.50Q368 133 461 133Q543 133 597 210Q651 287 651 417L651 1456Z"  horiz-adv-x="989" vert-adv-y="2048"  />

      
      <glyph glyph-name="uni0409" unicode="&#x0409;" d="M1099 1456L1099 889L1356 889Q1560 889 1677 765Q1794 641 1794 445Q1794 247 1677 123.50Q1560 0 1356 0L897 0L897 1300L517 1300L516 788Q514 373 411.50 186.50Q309 0 86 0L47 0L47 154L80 154Q209 154 260.50 293Q312 432 313 788L315 1456L1099 1456M1099 735L1099 154L1356 154Q1471 154 1531.50 238.50Q1592 323 1592 447Q1592 566 1531 650.50Q1470 735 1356 735L1099 735Z"  horiz-adv-x="1865" vert-adv-y="2048"  />

      
      <glyph glyph-name="uni040A" unicode="&#x040A;" d="M344 814L902 814L902 1456L1104 1456L1104 861L1361 861Q1565 861 1682.50 742.50Q1800 624 1800 433Q1800 241 1682.50 120.50Q1565 0 1361 0L902 0L902 659L344 659L344 0L141 0L141 1456L344 1456L344 814M1104 706L1104 160L1361 160Q1476 160 1537 238.50Q1598 317 1598 435Q1598 549 1537 627.50Q1476 706 1361 706L1104 706Z"  horiz-adv-x="1870" vert-adv-y="2048"  />

      
      <glyph glyph-name="uni040B" unicode="&#x040B;" d="M999 1300L575 1300L575 863Q631 877 692 885.50Q753 894 815 894Q1030 894 1144.50 785Q1259 676 1259 438L1259 0L1057 0L1057 438Q1057 604 998.50 671.50Q940 739 815 739Q758 739 696 730.50Q634 722 575 707L575 0L371 0L371 1300L50 1300L50 1456L999 1456L999 1300Z"  horiz-adv-x="1390" vert-adv-y="2048"  />

      
      <glyph glyph-name="uni040C" unicode="&#x040C;" d="M483 653L344 653L344 0L141 0L141 1456L344 1456L344 816L465 816L850 1456L1092 1456L634 765L1127 0L879 0L483 653M591 1824L817 1824L819 1819L581 1558L419 1558L591 1824Z"  horiz-adv-x="1131" vert-adv-y="2048"  />

      
      <glyph glyph-name="uni040D" unicode="&#x040D;" d="M897 1456L1100 1456L1100 0L897 0L897 1062L891 1064L340 0L137 0L137 1456L340 1456L340 395L346 393L897 1456M721 1561L551 1561L323 1822L325 1827L552 1827L721 1561Z"  horiz-adv-x="1241" vert-adv-y="2048"  />

      
      <glyph glyph-name="uni040E" unicode="&#x040E;" d="M533 737L567 633L573 633L838 1456L1060 1456L632 254Q576 121 510.50 50Q445-21 315-21Q294-21 266.50-18Q239-15 229-12L230 138Q238 135 263 134Q288 133 303 133Q367 133 399 175Q431 217 458 299L486 377L57 1456L278 1456L533 737M832 1872L834 1866Q838 1748 761.50 1674Q685 1600 555 1600Q424 1600 347.50 1674Q271 1748 276 1866L278 1872L429 1872Q429 1806 459.50 1764Q490 1722 555 1722Q617 1722 647.50 1764Q678 1806 678 1872L832 1872Z"  horiz-adv-x="1107" vert-adv-y="2048"  />

      
      <glyph glyph-name="uni040F" unicode="&#x040F;" d="M135 1456L338 1456L338 154L896 154L896 1456L1099 1456L1099 0L727 0L727-356L524-356L524 0L135 0L135 1456Z"  horiz-adv-x="1240" vert-adv-y="2048"  />

      
      <glyph glyph-name="uni0410" unicode="&#x0410;" d="M803 368L339 368L233 0L27 0L475 1456L671 1456L1115 0L909 0L803 368M386 529L757 529L575 1165L569 1165L386 529Z"  horiz-adv-x="1137" vert-adv-y="2048"  />

      
      <glyph glyph-name="uni0411" unicode="&#x0411;" d="M912 1300L336 1300L336 862L592 862Q798 862 915 745.50Q1032 629 1032 435Q1032 238 914.50 119Q797 0 592 0L133 0L133 1456L912 1456L912 1300M336 707L336 154L592 154Q709 154 769 234Q829 314 829 437Q829 554 769 630.50Q709 707 592 707L336 707Z"  horiz-adv-x="1105" vert-adv-y="2048"  />

      
      <glyph glyph-name="uni0412" unicode="&#x0412;" d="M141 0L141 1456L547 1456Q753 1456 868.50 1358Q984 1260 984 1064Q984 960 931.50 880.50Q879 801 786 764Q904 738 967.50 640.50Q1031 543 1031 412Q1031 211 917.50 105.50Q804 0 604 0L141 0M344 679L344 154L604 154Q712 154 770.50 220.50Q829 287 829 411Q829 534 779 606.50Q729 679 625 679L344 679M344 825L567 825Q667 825 724 885.50Q781 946 781 1060Q781 1180 721.50 1240Q662 1300 547 1300L344 1300L344 825Z"  horiz-adv-x="1122" vert-adv-y="2048"  />

      
      <glyph glyph-name="uni0413" unicode="&#x0413;" d="M920 1300L344 1300L344 0L141 0L141 1456L920 1456L920 1300Z"  horiz-adv-x="980" vert-adv-y="2048"  />

      
      <glyph glyph-name="uni0414" unicode="&#x0414;" d="M1251-355L1067-355L1067 0L244 0L244-356L62-356L41 154L139 154Q203 225 256.50 400.50Q310 576 318 891L349 1456L1116 1456L1116 154L1270 154L1251-355M522 891Q513 639 466.50 454Q420 269 348 154L914 154L914 1300L543 1300L522 891Z"  horiz-adv-x="1315" vert-adv-y="2048"  />

      
      <glyph glyph-name="uni0415" unicode="&#x0415;" d="M884 676L344 676L344 154L970 154L970 0L141 0L141 1456L964 1456L964 1300L344 1300L344 831L884 831L884 676Z"  horiz-adv-x="1018" vert-adv-y="2048"  />

      
      <glyph glyph-name="uni0416" unicode="&#x0416;" d="M1073 661L939 661L939 0L737 0L737 661L598 661L280 0L27 0L437 781L54 1456L299 1456L603 824L737 824L737 1456L939 1456L939 824L1069 824L1370 1456L1615 1456L1235 783L1642 0L1390 0L1073 661Z"  horiz-adv-x="1664" vert-adv-y="2048"  />

      
      <glyph glyph-name="uni0417" unicode="&#x0417;" d="M529 819Q646 819 702 884.50Q758 950 758 1067Q758 1179 696.50 1250Q635 1321 516 1321Q420 1321 355.50 1251Q291 1181 291 1071L96 1071L94 1077Q89 1255 212.50 1366Q336 1477 516 1477Q722 1477 841.50 1370Q961 1263 961 1065Q961 962 906.50 877.50Q852 793 757 746Q865 705 922.50 617.50Q980 530 980 402Q980 203 851.50 91Q723-21 516-21Q335-21 203.50 86Q72 193 77 398L79 404L274 404Q274 288 341.50 210.50Q409 133 516 133Q638 133 707.50 206Q777 279 777 400Q777 536 714.50 600.50Q652 665 529 665L384 665L384 819L529 819Z"  horiz-adv-x="1064" vert-adv-y="2048"  />

      
      <glyph glyph-name="uni0418" unicode="&#x0418;" d="M897 1456L1100 1456L1100 0L897 0L897 1062L891 1064L340 0L137 0L137 1456L340 1456L340 395L346 393L897 1456Z"  horiz-adv-x="1241" vert-adv-y="2048"  />

      
      <glyph glyph-name="uni0419" unicode="&#x0419;" d="M897 1456L1100 1456L1100 0L897 0L897 1062L891 1064L340 0L137 0L137 1456L340 1456L340 395L346 393L897 1456M898 1872L900 1866Q904 1748 827.50 1674Q751 1600 621 1600Q490 1600 413.50 1674Q337 1748 342 1866L344 1872L495 1872Q495 1806 525.50 1764Q556 1722 621 1722Q683 1722 713.50 1764Q744 1806 744 1872L898 1872Z"  horiz-adv-x="1241" vert-adv-y="2048"  />

      
      <glyph glyph-name="uni041A" unicode="&#x041A;" d="M483 653L344 653L344 0L141 0L141 1456L344 1456L344 816L465 816L850 1456L1092 1456L634 765L1127 0L879 0L483 653Z"  horiz-adv-x="1131" vert-adv-y="2048"  />

      
      <glyph glyph-name="uni041B" unicode="&#x041B;" d="M1099 1456L1099 0L897 0L897 1300L493 1300L491 788Q490 372 396.50 186Q303 0 97 0L46 0L46 154L80 154Q197 156 242.50 293.50Q288 431 289 788L291 1456L1099 1456Z"  horiz-adv-x="1241" vert-adv-y="2048"  />

      
      <glyph glyph-name="uni041C" unicode="&#x041C;" d="M397 1456L737 268L743 268L1084 1456L1346 1456L1346 0L1145 0L1145 559L1163 1119L1157 1120L807 0L673 0L324 1119L318 1118L337 559L337 0L136 0L136 1456L397 1456Z"  horiz-adv-x="1483" vert-adv-y="2048"  />

      
      <glyph glyph-name="uni041D" unicode="&#x041D;" d="M1104 0L902 0L902 642L344 642L344 0L141 0L141 1456L344 1456L344 797L902 797L902 1456L1104 1456L1104 0Z"  horiz-adv-x="1246" vert-adv-y="2048"  />

      
      <glyph glyph-name="uni041E" unicode="&#x041E;" d="M1068 527Q1068 268 934 123.50Q800-21 575-21Q353-21 222 123.50Q91 268 91 527L91 927Q91 1185 222.50 1331Q354 1477 575 1477Q799 1477 933.50 1331Q1068 1185 1068 927L1068 527M866 930Q866 1120 790 1218.50Q714 1317 575 1317Q438 1317 365 1218.50Q292 1120 292 930L292 527Q292 335 365.50 236Q439 137 575 137Q715 137 790.50 235.50Q866 334 866 527L866 930Z"  horiz-adv-x="1160" vert-adv-y="2048"  />

      
      <glyph glyph-name="uni041F" unicode="&#x041F;" d="M1105 0L903 0L903 1300L344 1300L344 0L141 0L141 1456L1105 1456L1105 0Z"  horiz-adv-x="1247" vert-adv-y="2048"  />

      
      <glyph glyph-name="uni0420" unicode="&#x0420;" d="M344 574L344 0L141 0L141 1456L619 1456Q823 1456 939 1334.50Q1055 1213 1055 1015Q1055 816 939 695Q823 574 619 574L344 574M344 730L619 730Q734 730 793 810.50Q852 891 852 1013Q852 1137 793.50 1218.50Q735 1300 619 1300L344 1300L344 730Z"  horiz-adv-x="1132" vert-adv-y="2048"  />

      
      <glyph glyph-name="uni0421" unicode="&#x0421;" d="M1002 442L1005 436Q1004 218 889 98.50Q774-21 564-21Q350-21 222 123Q94 267 94 525L94 929Q94 1187 220.50 1332Q347 1477 558 1477Q772 1477 887 1360Q1002 1243 1005 1018L1002 1012L810 1012Q807 1171 747 1246Q687 1321 558 1321Q433 1321 364 1220Q295 1119 295 932L295 525Q295 335 365.50 234Q436 133 564 133Q690 133 748.50 206.50Q807 280 809 442L1002 442Z"  horiz-adv-x="1084" vert-adv-y="2048"  />

      
      <glyph glyph-name="uni0422" unicode="&#x0422;" d="M984 1300L610 1300L610 0L407 0L407 1300L35 1300L35 1456L984 1456L984 1300Z"  horiz-adv-x="1018" vert-adv-y="2048"  />

      
      <glyph glyph-name="uni0423" unicode="&#x0423;" d="M533 737L567 633L573 633L838 1456L1060 1456L632 254Q576 121 510.50 50Q445-21 315-21Q294-21 266.50-18Q239-15 229-12L230 138Q238 135 263 134Q288 133 303 133Q367 133 399 175Q431 217 458 299L486 377L57 1456L278 1456L533 737Z"  horiz-adv-x="1107" vert-adv-y="2048"  />

      
      <glyph glyph-name="uni0424" unicode="&#x0424;" d="M802 1314L814 1314Q1036 1314 1181.50 1149Q1327 984 1327 727Q1327 469 1181.50 304.50Q1036 140 814 140L802 140L802-60L600-60L600 140L586 140Q363 140 219 303.50Q75 467 75 725Q75 983 219 1148.50Q363 1314 586 1314L600 1314L600 1516L802 1516L802 1314M586 1155Q440 1155 357 1038Q274 921 274 725Q274 529 357 414Q440 299 586 299L600 299L600 1155L586 1155M802 1155L802 299L816 299Q960 299 1043.50 415Q1127 531 1127 727Q1127 922 1044 1038.50Q961 1155 816 1155L802 1155Z"  horiz-adv-x="1395" vert-adv-y="2048"  />

      
      <glyph glyph-name="uni0425" unicode="&#x0425;" d="M553 888L559 888L819 1456L1058 1456L679 735L1074 0L831 0L562 582L556 582L288 0L48 0L436 735L58 1456L295 1456L553 888Z"  horiz-adv-x="1112" vert-adv-y="2048"  />

      
      <glyph glyph-name="uni0426" unicode="&#x0426;" d="M135 1456L338 1456L338 154L895 154L895 1456L1098 1456L1098 156L1244 156L1228-351L1043-351L1043 0L135 0L135 1456Z"  horiz-adv-x="1306" vert-adv-y="2048"  />

      
      <glyph glyph-name="uni0427" unicode="&#x0427;" d="M1069 1456L1069 0L866 0L866 611Q798 589 725 577Q652 565 576 565Q360 565 245.50 673.50Q131 782 131 1022L131 1456L333 1456L333 1022Q333 854 391 787Q449 720 576 720Q645 720 721.50 732.50Q798 745 866 767L866 1456L1069 1456Z"  horiz-adv-x="1211" vert-adv-y="2048"  />

      
      <glyph glyph-name="uni0428" unicode="&#x0428;" d="M343 1456L343 154L731 154L731 1456L933 1456L933 154L1318 154L1318 1456L1521 1456L1521 0L140 0L140 1456L343 1456Z"  horiz-adv-x="1661" vert-adv-y="2048"  />

      
      <glyph glyph-name="uni0429" unicode="&#x0429;" d="M343 1456L343 154L731 154L731 1456L933 1456L933 154L1318 154L1318 1456L1521 1456L1521 154L1671 154L1655-351L1470-351L1470 0L140 0L140 1456L343 1456Z"  horiz-adv-x="1743" vert-adv-y="2048"  />

      
      <glyph glyph-name="uni042A" unicode="&#x042A;" d="M26 1456L574 1456L574 862L830 862Q1036 862 1153 745.50Q1270 629 1270 435Q1270 238 1152.50 119Q1035 0 830 0L372 0L372 1301L26 1301L26 1456M574 707L574 154L830 154Q947 154 1007 234Q1067 314 1067 437Q1067 554 1007 630.50Q947 707 830 707L574 707Z"  horiz-adv-x="1343" vert-adv-y="2048"  />

      
      <glyph glyph-name="uni042B" unicode="&#x042B;" d="M344 862L600 862Q806 862 923 745.50Q1040 629 1040 435Q1040 238 922.50 119Q805 0 600 0L142 0L142 1456L344 1456L344 862M1376 0L1174 0L1174 1456L1376 1456L1376 0M344 707L344 154L600 154Q717 154 777 234Q837 314 837 437Q837 554 777 630.50Q717 707 600 707L344 707Z"  horiz-adv-x="1520" vert-adv-y="2048"  />

      
      <glyph glyph-name="uni042C" unicode="&#x042C;" d="M336 862L592 862Q798 862 915 745.50Q1032 629 1032 435Q1032 238 914.50 119Q797 0 592 0L134 0L134 1456L336 1456L336 862M336 707L336 154L592 154Q709 154 769 234Q829 314 829 437Q829 554 769 630.50Q709 707 592 707L336 707Z"  horiz-adv-x="1101" vert-adv-y="2048"  />

      
      <glyph glyph-name="uni042D" unicode="&#x042D;" d="M125 989L122 995Q118 1212 242 1345Q366 1478 577 1478Q788 1478 917.50 1304Q1047 1130 1047 858L1047 598Q1047 325 917.50 152.50Q788-20 577-20Q363-20 240 107Q117 234 121 460L124 466L319 466Q319 305 384.50 219.50Q450 134 577 134Q703 134 773.50 263Q844 392 844 596L844 673L400 673L400 827L844 827L844 858Q844 1063 773.50 1192.50Q703 1322 577 1322Q450 1322 384.50 1236.50Q319 1151 319 989L125 989Z"  horiz-adv-x="1142" vert-adv-y="2048"  />

      
      <glyph glyph-name="uni042E" unicode="&#x042E;" d="M1492 527Q1492 268 1358 123.50Q1224-21 999-21Q777-21 646 123.50Q515 268 515 527L515 630L354 630L354 0L152 0L152 1456L354 1456L354 785L515 785L515 927Q515 1185 646.50 1331Q778 1477 999 1477Q1223 1477 1357.50 1331Q1492 1185 1492 927L1492 527M1290 930Q1290 1120 1214 1218.50Q1138 1317 999 1317Q862 1317 789 1218.50Q716 1120 716 930L716 527Q716 335 789.50 236Q863 137 999 137Q1139 137 1214.50 235.50Q1290 334 1290 527L1290 930Z"  horiz-adv-x="1612" vert-adv-y="2048"  />

      
      <glyph glyph-name="uni042F" unicode="&#x042F;" d="M258 0L40 0L320 633Q211 688 155 784Q99 880 99 1015Q99 1225 216.50 1340.50Q334 1456 542 1456L952 1456L952 0L749 0L749 568L504 568L258 0M749 1300L542 1300Q423 1300 362.50 1224.50Q302 1149 302 1012Q302 881 363 800.50Q424 720 539 720L749 720L749 1300Z"  horiz-adv-x="1085" vert-adv-y="2048"  />

      
      <glyph glyph-name="uni0430" unicode="&#x0430;" d="M667 0Q656 37 649 72.50Q642 108 640 144Q595 71 527 25Q459-21 376-21Q239-21 161.50 65.50Q84 152 84 297Q84 452 189.50 540.50Q295 629 486 629L637 629L637 740Q637 839 593 894.50Q549 950 468 950Q395 950 350.50 900Q306 850 306 775L113 776L110 782Q105 907 210 1004.50Q315 1102 481 1102Q641 1102 740.50 1007.50Q840 913 840 738L840 236Q840 173 847.50 114.50Q855 56 872 0L667 0M422 135Q493 135 551.50 177Q610 219 637 282L637 503L483 503Q390 503 338.50 443.50Q287 384 287 298Q287 225 322 180Q357 135 422 135Z"  horiz-adv-x="955" vert-adv-y="2048"  />

      
      <glyph glyph-name="uni0431" unicode="&#x0431;" d="M530 1016Q714 1016 820 878.50Q926 741 926 524L926 497Q926 267 813.50 123Q701-21 505-21Q309-21 197 123Q85 267 85 497L85 646Q85 973 200.50 1165.50Q316 1358 504 1398Q599 1420 643.50 1453Q688 1486 688 1554L844 1554L846 1548Q850 1383 771.50 1324.50Q693 1266 524 1237Q420 1218 351 1135Q282 1052 263 904L266 899Q315 951 384 983.50Q453 1016 530 1016M504 861Q395 861 341 765Q287 669 287 524L287 497Q287 338 341 235.50Q395 133 505 133Q614 133 668.50 235.50Q723 338 723 497L723 524Q723 670 668.50 765.50Q614 861 504 861Z"  horiz-adv-x="989" vert-adv-y="2048"  />

      
      <glyph glyph-name="uni0432" unicode="&#x0432;" d="M129 0L129 1082L499 1082Q679 1082 780 1007.50Q881 933 881 786Q881 708 837.50 647Q794 586 714 556Q814 533 867.50 464.50Q921 396 921 305Q921 154 826 77Q731 0 557 0L129 0M331 476L331 152L557 152Q637 152 678 193.50Q719 235 719 315Q719 391 678.50 433.50Q638 476 557 476L331 476M331 619L512 619Q595 620 637 658.50Q679 697 679 771Q679 850 634 888.50Q589 927 499 927L331 927L331 619Z"  horiz-adv-x="1000" vert-adv-y="2048"  />

      
      <glyph glyph-name="uni0433" unicode="&#x0433;" d="M721 925L321 925L321 0L119 0L119 1082L721 1082L721 925Z"  horiz-adv-x="743" vert-adv-y="2048"  />

      
      <glyph glyph-name="uni0434" unicode="&#x0434;" d="M116 154Q193 243 227.50 355Q262 467 270 694L279 1082L912 1082L912 154L1037 154L1021-320L835-320L835 0L246 0L246-320L60-320L42 154L116 154M472 694Q464 507 425.50 374.50Q387 242 325 154L710 154L710 915L477 915L472 694Z"  horiz-adv-x="1086" vert-adv-y="2048"  />

      
      <glyph glyph-name="uni0435" unicode="&#x0435;" d="M507-21Q314-21 198 113Q82 247 82 456L82 614Q82 826 195.50 964Q309 1102 484 1102Q668 1102 767 976.50Q866 851 866 639L866 499L284 499L284 456Q284 316 345.50 224.50Q407 133 520 133Q604 133 664 159.50Q724 186 778 237L842 111Q791 53 705 16Q619-21 507-21M484 946Q396 946 343 860.50Q290 775 284 644L665 644L665 685Q665 800 619 873Q573 946 484 946Z"  horiz-adv-x="930" vert-adv-y="2048"  />

      
      <glyph glyph-name="uni0436" unicode="&#x0436;" d="M918 462L812 462L812 0L610 0L610 462L505 462L285 0L28 0L349 586L50 1082L302 1082L513 635L610 635L610 1082L812 1082L812 635L912 635L1123 1082L1374 1082L1075 586L1396 0L1138 0L918 462Z"  horiz-adv-x="1424" vert-adv-y="2048"  />

      
      <glyph glyph-name="uni0437" unicode="&#x0437;" d="M457 624Q535 624 570 665Q605 706 605 783Q605 856 568.50 903Q532 950 453 950Q383 950 336.50 902.50Q290 855 290 781L96 781L94 787Q89 926 192 1013Q295 1100 446 1100Q615 1100 711.50 1019Q808 938 808 789Q808 714 769 652.50Q730 591 661 556Q741 525 783 460Q825 395 825 302Q825 152 720.50 66.50Q616-19 446-19Q295-19 185 66Q75 151 80 310L82 316L276 316Q276 237 324 183Q372 129 453 129Q536 129 579 178.50Q622 228 622 307Q622 396 581.50 437.50Q541 479 457 479L314 479L314 624L457 624Z"  horiz-adv-x="901" vert-adv-y="2048"  />

      
      <glyph glyph-name="uni0438" unicode="&#x0438;" d="M684 1082L886 1082L886 0L684 0L684 734L678 735L322 0L119 0L119 1082L322 1082L322 349L328 348L684 1082Z"  horiz-adv-x="1006" vert-adv-y="2048"  />

      
      <glyph glyph-name="uni0439" unicode="&#x0439;" d="M684 1082L886 1082L886 0L684 0L684 734L678 735L322 0L119 0L119 1082L322 1082L322 349L328 348L684 1082M780 1529L782 1523Q786 1405 709.50 1331Q633 1257 503 1257Q372 1257 295.50 1331Q219 1405 224 1523L226 1529L377 1529Q377 1463 407.50 1421Q438 1379 503 1379Q565 1379 595.50 1421Q626 1463 626 1529L780 1529Z"  horiz-adv-x="1006" vert-adv-y="2048"  />

      
      <glyph glyph-name="uni043A" unicode="&#x043A;" d="M432 457L331 457L331 0L128 0L128 1082L331 1082L331 629L427 629L676 1082L929 1082L593 575L957 0L693 0L432 457Z"  horiz-adv-x="973" vert-adv-y="2048"  />

      
      <glyph glyph-name="uni043B" unicode="&#x043B;" d="M888 1082L888 0L685 0L685 925L415 925L415 613Q415 294 338.50 147Q262 0 76 0L33 0L33 162L64 163Q151 163 181.50 260Q212 357 212 613L212 1082L888 1082Z"  horiz-adv-x="1008" vert-adv-y="2048"  />

      
      <glyph glyph-name="uni043C" unicode="&#x043C;" d="M653 248L659 248L930 1082L1184 1082L1184 0L980 0L980 706L974 707L725 0L587 0L337 714L331 713L331 0L129 0L129 1082L384 1082L653 248Z"  horiz-adv-x="1317" vert-adv-y="2048"  />

      
      <glyph glyph-name="uni043D" unicode="&#x043D;" d="M885 0L682 0L682 462L322 462L322 0L119 0L119 1082L322 1082L322 616L682 616L682 1082L885 1082L885 0Z"  horiz-adv-x="1006" vert-adv-y="2048"  />

      
      <glyph glyph-name="uni043E" unicode="&#x043E;" d="M76 609Q76 824 188.50 963Q301 1102 497 1102Q692 1102 805 963.50Q918 825 918 609L918 471Q918 254 805.50 116.50Q693-21 498-21Q301-21 188.50 116.50Q76 254 76 471L76 609M279 471Q279 323 333 228Q387 133 498 133Q606 133 660.50 228Q715 323 715 471L715 609Q715 755 660.50 850.50Q606 946 497 946Q387 946 333 851Q279 756 279 609L279 471Z"  horiz-adv-x="995" vert-adv-y="2048"  />

      
      <glyph glyph-name="uni043F" unicode="&#x043F;" d="M886 0L683 0L683 925L322 925L322 0L119 0L119 1082L886 1082L886 0Z"  horiz-adv-x="1006" vert-adv-y="2048"  />

      
      <glyph glyph-name="uni0440" unicode="&#x0440;" d="M916 451Q916 237 822 108Q728-21 561-21Q482-21 422 10Q362 41 319 101L319-416L116-416L116 1082L297 1082L310 958Q353 1027 415 1064.50Q477 1102 559 1102Q728 1102 822 960Q916 818 916 584L916 451M713 584Q713 743 660.50 843.50Q608 944 504 944Q439 944 393 907Q347 870 319 806L319 259Q346 198 392 165.50Q438 133 505 133Q610 133 661.50 220.50Q713 308 713 451L713 584Z"  horiz-adv-x="995" vert-adv-y="2048"  />

      
      <glyph glyph-name="uni0441" unicode="&#x0441;" d="M492 133Q568 133 620 191.50Q672 250 672 348L854 348L856 342Q860 189 752.50 84Q645-21 492-21Q290-21 182.50 116Q75 253 75 465L75 614Q75 826 182.50 964Q290 1102 491 1102Q655 1102 757.50 992.50Q860 883 857 709L854 703L672 703Q672 811 622.50 878.50Q573 946 491 946Q375 946 326.50 852Q278 758 278 614L278 465Q278 319 326.50 226Q375 133 492 133Z"  horiz-adv-x="921" vert-adv-y="2048"  />

      
      <glyph glyph-name="uni0442" unicode="&#x0442;" d="M837 927L537 927L537 0L333 0L333 927L39 927L39 1082L837 1082L837 927Z"  horiz-adv-x="878" vert-adv-y="2048"  />

      
      <glyph glyph-name="uni0443" unicode="&#x0443;" d="M420 373L435 302L441 302L649 1082L870 1082L491-168Q453-280 388-358.50Q323-437 201-437Q176-437 147.50-431.50Q119-426 91-419L113-269Q124-271 143-273Q162-275 173-275Q232-275 266.50-224.50Q301-174 320-105L356 5L22 1082L242 1082L420 373Z"  horiz-adv-x="892" vert-adv-y="2048"  />

      
      <glyph glyph-name="uni0444" unicode="&#x0444;" d="M78 528Q78 789 165 945.50Q252 1102 414 1102Q446 1102 475.50 1095.50Q505 1089 532 1078L532 1560L736 1560L736 1075Q763 1088 795 1095Q827 1102 863 1102Q1024 1102 1111 945.50Q1198 789 1198 528L1198 507Q1198 266 1110.50 122.50Q1023-21 864-21Q827-21 795-14.50Q763-8 736 4L736-416L532-416L532 2Q505-9 475-15Q445-21 412-21Q253-21 165.50 123Q78 267 78 507L78 528M995 528Q995 714 949 830Q903 946 807 946Q786 946 768.50 943Q751 940 736 934L736 143Q750 137 768 135Q786 133 809 133Q905 133 950 234.50Q995 336 995 507L995 528M281 507Q281 335 324 234Q367 133 463 133Q482 133 499.50 135Q517 137 532 142L532 936Q517 940 500 943Q483 946 465 946Q368 946 324.50 831Q281 716 281 528L281 507Z"  horiz-adv-x="1277" vert-adv-y="2048"  />

      
      <glyph glyph-name="uni0445" unicode="&#x0445;" d="M440 687L446 687L616 1082L848 1082L561 548L858 0L627 0L450 408L444 408L266 0L35 0L331 548L44 1082L274 1082L440 687Z"  horiz-adv-x="892" vert-adv-y="2048"  />

      
      <glyph glyph-name="uni0446" unicode="&#x0446;" d="M119 1082L322 1082L322 154L683 154L683 1082L886 1082L886 154L1010 154L995-321L808-321L808 0L119 0L119 1082Z"  horiz-adv-x="1057" vert-adv-y="2048"  />

      
      <glyph glyph-name="uni0447" unicode="&#x0447;" d="M846 0L644 0L644 392Q602 379 559.50 372.50Q517 366 477 366Q289 366 188.50 465Q88 564 88 776L88 1082L290 1082L290 776Q290 636 334.50 578.50Q379 521 477 521Q520 521 561 528.50Q602 536 644 550L644 1082L846 1082L846 0Z"  horiz-adv-x="967" vert-adv-y="2048"  />

      
      <glyph glyph-name="uni0448" unicode="&#x0448;" d="M322 1082L322 154L614 154L614 1082L817 1082L817 154L1109 154L1109 1082L1311 1082L1311 0L119 0L119 1082L322 1082Z"  horiz-adv-x="1434" vert-adv-y="2048"  />

      
      </font>
</defs>
</svg>
